STARTFONT 2.3
FONT -FontForge-Monoton-Book-R-Normal--32-320-72-72-P-216-ISO10646-1
SIZE 32 72 72  4
FONTBOUNDINGBOX 60 51 -5 -13
COMMENT "Generated by fontforge, http://fontforge.sourceforge.net"
COMMENT "Copyright (c) 2011 by vernon adams. All rights reserved."
STARTPROPERTIES 41
FOUNDRY "FontForge"
FAMILY_NAME "Monoton"
WEIGHT_NAME "Book"
SLANT "R"
SETWIDTH_NAME "Normal"
ADD_STYLE_NAME ""
PIXEL_SIZE 32
POINT_SIZE 320
RESOLUTION_X 72
RESOLUTION_Y 72
SPACING "P"
AVERAGE_WIDTH 216
CHARSET_REGISTRY "ISO10646"
CHARSET_ENCODING "1"
FONTNAME_REGISTRY ""
CHARSET_COLLECTIONS "ISO8859-2 ISO8859-9 ISO8859-4 ISO10646-1"
BITS_PER_PIXEL 4
FONT_NAME "Monoton-Regular"
FACE_NAME "Monoton"
COPYRIGHT "Copyright (c) 2011 by vernon adams. All rights reserved."
FONT_VERSION "1.000"
FONT_ASCENT 26
FONT_DESCENT 6
UNDERLINE_POSITION -2
UNDERLINE_THICKNESS 1
X_HEIGHT 22
CAP_HEIGHT 25
DEFAULT_CHAR 1
RAW_ASCENT 799
RAW_DESCENT 200
NORM_SPACE 3
RELATIVE_WEIGHT 40
RELATIVE_SETWIDTH 50
SUPERSCRIPT_X 0
SUPERSCRIPT_Y 11
SUPERSCRIPT_SIZE 19
SUBSCRIPT_X 0
SUBSCRIPT_Y 2
SUBSCRIPT_SIZE 19
AVG_LOWERCASE_WIDTH 232
AVG_UPPERCASE_WIDTH 253
ENDPROPERTIES
CHARS 372
STARTCHAR glyph1.dup1
ENCODING 0
SWIDTH 108 0
DWIDTH 3 0
BBX 1 1 0 0
BITMAP
00
ENDCHAR
STARTCHAR uni0002
ENCODING 2
SWIDTH 108 0
DWIDTH 3 0
BBX 1 1 0 0
BITMAP
00
ENDCHAR
STARTCHAR uni0009
ENCODING 9
SWIDTH 108 0
DWIDTH 3 0
BBX 1 1 0 0
BITMAP
00
ENDCHAR
STARTCHAR uni000A
ENCODING 10
SWIDTH 108 0
DWIDTH 3 0
BBX 1 1 0 0
BITMAP
00
ENDCHAR
STARTCHAR uni000D
ENCODING 13
SWIDTH 108 0
DWIDTH 3 0
BBX 1 1 0 0
BITMAP
00
ENDCHAR
STARTCHAR space
ENCODING 32
SWIDTH 108 0
DWIDTH 3 0
BBX 1 1 0 0
BITMAP
00
ENDCHAR
STARTCHAR exclam
ENCODING 33
SWIDTH 336 0
DWIDTH 11 0
BBX 9 28 1 -2
BITMAP
784B0D1A50
894D0F1C50
894D0F1C50
894D0F1C50
894D0F1C50
894D0F1C50
894D0F1C50
894D0F1C50
894D0F1C50
894D0F1C50
894D0F1C50
894D0F1C50
894D0F1C50
894D0F1C50
894D0F1C50
894D0F1C50
894D0F1C50
894D0F1C50
894D0F1C50
2213040310
0000000000
4888888830
5999999930
2444444410
7DDDDDDD50
0000000000
8FFFFFFF50
1222222210
ENDCHAR
STARTCHAR quotedbl
ENCODING 34
SWIDTH 538 0
DWIDTH 17 0
BBX 15 11 1 15
BITMAP
96692C00096693C0
A77A3E000B67A3E0
A77A3E000B67A3E0
A77A3E000B67A3E0
A77A3E000B67A3E0
A77A3E000B67A3E0
A77A3E000B67A3E0
A77A3E000B67A3E0
A77A3E000B67A3E0
A77A3E000B67A3E0
3223140003223140
ENDCHAR
STARTCHAR numbersign
ENCODING 35
SWIDTH 1014 0
DWIDTH 32 0
BBX 32 29 0 -2
BITMAP
00000000000D58A2F000007A2F1C5000
00000000001F1B66B00000B76C1F2000
00000000005C0F3A700000E3A85D0000
0000000000994E0E400004E0D4890000
0000000000D58A2F000007A2F1C50000
00000AFFF6F1B66BAFFF9B76C1F5FFFB
0000022225C0F2A712221E3A85D12221
00003BBB8994E0E6BBBB5E0D4899BBB2
000026663D58A2E266657A2F1C556660
000057773F1B66B57774B66C1F477750
000099996C1F2A789994E3A85D599950
00000000994E0E400004E0D489000000
00000000D58A3E000007A2F1C5000000
00000002F1B66B00000B66C1F1000000
00000005C1F2A700000E3A85D0000000
0000000994E0E400004E0D4890000000
0000000D58A3E000007A2F1C50000000
0000002F1B66B00000B66B1F10000000
0034435C1F2A734441E3A85D24441000
02DDDB994E0E5DDDD6E0E4999DDD4000
000000D58A3E000007A2F1C500000000
0AFFF6F1B66B9FFFAB66B1F5FFFB0000
022226C1F2A722222F3A85D122210000
2BBB8994D0E5BBBB5E0E4998BBB20000
26664D58A3E266667A2F0C5566600000
00002F1B67B00000B66B1F1000000000
00005C1F2A700000F3A85D0000000000
0000994D0E300004E0E4990000000000
0000B4792D00000692D0B50000000000
ENDCHAR
STARTCHAR dollar
ENCODING 36
SWIDTH 686 0
DWIDTH 22 0
BBX 22 36 0 -5
BITMAP
0000000034016000000000
000000007A01F000000000
000000007A01F000000000
0000000045018000000000
00000027BDEFDCA6300000
000019FB7432347BEC5000
0003DA2269ABA96216DC20
002E819FB86678BEC618D1
00BA1CB2157765216DC200
03E1AA19FCAAACEC716100
0993E1AC21343105C50000
0C57A2F26EEDEFD7000000
0D4976B1F3000032000000
0D4976C1F2000000000000
0C5893E19EDDDB94000000
0994E1C90244469EC30000
05E0C82CDA9997318F5000
00D73E7047788AEB25F300
004F43DD86665219D28C00
0007F7059BBBCFB19B1E40
00005DD7422201BB1E3980
0000005ADEFFF71F2A76C0
0000000000003F1C6894D0
0000001100002F1B67A4D0
0000008FDCBCE81E3A85C0
00005A31355521BB1E4990
000419EDA888AEB19B1E40
003DB40478997319D28C00
1C618ED9654469EB26E300
04DB4048BCDCB8319E4000
0017ED952101259EB30000
0000058CEFFFFD94000000
0000000022114000000000
000000007A01F000000000
000000007A01F000000000
000000005601A000000000
ENDCHAR
STARTCHAR percent
ENCODING 37
SWIDTH 1504 0
DWIDTH 48 0
BBX 48 30 0 -3
BITMAP
00000027CEFDA60000000000000000000000000000000000
000019EA53237CD500000000782C0B400000000000000000
0002DB227AB9615E80000000C66B1F100000000000000000
001D919EA768CD43D7000001F2A75C000000000000000000
00AB1BC2267516E54F300004D0E398000000000000000000
03E29C18FBADD34E28A0000893E0D4000000000000000000
0892E29D21307E29A1F1000C67B2F1000000000000000000
0D4893E26FED29A2F1C5001F2B76C0000000000000000000
0F1B67A2E30A92F0D498005D0E3A80000000000000000000
1F0C4985C005C1F1C58900993E0D40000049DEED94000000
0F1B58A2E209A2F0D49800D57A2F10003BE842248EB30000
0D4993E18ECE28B1F1B601F1B66B0005E8138AB9418E4000
0983E1AB13515E37B1F205C0F2A7003E52BE9669EC25E300
04E1AA1AE98BE53E37B00994E0E300D72E91377419E28D00
00BA1DA1489714E73E400D58A3E007C1C81BEAAEB18C1C60
002E71AE8546AE61D8002F1C67B00D56C1CA1221AC0D66C0
0003EA139CDB823DA0006C1F2B702F0C57C0AFEA0D66C1F1
00002BE831015AE70000A84D0E304C0F1C66D11D57B2F0D3
0000004AEFFFC8100000D4893E005B2F0D49800985C1F1C5
00000000011000000002F1C57A004C0F1C57C00C66B2F0D4
00000000000000000006C1F1B6003E0D58B1CDDB0C75C1F2
0000000000000000000A85D0E3000D47B1D804408D1C75C0
0000000000000000000E4994E00008B1D62DD88DD27D1B70
0000000000000000003E0D58A00001E63E70599617E36E10
0000000000000000007B1F1B6000005E33DC7547CD34E400
000000000000000000A75C1F20000006E605ACDB616E6000
000000000000000000E3984D000000004DC620026CD40000
000000000000000003E0D48900000000006BEFFFB6000000
000000000000000007B2F1C5000000000000011000000000
000000000000000002213041000000000000000000000000
ENDCHAR
STARTCHAR ampersand
ENCODING 38
SWIDTH 1029 0
DWIDTH 33 0
BBX 32 26 1 0
BITMAP
0000016ACDDDDDDDD00A4784B1D10000
00007EC754444444400C5894C1F10000
001BD40589999999900C5894C1F10000
00BB16EC98888888700C5894C1F10000
08D19D4146666666500C5894C1F10000
2E37D16EDBBBBBBBB00C5894C1F10000
7A1E36E402222222200C5894C1F10000
B66B1E35EFFFFFFFE00C5894C1F10000
D4985C1F40000000000C5894C1F10000
D3A76B2F10000000000C5894C1F10000
C67A3E0CC9888888886C5894C1F48881
8A2E1C8168888888886C5894C1F48881
1E3892DC75555555553C5894C1F35550
0D57C18FDCCCCCCCCC8C5894C1F5CCC1
6C2E2AC312222222222C5894C1F23330
B67A3E28FFFFFFFFFFAC5894C1F6EEE1
D4A76C1F20000000000C5894C1F10000
D4985C1F20000000000B67A4E0E30000
B67B2F29FDDDDDDDDD1A75C1F28FDD10
8A2E29C2244444444407B1F2AB124400
3F29B19FCA9999999912F29A1BEA9910
0BB1CB22678888888810A91D91478810
02E919FA7666666666002E61BE966610
004EB227ABBBBBBBBB1004E8148ABB10
0002BFA5322222222200002CE8422200
0000038CEFFFFFFFFF10000049DEFF20
ENDCHAR
STARTCHAR quotesingle
ENCODING 39
SWIDTH 257 0
DWIDTH 8 0
BBX 6 11 1 15
BITMAP
96692C
A77A3E
A77A3E
A77A3E
A77A3E
A77A3E
A77A3E
A77A3E
A77A3E
A77A3E
322314
ENDCHAR
STARTCHAR parenleft
ENCODING 40
SWIDTH 410 0
DWIDTH 13 0
BBX 12 30 1 -3
BITMAP
0000006ADFF1
00005DC74220
0009E5059BC1
008D25EC8650
04E26E515781
0C74E34ECA91
3E0C74E40340
8A3E0C63DED1
A76B2F0C8000
C5894D0F2000
C5885C1F1000
C5885C1F1000
C5885C1F1000
C5885C1F1000
C5885C1F1000
C5885C1F1000
C5885C1F1000
C5885C1F1000
C5885C1F1000
C5894C0F1000
B67A3E0D5000
994E0E45EA91
4D0E56D22681
0E56D18E9661
06D1AC238BB1
00BA18F94220
001CB239DEF1
00019E940000
0000039EFED1
000000002340
ENDCHAR
STARTCHAR parenright
ENCODING 41
SWIDTH 408 0
DWIDTH 13 0
BBX 11 30 1 -3
BITMAP
EFDB61000000
2237BE700000
BB9614DB1000
567CE61BA000
77514D81D600
99CE62D55E10
4313D55E1D50
CEE44E1D58A0
006D0D4995C0
000F2B67A3E0
000E3A76B3E0
000E3A76B3E0
000E3A76B3E0
000E3A76B3E0
000E3A76B3E0
000E3A76B3E0
000E3A76B3E0
000E3A76B3E0
000E3A76B3E0
000E2A67A3E0
003E0C5894D0
9AE62E1C67B0
7731B83F1B60
568E91C83E10
BB941BB0B800
2248EA19D100
EFDA41AD2000
00038EA10000
DDFEA4000000
432000000000
ENDCHAR
STARTCHAR asterisk
ENCODING 42
SWIDTH 664 0
DWIDTH 21 0
BBX 20 20 1 3
BITMAP
00000017072530000000
0000003E0E3A70000000
0000003E0E3A70000000
009B203E0E3A7018C000
0119E84E0E3A76EB2100
0BA22BEE0E3AED518E10
119F815C0E39706EB310
CA23CE600E304CD518E2
19E815DC3E5AE716EB30
003BE618EFFA23CD5000
0019E815EFE705DC3000
07EA23CE6E7CD518EA20
CC419F810E306EB32AE2
217EA23B0E38518E9130
0BC419FE0E3AFB32AE10
0207EB5E0E3A88E91200
009D403E0E3A702AD000
0010003E0E3A70001000
0000003E0E3A70000000
00000029092640000000
ENDCHAR
STARTCHAR plus
ENCODING 43
SWIDTH 601 0
DWIDTH 19 0
BBX 18 16 1 5
BITMAP
000014041322300000
00002F0E3A76B00000
00002F0E3A76B00000
00002F0E3A76B00000
00002F0E3A76B00000
9CCCCF0E3A76ECCCC1
45557F0E3A76C55550
68889F0E3A76D88880
7999AF0E3A76D99991
34446F0E3A76C44440
ADDDDF0E3A76EDDDD1
00002F0E3A76B00000
00002F0E3A76B00000
00002F0E3A76B00000
00002F0E3A76B00000
000015051432400000
ENDCHAR
STARTCHAR comma
ENCODING 44
SWIDTH 252 0
DWIDTH 8 0
BBX 6 11 1 -5
BITMAP
735638
C5894D
C5894D
C5894D
A5894D
00894D
02D65C
BF9098
2106E2
8BED40
563000
ENDCHAR
STARTCHAR hyphen
ENCODING 45
SWIDTH 473 0
DWIDTH 15 0
BBX 13 6 1 10
BITMAP
7BBBBBBBBBBB90
36666666666640
48888888888860
69999999999970
24444444444430
8DDDDDDDDDDDA0
ENDCHAR
STARTCHAR period
ENCODING 46
SWIDTH 255 0
DWIDTH 8 0
BBX 6 6 1 0
BITMAP
799998
688887
466665
8BBBBA
122222
BFFFFD
ENDCHAR
STARTCHAR slash
ENCODING 47
SWIDTH 447 0
DWIDTH 14 0
BBX 14 29 0 -3
BITMAP
00000004B0C387
00000008A3F0C5
0000000C66B1F1
0000001F2A85C0
0000004E0E4990
0000008A3F0D50
000000C66B1F10
000001F2A75C00
000004E0E49900
000008A3E0D500
00000C66B1F100
00001F2A75C000
00004E0E499000
00008A3E0D5000
0000C66B1F1000
0001F2A75C0000
0004E0E4980000
0008A3E0D50000
000C66B1F10000
001F2A75C00000
004D0E39800000
008A3E0D500000
00C66B1F100000
01F2A75C000000
04D0E398000000
08A3E0D5000000
0C66B2F1000000
1F2A75C0000000
4D0E3980000000
ENDCHAR
STARTCHAR zero
ENCODING 48
SWIDTH 843 0
DWIDTH 27 0
BBX 25 29 1 -2
BITMAP
000000015ACEFEDA5100000000
0000007ED9532358DE70000000
00002CD5058ABA8505DC200000
0002DA16ED97679DE719E30000
001D91BD503676404DB18D1000
00AB1CB16EEBABEE61BC1BA000
03E29C1AD5023205DA1BA1E400
0A93E28C15DFEFD61C92E38B00
2F2A83E27E50005E72E48B2F20
6C1F2A83E2000002E38A2F1C60
985D1F2A800000008A2F1C58A0
C5894E0E300000003E0D4985C0
E4A76B2F000000000F2B67A4E0
E3B67A3E000000000D3A76B2F0
E3B67A3E000000000D4A76B2F0
E4A76B2F000000000E3B67A3E0
C5894D0E200000002F0D4885D0
A85C1F2B700000007B1F1C67A0
6C2F1B74E2000001E47B1F2B70
2F1B74E19D30003D91E47B1F20
0B84E1AB17EDCDF81BA1E57C00
04E1BA1BC3145413CB1AB1E500
00BA1D918FC989CF819D1AB000
002E72DC315898613BD27E2000
0003E818EC75457BF918E40000
00003DC316ACDCA713CD300000
0000019FC7310137BF91000000
000000027BEFFFEC7200000000
00000000000121000000000000
ENDCHAR
STARTCHAR one
ENCODING 49
SWIDTH 426 0
DWIDTH 14 0
BBX 13 26 0 0
BITMAP
1DDDDDDDDDDD30
04444444444410
19999999999920
18888888888820
16666666666610
1BBBEDDECFBF40
0000A76B2F0D40
0000A76B2F0D40
0000A76B2F0D40
0000A76B2F0D40
0000A76B2F0D40
0000A76B2F0D40
0000A76B2F0D40
0000A76B2F0D40
0000A76B2F0D40
0000A76B2F0D40
0000A76B2F0D40
0000A76B2F0D40
0000A76B2F0D40
0000A76B2F0D40
0000A76B2F0D40
0000A76B2F0D40
0000A76B2F0D40
0000A76B2F0D40
0000A76B2F0D40
0000A76B2F0D40
ENDCHAR
STARTCHAR two
ENCODING 50
SWIDTH 583 0
DWIDTH 19 0
BBX 18 27 0 0
BITMAP
036ACDEFEDA7200000
1EB85432347BFB2000
00369ABCA96229F500
0AFC987679CFA25F40
021146776402BE27D0
02DFDBA9ADE70AB1E4
01401344303D81F3A8
008DFFEDEE62F1B67A
0054200004E0D3A76B
0000000003E0E2B67A
000000000B76B2F2B7
000000007C2E3AA2F2
00000004E2B74E2AA0
0000001D57C1E64E20
000000B93E2AA1D600
000007C1D56D1AB000
00003E2A92E45E2000
0001D56D1C82E40000
000B93E39B1C800000
007C1D65E29B000000
01B2690A43B1000000
079999999999999940
068888888888888830
046666666666666630
09BBBBBBBBBBBBBB50
012222222222222210
0CFFFFFFFFFFFFFF70
ENDCHAR
STARTCHAR three
ENCODING 51
SWIDTH 612 0
DWIDTH 20 0
BBX 19 29 0 -2
BITMAP
0369BCDEFEC840000000
2EC965432459EC400000
001479AABA8307E70000
09FDA87767AEC33E7000
0211356776317E53E300
03CFECBAACEC34E37B00
015201233218E38B1E20
007CEFEEDFC28B1F1B60
0054200001AA2F0D4970
00000000005C1F1C4980
00000CCCCCB95C0E3B70
00000444457BFB5C0E40
00000899976129F75E00
0000088889CEA24E8500
0000055554118E43F300
00000BCCCEFB24E38C00
000001111029E37B1F20
00000EFFFFB28B1F2B60
0000011112AA2F0D4980
00420000008B2F0D4980
009DFDCCCDE36C1F2B70
013013455406E46D0E30
03EFCA998ADE52E56D00
0102577898505E72E500
0AEB8765458DD51D8000
00369ABCDB9515EA0000
1DA743211238DE500000
158BDEFFFFEB61000000
00000001110000000000
ENDCHAR
STARTCHAR four
ENCODING 52
SWIDTH 622 0
DWIDTH 20 0
BBX 19 26 1 0
BITMAP
0000002D2881D27A0000
0000009A1E38C0E50000
000001F38B1E56D00000
000008C1E46D0C700000
00001E56D0D64E100000
00007D0D65E0B9000000
0000D65D0C73F2000000
0006E0C74E19A0000000
000C74E1B91F30000000
004E1B83F28C00000000
00B83F29A1E502021000
03F2A92F36D00F1C5000
0A92F38B0D700F1C5000
2F29B1E55E100F1C5000
9B1F47D0B8000F1C5000
64462542732227264200
EFFFFFFFFFFFFFFFFF10
00000000000000000000
DDDDDDDDDDDDDDDDDD10
44444444444444444400
99999999999999999900
78888888888888888800
0000000000000E1B5000
0000000000000F1C5000
0000000000000F1C5000
0000000000000F1C5000
ENDCHAR
STARTCHAR five
ENCODING 53
SWIDTH 691 0
DWIDTH 22 0
BBX 22 28 0 -2
BITMAP
03DDDDDDDDDDDDDDDDB000
0144444444444444443000
0299999999999999998000
0288888888888888886000
0166666666666666665000
04FBFCEDBBBBBBBBBBA000
04D0F2B600000000000000
04D0F2B600000000000000
04D0F2B601232000000000
04D0F2B6DFEDEFC7100000
04D0F2B62000015BE60000
04D0F2B6BEFFDB614E9000
04D0F2B6432136BD42D800
04D0F2B69BCCB714E53F20
04D0F2B675446BE44E2990
04D0F2B669A9715E2A94E0
0290A1748766AE2984D0F2
0000000000000B76B2F0D4
0000001100002D67B2F0E3
0000009FDCCDE91C76C1F1
00006921355413BC1C76C0
00142AFCA88ACF919C1C70
004EA3157898512BD18D00
1D519EC965457BF817E300
05EA3159BCDBA613BD3000
0028EC84211137BE910000
0000169DFFFFEB71000000
0000000001100000000000
ENDCHAR
STARTCHAR six
ENCODING 54
SWIDTH 781 0
DWIDTH 25 0
BBX 24 29 1 -2
BITMAP
000000048CDFEDC841000000
000006DD95423459DE810000
0002BD5047ABB98413AE5000
002D916DEA7667ADE824E400
00C81BD5036776413AE50000
07C0CB16DEBAABDE92430000
1E37C19E602332029A000000
5C0E46D25DFEDEEA10000000
984D0D46E610002300000000
B67A3E0D5001221000000000
C4985C1F2BEFEEFEA5000000
D4985C2F163000027DD30000
D4985C2F17ADEFDA517E6000
D4985C2F2A632236BD34E500
D4985C2F048BCCB715E35E10
D4985C2F2D86446CD35E1B70
D4985C2F0168AA716E1B76C0
D4985C2F2EA866AD1B76C2F0
C5894D0F3100000C57A4D0F2
A76C1F29C200002E4894D0F1
7B1F2AA19FDCCDE81D57A2F0
2F2AA1CB31455414CB1D57B0
0AA1E818ECA88ADE81AB1D50
02E62DB3157998513CC19B00
004E718EC865458CE719D200
0004DB3159BCCB9513CD2000
000018EC74211247CE800000
00000016ADFFFFEA61000000
000000000001100000000000
ENDCHAR
STARTCHAR seven
ENCODING 55
SWIDTH 631 0
DWIDTH 20 0
BBX 20 26 0 0
BITMAP
1DDDDDDDDD7965A1D1A5
04444444442E3A85D0F3
19999999993E0D4894E0
18888888877B2F1C57A0
1666666663A76C1F2B70
1BBBBBBBB4E3984D0E30
0000000003E0D5893E00
0000000006B2F1C67A00
000000000A75C1F2B700
000000000E4984D0E300
000000002E0D5893E000
000000006B1F1C67B000
00000000A75C1F2B7000
00000000E4994D0E3000
00000002F0D58A3E0000
00000006B1F1B67B0000
0000000A85D0F2A70000
0000000D4994E0E30000
0000002F1C57A3E00000
0000006C1F1B66B00000
000000985D0E2A700000
000000D4894E0E400000
000002F1C57A3F000000
000006C1F2B66B000000
00000985D0E3A8000000
00000D4893E0E4000000
ENDCHAR
STARTCHAR eight
ENCODING 56
SWIDTH 808 0
DWIDTH 26 0
BBX 24 29 1 -2
BITMAP
0000017BDFFFFFED95000000
00008FB7422222358DE60000
002CC3169BBBBBA8405EB100
01C918EC86666679DE51BB00
0AB1BC315788877405D91D70
3E29B18FDA9999BEE52D73E1
8A3E29D4134444206E63E1B6
C67A2F26EEDDDDED44E1C67A
D4985C1F40000006E0D4985C
D4985C1F30000001F1C5895D
B67A2F27FEDDDDDB95A2A76B
8A2E29C3134444469DD6B2A8
2F29B18FCA999997415EB2F3
0AB1BC315788888AED51BB60
04D908EB8666665305D81C80
3E3DC316ABBBBBCED51D73F2
8A299FB7422222106E63E1B7
C67A297BDFFFFFFD43E1C67A
D4985C1D00000016E0D4985C
D4985C1F30000003F0C5894C
B67B2F27ECBBBBCF72F2B76B
893F2AC3146666522C92F2A8
3E1AB19FB988889BF91B92E3
0AA1CB226999999722BC1AA0
01D918EB75444446AF918D10
002DB227BCDDDDCB722BD200
00019EB6310000125AE91000
0000028CFFFFFFFFD9300000
000000000122221000000000
ENDCHAR
STARTCHAR nine
ENCODING 57
SWIDTH 782 0
DWIDTH 25 0
BBX 24 29 0 -2
BITMAP
000000048CDFEDC840000000
000005DE96322369DD700000
0001BE60379BBA7404CC3000
001CB15DEA7667AED708E300
009B1AD5036776304CC26E10
03E29C15DECAABED719D1AA0
0993E28E61233204CC1A92F2
0E4993E26DFEEFD71B92F1A7
0F1C5893E400003C92F1B66B
1F1D4985D0000003F1C5894C
0F2B66C1DA5457D3F2B67A3E
0C66C1E717ACB940E3B67A3E
06C1D63DB63236B3E3B67A3E
01D62E616BDEDB71E3B67A3E
004E52CC63001372E3B67A3E
0005E815AEFFFD91E3B67A3E
00003CE720010041E3B67A3E
0000004AEECCDFD2F2B67A3D
0000000002443103E0D4985C
000000002000004D83E1C67A
00000000BFDCCEE71C82F1B6
0000008811455413CB1B92F1
0000133BFC9889DF819D1A90
00005E92258997513CD26E10
003D42AFC865458CE816E300
0006E92159BCDB9613BD3000
000029FB74211237BE810000
00000026ADFFFFEA61000000
000000000001100000000000
ENDCHAR
STARTCHAR colon
ENCODING 58
SWIDTH 262 0
DWIDTH 8 0
BBX 6 16 1 4
BITMAP
122222
9FFFFF
000000
8DDDDD
244444
699999
488888
000000
000000
122222
9FFFFF
000000
8DDDDD
244444
699999
488888
ENDCHAR
STARTCHAR semicolon
ENCODING 59
SWIDTH 261 0
DWIDTH 8 0
BBX 6 20 1 0
BITMAP
122222
9FFFFF
000000
8DDDDD
244444
699999
488888
000000
000000
111102
985C1F
985C1F
985C1F
985C1F
335C1F
007A2F
48E44D
6940B8
136CD1
9EC710
ENDCHAR
STARTCHAR less
ENCODING 60
SWIDTH 670 0
DWIDTH 21 0
BBX 20 24 1 1
BITMAP
00000000000000000173
0000000000000004AFC2
00000000000017DE9311
00000000004AFB5039E4
000000017DE8216CE930
000004AFB504AFC61393
0027DE8217DE9316CE91
4BFB504AFB5039EC6132
B8217DE8216CE9316CE3
04AFB5039EC6139EC610
CE8217DE9316CE930000
404AFC6139EC61000000
6DE8216CE93440000000
9504AEC63129ED710000
17DE9303CE9305BFA400
DE603DC6139EC7128ED2
6DE8216CE9316CFA4052
004AFC6139EC6139ED71
000017DE9316CE9305B4
000000039EC6139EC610
00000000016CE9316CE3
00000000000039EC6132
0000000000000016CE91
00000000000000000393
ENDCHAR
STARTCHAR equal
ENCODING 61
SWIDTH 473 0
DWIDTH 15 0
BBX 13 16 1 4
BITMAP
12222222222220
9FFFFFFFFFFFC0
00000000000000
8DDDDDDDDDDDA0
24444444444430
6AAAAAAAAAAA80
47777777777760
00000000000000
00000000000000
12222222222220
9FFFFFFFFFFFC0
00000000000000
8DDDDDDDDDDDA0
24444444444430
6AAAAAAAAAAA80
47777777777760
ENDCHAR
STARTCHAR greater
ENCODING 62
SWIDTH 670 0
DWIDTH 21 0
BBX 20 24 1 1
BITMAP
74000000000000000000
7ED71000000000000000
205BFA40000000000000
BC7128ED710000000000
16CFA405BFA400000000
96128ED7128ED7200000
5CE9305BFA405BFB5000
4139EC6128ED7228DD81
AE9316CFA405BF801BF6
039EC6139ED70249EC61
00016CE930537DE93164
0000003844AFC6139EC3
00000017DE8216CE9311
00004AFB504AEC6139E5
027DE8217DE9316CE930
8FB504AFB6139EC61285
5217DE8216CE9316CFA2
4AFB5039EC6139EC7100
A8217CE9316CE9300000
04AFC6139EC610000000
AE8216CE930000000000
3039EC61000000000000
6DE93000000000000000
86100000000000000000
ENDCHAR
STARTCHAR question
ENCODING 63
SWIDTH 693 0
DWIDTH 22 0
BBX 22 27 0 0
BITMAP
0000048BDEFEC950000000
0017DDA6432359DE700000
03DC50379ABA8404CC2000
1E717DEA87679DE619D200
003DB4036776404CC19C00
001618EEBAABEE71AB1D60
00007B40233205CB1D66C0
0000008EFEDEE71D66C1F1
0000002200003D57A3F0E3
0000000000000A76B2F0D4
0002213041447E3894D0F2
000894D0F3CCA32E3893E0
000894D0F22248E72E38A0
000894D0F4FEDA32C71E40
000894D0F100138E70BA00
000894D0F4EEFE931BC100
000894D0F2321028EA1000
000894D0F3CCCDEA400000
000894D0F2444300000000
000894D0F1000000000000
0002213040000000000000
001AAAAAA7000000000000
0017777775000000000000
0016666664000000000000
002BBBBBB8000000000000
0002222221000000000000
002FFFFFFA000000000000
ENDCHAR
STARTCHAR at
ENCODING 64
SWIDTH 1076 0
DWIDTH 34 0
BBX 34 32 0 -3
BITMAP
0000000000000001110000000000000000
0000000000027BEFFFFEB8300000000000
0000000003BFB731001359ED6000000000
00000002AE81169CDDCA7305CD40000000
0000004EA13AFD865467AED715E8000000
000006E619F921578986205CE52BB00000
00004E42DB23AFCA889BED605E91AB0000
0002E52E819E8200000005BE41CB1B8000
000B81D82CC2000133200005E81C91E400
004E19B1CA0007DFEEFEA4002D71E56C00
00C63E29C102DD6100038EA102E46D1D50
03E1A83E202E916CEFDA41BB005D0D57B0
08A1F39800BA1BD63349E91C700D47B2F0
0B65D0E304E1AB15AB932D74D007A3E0D4
0E37A3E008A3E18E868E65D0F204C0F2B5
0F2994C00B67A2F30006C2F0D403E0E3A6
1F1985C00C5894D00005C2F0D403E0E3A7
0F2794D00B67B1E30005C2F0D403E0E3A7
0D46B1F108A2E26E9885C2F0D403E0E3A7
0B72E1C602E28D325775C2F0D504D0F3B6
07C0C57D007C17EB8884E0E37EBE73F1C5
02F37C1D7009D4147771F38B14641C92F1
00BB0D64F4005DD977709A0AE979EB19A0
003F45E27E50003789801D9049A9508E20
0009D18D26FA2000000002CD73236CD300
0001CB19E42AFC8666677006BEFEC71000
00002EB17F92169ABBAA80000000000000
000002DD32AFB743223451000000000000
0000001AFA226BDEFEEDC2000000000000
000000004CFA6200000011000000000000
000000000039DFFEEEEFF7000000000000
0000000000000023333210000000000000
ENDCHAR
STARTCHAR A
ENCODING 65
SWIDTH 936 0
DWIDTH 30 0
BBX 30 26 0 0
BITMAP
00000000006D2973C0B50000000000
0000000000CE84E0D57B0000000000
0000000003E5D0D57B1F2000000000
000000000990D47B1F2A8000000000
000000001E338A2F2A84E000000000
000000006D1D3F2B74E0D500000000
00000000C75D0B75D0D57B00000000
00000003F1B735D0E47B1F20000000
00000008A2F1B3E48A2F2A80000000
0000000E48A2F18A2F1B84E0000000
0000005D0E48A23F1B75D0D5000000
000000B75D0E485B75D0D47B000000
000002F1B75D0D55D0E48A2F200000
000008A2F1B84E00E48A2F1B800000
00000E48A2F2A8008A2F1B75D00000
00005D0E47B1F2002F1B75D0E40000
0000B75D0D57B0000C75D0E48A0000
0002F2B74E0D6BBBB6C1E48A2F2000
0008A2F2A84E266662E39A2F1B7000
000E57B1F2A8677776993F1B75D000
005D0D57B1F4AAAAAA4E1C65D0E400
00B84E0D57B23333332C66C0E48A00
02F2A84E0D6DEEEEEED6C1E38A2F10
07B1F2A84E1000000001E3992F1B70
0D57B1F2990000000000993E1C75D0
4E0D57C1E300000000003E1C66C1E4
ENDCHAR
STARTCHAR B
ENCODING 66
SWIDTH 862 0
DWIDTH 28 0
BBX 26 26 1 0
BITMAP
7DDDDDDDDDDDDDDDDC94000000
8A44444444444444469EC30000
893999999999999997318E6000
894E8888888888888AEB24E500
894C0666666666665318E45E20
894C1FCBBBBBBBBBCEC26E29A0
894C1F1122222222119E2992F1
894C1F1CFFFFFFFFFC1AA2F1C5
894C1F1C500000001A93E0E3A7
894C1F1C5000000007B2F0D3A7
894C1F1C588888889E65C1F1C6
894C1F1C58888888842D66B2F2
894C1F1C5555555558E92D3990
894C1F1C5CCCCCCCCED44D2B70
894C1F1C52222222216E48A3E1
894C1F1C6FFFFFFFFD37C2F1D5
894C1F1C5000000008A3F0E3A7
894C1F1C5000000008A3E0E3A7
894C1F1C6DDDDDDDEE47B2F1C5
894C1F1C54444444316E38A2F2
894C1F1C59999999ADE53E38C0
894C1F1C588888887515E63F50
894C1F1C5666666668CE42DA00
894C1F1C5BBBBBBBB9505EB000
894C1F1C52222222247CE70000
894C1F1C6FFFFFFFFDB6100000
ENDCHAR
STARTCHAR C
ENCODING 67
SWIDTH 852 0
DWIDTH 27 0
BBX 27 29 0 -2
BITMAP
000000000048CEFFEB8300000000
000000005DE9632236AEC5000000
0000003CD6037ABB97306DB20000
000005E816DEA8668AEC519E4000
00005E52CD6136775216EA16E400
0003E54E916DEBAACFC51BD26E20
000D73E61BD61133117E919D1730
006D1D81DA15CFEEFB42BC1A6000
01E57D0BA1BD610027E91B800000
05D0E57D1BB10000002C91100000
0A85E0E46D100000000240000000
0D4994D0D5000000000000000000
1F2B67A3E0000000000000000000
2F0D5985C0000000000000000000
2F0D4985C0000000000000000000
1F1C6893E0000000000000000000
0E4985D0E4000000000000000000
0A75D1E47C000000000130000000
06C1E48C1CA00000001BA0000000
01E48C1C81CC400005DB1A900000
007C1D62E817EECCED61AD195000
001E64E42CC40355305DB27E2520
0004E35E618ED988AEE619E34E30
00007E34DC4158997404DC24E500
000007E618ED864469DE707E5000
0000004EC4159CDDB9514CD30000
000000017EC74100248DE7000000
00000000016AEFFFFDA510000000
0000000000000121000000000000
ENDCHAR
STARTCHAR D
ENCODING 68
SWIDTH 886 0
DWIDTH 28 0
BBX 27 26 1 0
BITMAP
7DDDDDDDDDDDDDDCB83000000000
8A444444444444457BFB30000000
89399999999999997219F6000000
894E888888888888BFB24E800000
894C066666666665219E53E60000
894C1FCBBBBBBBBDFB26F55F2000
894C1F11222222212AE36E29B000
894C1F1CFFFFFFFFA18D1BA2F300
894C1F1C50000002AC1B92F2A900
894C1F1C500000000C83E1B76D00
894C1F1C5000000004E1D56B1F10
894C1F1C5000000000E4984E0E40
894C1F1C5000000000C57A2F0D50
894C1F1C5000000000C67A2F0D50
894C1F1C5000000000E4883E0E30
894C1F1C5000000003F1C66C1F20
894C1F1C500000000B92F1A85D00
894C1F1C500000008D1AA1F39900
894C1F1CEDDDDDDEC26E1AB1E300
894C1F134444444207E44F38B000
894C1FA99999999AEC34E63E3000
894C088888888877407F72D70000
894D6666666666669ED42D900000
893BBBBBBBBBBBBB8417E8000000
892222222222222359EC40000000
8FFFFFFFFFFFFFFFDA5000000000
ENDCHAR
STARTCHAR E
ENCODING 69
SWIDTH 706 0
DWIDTH 23 0
BBX 21 26 1 0
BITMAP
784B1D1ADDDDDDDDDDDD40
894C1F1C74444444444410
894C1F1CB9999999999930
894C1F1CA8888888888820
894C1F1C96666666666620
894C1F1CDBBBBBBBBBBB30
894C1F1C50000000000000
894C1F1C50000000000000
894C1F1C50000000000000
894C1F1C50000000000000
894C1F1CDBBBBB50000000
894C1F1C96666630000000
894C1F1CA8888840000000
894C1F1CB9999940000000
894C1F1C74444420000000
894C1F1CEDDDDD60000000
894C1F1C50000000000000
894C1F1C50000000000000
894C1F1C50000000000000
894C1F1C50000000000000
894C1F1CB9999999999930
894C1F1CA8888888888820
894C1F1C96666666666620
894C1F1CDBBBBBBBBBBB30
894C1F1C62222222222210
894C1F1CFFFFFFFFFFFF40
ENDCHAR
STARTCHAR F
ENCODING 70
SWIDTH 683 0
DWIDTH 22 0
BBX 20 26 1 0
BITMAP
784B1D1ADDDDDDDDDDD9
894C1F1C744444444442
894C1F1CB99999999996
894C1F1CA88888888885
894C1F1C966666666664
894C1F1CDBBBBBBBBBB7
894C1F1C500000000000
894C1F1C500000000000
894C1F1C500000000000
894C1F1C500000000000
894C1F1C500000000000
894C1F1CB99999999991
894C1F1CA88888888881
894C1F1C966666666661
894C1F1CDBBBBBBBBBB1
894C1F1C622222222220
894C1F1CFFFFFFFFFFF2
894C1F1C500000000000
894C1F1C500000000000
894C1F1C500000000000
894C1F1C500000000000
894C1F1C500000000000
894C1F1C500000000000
894C1F1C500000000000
894C1F1C500000000000
894C1F1C500000000000
ENDCHAR
STARTCHAR G
ENCODING 71
SWIDTH 908 0
DWIDTH 29 0
BBX 28 29 0 -2
BITMAP
000000000048CEFFEB8300000000
000000005DE9632236AEC5000000
0000003CD6037ABB97306DB20000
000005E816DEA8668AEC519E4000
00005E52CD6136775216EA16E400
0003E54E916DEBAACFC51BD26E20
000D73E61BD61133117E919D1730
006D1D81DA15CFEEFB42BC1A6000
01E57D0BA1BD610027E91B800000
05D0E57D1BB10000002C91100000
0A85E0E46D100000000240000000
0D4994D0D5000000000000000000
1F2B67A3E0000000000000000000
2F0D5985C0000000000180725436
2F0D4985C00000000002F0D4986B
1F1C5794D00000000002F0D4986B
0E3985C1F20000000002F0D4986B
0B76B1F2A90000000002F0D4986B
07B1F2992E6000000002F0D4986B
02F2A92E53EA3000014AF0D4986B
009A2E44E519EECCDFD9F0D4986B
002E46E34EA203554217F0D4986B
0006E27E518EC9889BFDF0D4986B
00009D25EA2148998622F0D4986B
000009E419EC854467BFF0D4986B
0000006EA3169CDDBA65F0D4986B
000000029FC73201247BF0D4986B
00000000017BEFFFFEB720000000
0000000000000121100000000000
ENDCHAR
STARTCHAR H
ENCODING 72
SWIDTH 901 0
DWIDTH 29 0
BBX 27 26 1 0
BITMAP
784B1D1A4000000000784B1D1A40
894C1F1C5000000000894C1F1C50
894C1F1C5000000000894C1F1C50
894C1F1C5000000000894C1F1C50
894C1F1C5000000000894C1F1C50
894C1F1C5000000000894C1F1C50
894C1F1C5000000000894C1F1C50
894C1F1C5000000000894C1F1C50
894C1F1C5000000000894C1F1C50
894C1F1C5000000000894C1F1C50
894C1F1CDCCCCCCCCCD94C1F1C50
894C1F1C9555555555B94C1F1C50
894C1F1CA888888888C94C1F1C50
894C1F1CB999999999C94C1F1C50
894C1F1C8444444444A94C1F1C50
894C1F1CEDDDDDDDDDE94C1F1C50
894C1F1C5000000000894C1F1C50
894C1F1C5000000000894C1F1C50
894C1F1C5000000000894C1F1C50
894C1F1C5000000000894C1F1C50
894C1F1C5000000000894C1F1C50
894C1F1C5000000000894C1F1C50
894C1F1C5000000000894C1F1C50
894C1F1C5000000000894C1F1C50
894C1F1C5000000000894C1F1C50
894C1F1C5000000000894C1F1C50
ENDCHAR
STARTCHAR I
ENCODING 73
SWIDTH 338 0
DWIDTH 11 0
BBX 9 26 1 0
BITMAP
784B1D1A40
894C1F1C50
894C1F1C50
894C1F1C50
894C1F1C50
894C1F1C50
894C1F1C50
894C1F1C50
894C1F1C50
894C1F1C50
894C1F1C50
894C1F1C50
894C1F1C50
894C1F1C50
894C1F1C50
894C1F1C50
894C1F1C50
894C1F1C50
894C1F1C50
894C1F1C50
894C1F1C50
894C1F1C50
894C1F1C50
894C1F1C50
894C1F1C50
894C1F1C50
ENDCHAR
STARTCHAR J
ENCODING 74
SWIDTH 434 0
DWIDTH 14 0
BBX 13 28 0 -2
BITMAP
00005A2D0C3860
00006B2F0D4A70
00006B2F0D4A70
00006B2F0D4A70
00006B2F0D4A70
00006B2F0D4A70
00006B2F0D4A70
00006B2F0D4A70
00006B2F0D4A70
00006B2F0D4A70
00006B2F0D4A70
00006B2F0D4A70
00006B2F0D4A70
00006B2F0D4A70
00006B2F0D4A70
00006B2F0D4A70
00006B2F0D3A70
00007A3E0E3A60
0001D66C1F1C50
3BBEA1D65C1F20
16531BC1D66C00
2889EB19C1D600
2998419D28D000
14458EB16E3000
3DDC9418E40000
000138EB200000
4FFFEA40000000
02210000000000
ENDCHAR
STARTCHAR K
ENCODING 75
SWIDTH 815 0
DWIDTH 26 0
BBX 25 26 1 0
BITMAP
784B1D1A4000000882D2891D20
894C1F1C5000002E29A1E38B00
894C1F1C5000009A2E39A1E300
894C1F1C500002F29A2E39A000
894C1F1C50000A92F29A2E3000
894C1F1C50002F2992F29A0000
894C1F1C5000A92F2992F20000
894C1F1C5003E2A92F29A00000
894C1F1C500A92F2A92F200000
894C1F1C503E1A92F2A9000000
894C1F1C50B83E2A92F2000000
894C1F1C53E1A83E2A90000000
894C1F1C5B83E1A93E20000000
894C1F1C5C74E1B83E10000000
894C1F1C54E1B74E1B80000000
894C1F1C50C74E1B83E1000000
894C1F1C504E1B83E1B8000000
894C1F1C500B83E1B83E100000
894C1F1C5003E1B83E1A900000
894C1F1C5000B83E1A93E20000
894C1F1C50003E1A83E2A90000
894C1F1C50000A83E2A92F2000
894C1F1C500003E1A92F2A9000
894C1F1C500000A92E2A92F200
894C1F1C5000003E2A92F29A00
894C1F1C5000000A92F29A2F20
ENDCHAR
STARTCHAR L
ENCODING 76
SWIDTH 604 0
DWIDTH 19 0
BBX 18 26 1 0
BITMAP
784B1D1A4000000000
894C1F1C5000000000
894C1F1C5000000000
894C1F1C5000000000
894C1F1C5000000000
894C1F1C5000000000
894C1F1C5000000000
894C1F1C5000000000
894C1F1C5000000000
894C1F1C5000000000
894C1F1C5000000000
894C1F1C5000000000
894C1F1C5000000000
894C1F1C5000000000
894C1F1C5000000000
894C1F1C5000000000
894C1F1C5000000000
894C1F1C5000000000
894C1F1C5000000000
894C1F1C5000000000
894C1F1CB999999993
894C1F1CA888888882
894C1F1C9666666662
894C1F1CDBBBBBBBB4
894C1F1C6222222221
894C1F1CFFFFFFFFF5
ENDCHAR
STARTCHAR M
ENCODING 77
SWIDTH 920 0
DWIDTH 29 0
BBX 27 26 1 0
BITMAP
7C0A73D1000000000000981D27D0
8F74E1B8000000000002F29A1EE0
8DE1B83E10000000000A92F29DE0
89C73E1A90000000003E2A92F5E0
894E1B92F200000000B83E29A3E0
890B83F29A00000004E1A92F23E0
8934E2AA2F3000000C73E1A953E0
8947A92F39A000005E1B83E4A3E0
894C2F29A1E30000D64E1B86B3E0
894C09A2E38B0006D0C74E16B3E0
894C03E38B1E400D55E1C736B3E0
894C198B1E47C07C0D65E576B3E0
894C1F2E47C1E5C56D0C6A76B3E0
894C1F18B1E56D30D55D0A76B3E0
894C1F12E47C1D66C0D61A76B3E0
894C1F177C1D66D456D63A76B3E0
894C1F1C4D56D1D61D5D3A76B3E0
894C1F1C56D0D65E8C0E3A76B3E0
894C1F1C50D65E1CF40E3A76B3E0
894C1F1C50230412400E3A76B3E0
894C1F1C50000000000E3A76B3E0
894C1F1C50000000000E3A76B3E0
894C1F1C50000000000E3A76B3E0
894C1F1C50000000000E3A76B3E0
894C1F1C50000000000E3A76B3E0
894C1F1C50000000000E3A76B3E0
ENDCHAR
STARTCHAR N
ENCODING 78
SWIDTH 877 0
DWIDTH 28 0
BBX 26 26 1 0
BITMAP
7D1891C54C10000004B1D1A478
8FA2E46D1B80000004C1F1C589
8BE47D0C83E3000004C1F1C589
897D1C73F38C000004C1F1C589
890D73E29B1D600004C1F1C589
8934E29B1E65E10004C1F1C589
89479B1E55E1B90004C1F1C589
894C1E56D1B92E3004C1F1C589
894C06D1B82E37C004C1F1C589
894C15C82E38C1D704C1F1C589
894C1D3F38C1D74E24C1F1C589
894C1F18B1D64E2AA4C1F1C589
894C1F12D65E1AA1E491F1C589
894C1F185E1A91E46D21F1C589
894C1F1C4B92E46D1C81F1C589
894C1F1C52E37D0C83E3E1C589
894C1F1C507C0C73F29B51C589
894C1F1C500D73E29B1E50C589
894C1F1C5004E29B1E55E1C589
894C1F1C5000AA1E55E1B98589
894C1F1C50001E46D1B92E4389
894C1F1C500006D1B82F38C089
894C1F1C500000C83E38C1D689
894C1F1C5000003E28C1D64EA9
894C1F1C50000008B1D64E1AF9
894C1F1C50000001D55E1AA2E9
ENDCHAR
STARTCHAR O
ENCODING 79
SWIDTH 933 0
DWIDTH 30 0
BBX 29 29 0 -2
BITMAP
000000000048CEFFEB830000000000
000000005DE9632246AEC400000000
0000003CD6037ABB97317EB2000000
000005E816DEA8668BFC519E300000
00005E52CD6136775217EB16E30000
0003E54E916DEBAACFC51AD26E2000
000D73E61BD61133116E918D19B000
006D1D81DA15CFEEFB42CC1AB1E400
01E57D0BA1BD610017E91C91E57C00
05D0E57D1BB10000002C92E57C1E30
0A85E0E46D1000000002E46C1F3A80
0D4994D0D500000000007B1F2B76B0
1F2B67A3E000000000001F1C5894E0
2F0D5985C000000000000E3A76B2F0
2F0D4985C000000000000E3A76B2F0
1F1C6893E000000000001F1B68A3E0
0E4985D0E400000000006C1E3A76C0
0A75D1E47C0000000001D56D1E3980
06C1E48C1CA00000001BB1D66D0E40
01E48C1C81CC400005DB1AB1D66D00
007C1D62E817EECCED61AD19C1D500
001E64E42CC40355304DB16E28C000
0004E35E618ED988ADE708E45E3000
00007E34DC4158997405DD35E50000
000007E618ED864569EE717E500000
0000004EC4159CDDB9505DD3000000
000000017EC74100248DE600000000
00000000016AEFFFFDA51000000000
000000000000012200000000000000
ENDCHAR
STARTCHAR P
ENCODING 80
SWIDTH 850 0
DWIDTH 27 0
BBX 26 26 1 0
BITMAP
7DDDDDDDDDDDDDDDCA61000000
8A4444444444444457CE700000
89399999999999998513DB1000
894E8888888888889CE71AC000
894C066666666666414DA1C900
894C1FCBBBBBBBBBDE61C82E30
894C1F112222222204E72F29A0
894C1F1CFFFFFFFFE63E3993E0
894C1F1C500000004E3985C0F2
894C1F1C500000000B67A3E0E3
894C1F1C500000000C5894D0F2
894C1F1C56888888BE1C67A2F0
894C1F1C57999999826D1D56C0
894C1F1C534444445AE37D0C70
894C1F1C5ADDDDDDC816E36E10
894C1F1C5000000014AE43E600
894C1F1C5CFFFFFFFD815E9000
894C1F1C51222222004BF70000
894C1F1C59BBBBBBCEE9200000
894C1F1C546666665300000000
894C1F1C500000000000000000
894C1F1C500000000000000000
894C1F1C500000000000000000
894C1F1C500000000000000000
894C1F1C500000000000000000
894C1F1C500000000000000000
ENDCHAR
STARTCHAR Q
ENCODING 81
SWIDTH 937 0
DWIDTH 30 0
BBX 29 31 0 -4
BITMAP
000000000048CEFFEB830000000000
000000005DE9632246AEC400000000
0000003CD6037ABB97317EB2000000
000005E816DEA8668BFC519E300000
00005E52CD6136775217EB16E30000
0003E54E916DEBAACFC51AD26E2000
000D73E61BD61133116E918D19B000
006D1D81DA15CFEEFB42CC1AB1E400
01E57D0BA1BD610017E91C91E57C00
05D0E57D1BB10000002C92E57C1E30
0A85E0E46D1000000002E46C1F3A80
0D4994D0D500000000007B1F2B76B0
1F2B67A3E000000000001F1C5894E0
2F0D5985C000000000000E3A76B2F0
2F0D4985C000000000200E3A76B2F0
1F1C6893E000000000E41F1B68A3E0
0E4985D0E4000000C46C6C1E3A76C0
0A75D1E47C0000A36D14D56D1E3980
06C1E48C1CA0007C0A3BB1D66D0E40
01E48C1C81CC400825DB1AB1D66D00
007C1D62E817EECCED61AD19C1D500
001E64E42CC40355304DB16E28C000
0004E35E618ED988ADE708E45E3000
00007E34DC4158997405DD35E50000
000007E618ED864569EE717E500000
0000004EC4159CDDB9505DD3880000
000000017EC74100248DE6463E2000
00000000016AEFFFFDA5554E299000
000000000000012200004E29A10000
000000000000000000000AA1200000
000000000000000000000150000000
ENDCHAR
STARTCHAR R
ENCODING 82
SWIDTH 843 0
DWIDTH 27 0
BBX 25 26 1 0
BITMAP
7DDDDDDDDDDDDDDDCA61000000
8A4444444444444457BE700000
89399999999999998513DB1000
894E8888888888889CE71AB000
894C066666666666414DA1C800
894C1FCBBBBBBBBBDE61D82F20
894C1F112222222204E72E2A80
894C1F1CFFFFFFFFE63E2A85D0
894C1F1C500000004E2B76A2F0
894C1F1C500000000D4985C1F0
894C1F1C522222225F1B67A3F0
894C1F1C6FFFFFFFD63E2B76C0
894C1F1C5000000005E73E2B80
894C1F1C6DDDDDDDFE61D73F30
894C1F1C54444444305D91D900
894C1F1C59999999AEE61BC000
894C1F1C588888876405EB1000
894C1F1C5666666669DFC00000
894C1F1C5BBBBFDEDCC5E00000
894C1F1C50000A87B3E1E40000
894C1F1C500005D2F1D59A0000
894C1F1C500001F2C68A4E0000
894C1F1C500000B77B3E1D5000
894C1F1C5000006C2F1D58A000
894C1F1C5000001F2C68A3E100
894C1F1C5000000C67B2F1D500
ENDCHAR
STARTCHAR S
ENCODING 83
SWIDTH 682 0
DWIDTH 22 0
BBX 21 29 0 -2
BITMAP
00000028BDEFDCA6200000
00002BFA6432358BFB4000
0004E92279BBA85217DB10
003E61AFB86679CFB51AC0
00D82DA1257764117DB100
05D1C91AFCAAACFC616000
0B85D1BB11333115C40000
0E4984E18FEDEFD6000000
0F2B6892E2000031000000
0F2B58A3E1000000000000
0E4A85D0BEDDCB83000000
0B76C1D7034446AEB30000
06C1E63DDA999721AE4000
01E54E6157888BEA17E200
006E34EC8666521AC1AA00
0008E5159BBBCF91B92F20
00006EC7422202C92F1B60
0000016ADEFFF63F1C58A0
0000000000005D0E4976B0
0000001100004E0D4985C0
000000AFDCBCF62F1B67A0
00006921355412C92F2B70
001429ECA888BF91B92F20
004EA3147899721BC1AA00
2C529ED965456AFA18E200
05EA3158BCDCB832AE3000
0018EC85210125AFA20000
0000159DEFFFFC83000000
0000000001210000000000
ENDCHAR
STARTCHAR T
ENCODING 84
SWIDTH 591 0
DWIDTH 19 0
BBX 18 26 0 0
BITMAP
1DDDDDDDDDDDDDDDDB
044444444444444443
099999999999999998
088888888888888886
066666666666666665
1BBBBDDCEBFCEDBBB9
00000894C1F1C50000
00000894C1F1C50000
00000894C1F1C50000
00000894C1F1C50000
00000894C1F1C50000
00000894C1F1C50000
00000894C1F1C50000
00000894C1F1C50000
00000894C1F1C50000
00000894C1F1C50000
00000894C1F1C50000
00000894C1F1C50000
00000894C1F1C50000
00000894C1F1C50000
00000894C1F1C50000
00000894C1F1C50000
00000894C1F1C50000
00000894C1F1C50000
00000894C1F1C50000
00000894C1F1C50000
ENDCHAR
STARTCHAR U
ENCODING 85
SWIDTH 905 0
DWIDTH 29 0
BBX 27 28 1 -2
BITMAP
96693C0D20000000004A1D1B4870
B67A3E0E30000000005C1F1C4980
B67A3E0E30000000005C1F1C4980
B67A3E0E30000000005C1F1C4980
B67A3E0E30000000005C1F1C4980
B67A3E0E30000000005C1F1C4980
B67A3E0E30000000005C1F1C4980
B67A3E0E30000000005C1F1C4980
B67A3E0E30000000005C1F1C4980
B67A3E0E30000000005C1F1C4980
B67A3E0E30000000005C1F1C4980
B67A3E0E30000000005C1F1C4980
B67A3E0E30000000005C1F1C4980
B67A3E0E30000000005C1F1C4980
A67A3E0E30000000005C1F1D4980
A85B2F1D40000000007B2E0D3A70
894D0E49A000000000C66C1F1C60
5D0E39A2E500000008D1C65C1F30
1F3992E44E810002AE27D1C75D00
0AA2E45E42BFDCDFA16E46D1C700
02F37E26E82145412AE43E46E100
008D19D33BFB989CF925E62E5000
000BB17F81268985129E52D90000
0001BD23BEA75457BF924E900000
000009E8127ACDCA622AE7000000
0000004CEA6310237BFA20000000
0000000038CFFFFEC72000000000
0000000000001210000000000000
ENDCHAR
STARTCHAR V
ENCODING 86
SWIDTH 940 0
DWIDTH 30 0
BBX 30 26 0 0
BITMAP
3C0B55B0C300000000002D1974C0B4
0D57B1F39900000000007B2F2A84E1
07B1F2A93E1000000000D57B1F2A90
02F2A84E0C6000000004E0D57B1F30
00A84E0D57C00000000A84E0D56C00
004E0D57B1F20000001F2A84E0C600
000D57B1F2A80000007B1F2A93E100
0008B2F2A84E000000D57B1E399000
0002F2A84E0D500004E0D56C1E3000
0000B74D0D57B0000A84E0C66C0000
00005D0D47B1F2001F2A93E1C60000
00000E48A2F2A8007B1F3993E10000
000008A2F2A84E00D57C1E39900000
000002F1B74D0D54E1C66C1E300000
000000B75D0D577A93E1C66C000000
0000005D0E48A23E3993E1C6000000
0000000E48A2F26C1E3993F1000000
00000008A2F1B4C66C1E39A0000000
00000002F1B744E1C66C0E40000000
00000000B75D0993E1C65D00000000
000000005D0E2E3993F1B700000000
000000001E446C1E38A2F100000000
0000000009A0C66C0E48A000000000
0000000003E4E1C65D0E4000000000
0000000000CE93E1B75D0000000000
00000000006F39A2F1B70000000000
ENDCHAR
STARTCHAR W
ENCODING 87
SWIDTH 1161 0
DWIDTH 37 0
BBX 37 26 0 0
BITMAP
3C0C3873C00000A5692D1A800000A5692D1A50
0F3A85C1F20001F2A75C1FD00001F2A75C1F20
0B76B1F1B60004D0E3984DF30004D0E3985D00
07B2F1C57A000893E0D489B7000893E0D49900
03E0D4893E000C57A2F0C66B000C57A2F0D500
00E4984D0E301F1B66B1F92F101F1B66B1F100
00A85C1F2A705C0F2A75FD0D505C0F2A75C000
006B1F1B66B0984D0E399E3990984D0E398000
002F1C57A2F1D4893E0D4B74E0D4893E0D4000
000D4893E0E4F1C57A2F56C0E5F1C57A2F1000
000984D0E376B1F1B66FA2F1BDB1F1B66B0000
0005C0F2B71A75C1F2ACE0D56F75C1F2A70000
0001F1B67B0E4984D0E4F38A2F4984D0E30000
0000C57A3E3E0D4893F1B84E3E0D4893E00000
0000893E0B7B2F1C57F56C0EAB2F1C57A00000
00004D0E33B76B1F1BEA2F1AF76B1F1B600000
00001F2A70E3A75C0F7E0D66F3A75C0F300000
00000C66B4E0E3984D1E38A4E0E3984E000000
000008A2B8A3E0D48A0B84E8A3E0D48A000000
000004E06C67B2F1C606C0EE67B2F1C6000000
000000E31F2B76C1F202F1AF2B76C1F2000000
000000B75D0E3A85D000D57D0E3A85D0000000
0000007B994E0E4990008A994E0E4990000000
0000003FD58A3E0D50004ED58A3E0D50000000
0000000EF1C67B2F10000EF1C67B2F10000000
0000000AC1F2B76C00000AC1F2B76C00000000
ENDCHAR
STARTCHAR X
ENCODING 88
SWIDTH 876 0
DWIDTH 28 0
BBX 28 26 0 0
BITMAP
3D28A0C54D1000000981D45C0A80
0AA1E55E1AA000005E1AA1E55E10
01E56D1B92E40001D64E29B1E500
006D1B92E46D1008B1D64E29B000
000B82E37D1C803E28C1D73E2000
0002E37C0C83E2C83E37C1C70000
00008C1D73E257D1C82E37C00000
00000D74E28B2E46D1B82E300000
000004E29B16B92E46D1B9000000
0000009B1E55E1AA1E56E1000000
0000001E555E55E1AA1E50000000
00000006E19B1D64E29B00000000
00000000A5E29B1D64E200000000
000000000D73E28C1D7800000000
000000007C1C73E38C1D60000000
00000002E37D0C83E455E1000000
0000000B92E46D1C84E1AA000000
0000006D1B92E46D41AA2E400000
000001E55E1AA1E4A92E46D10000
00000AA1E55E1AA32E36D1C80000
00004E29B1D64E2E37C0C83E3000
0001D64E29B1D608C1C73E38C000
0008C1D73E28C000D73E28C1D600
003E38C0C73E30004E29B1D64E20
00C82E37D1C8000009B1E54E1AA0
06D1B82E47D0000001E55E1AA1E5
ENDCHAR
STARTCHAR Y
ENCODING 89
SWIDTH 789 0
DWIDTH 25 0
BBX 25 26 0 0
BITMAP
3B1C2A56800000005A2C1B3860
0C5894D1E2000000C4985C2E10
05C1E1C589000005C1E2C58900
00D4985C1E20000C5894D1E200
006B2E1D5890004D1E2B689000
000D3985C1E200B67A3D1E2000
0006A2E1D49903D1E3B67A0000
0001E3A76B2E2A76B3E1D30000
00007A3E1D495E1D3A76B00000
00001E2B66B1986B2E1D400000
00000894D1E3E1D4985C000000
000001E1B64985C2E1C5000000
000000984D1E2C5894C0000000
0000002E1A894D1E2C50000000
0000000A71E2B6794D00000000
00000002E8A3D1E2B600000000
00000000AF3A67A3E000000000
000000005C1F1C589000000000
000000005C1F1C588000000000
000000005C1F1C588000000000
000000005C1F1C588000000000
000000005C1F1C588000000000
000000005C1F1C588000000000
000000005C1F1C588000000000
000000005C1F1C588000000000
000000005C1F1C588000000000
ENDCHAR
STARTCHAR Z
ENCODING 90
SWIDTH 854 0
DWIDTH 27 0
BBX 25 26 1 0
BITMAP
ADDDDDDDDDDDDDDDDDDDDDDDD0
34444444444444444444447EC0
7999999999999999999408E710
68888888888888888843CC33D0
4666666666666665007E718E60
9BBBBBBBBBBBBB923CC33DB240
1222222222221007E818E718E0
CFFFFFFFFFF812CC33CC23DB20
0000000000007E818E718E7190
00000000002CC33CC23DC24DB0
0000000007E817E718E719E600
00000002BD33CC33DC24DB2000
0000006E817E718E719E600000
00002BD32CC33CC34DB2000000
0006E817E818E718E600000000
02BD32CC33CC33DB2000000000
5E817E817E718E600000000000
942BD33CC33DB2000000000000
06E817E818E704CDDDDDDDDDD0
AD33CC33DC2004444444444440
517E818E706999999999999990
2CD33CC2048888888888888880
B818E715666666666666666660
23CC22ABBBBBBBBBBBBBBBBBB0
7F922222222222222222222220
CFFFFFFFFFFFFFFFFFFFFFFFF0
ENDCHAR
STARTCHAR bracketleft
ENCODING 91
SWIDTH 320 0
DWIDTH 10 0
BBX 9 30 1 -3
BITMAP
8FFFFFFF50
8A22222210
893BBBBB40
894E666620
894D088830
894D0FA930
894D0F1000
894D0F1000
894D0F1000
894D0F1000
894D0F1000
894D0F1000
894D0F1000
894D0F1000
894D0F1000
894D0F1000
894D0F1000
894D0F1000
894D0F1000
894D0F1000
894D0F1000
894D0F1000
894D0F1000
894D0F7620
894D0BBB40
894D222210
894FFFFF50
8900000000
8EDDDDDD50
2444444410
ENDCHAR
STARTCHAR backslash
ENCODING 92
SWIDTH 448 0
DWIDTH 14 0
BBX 14 29 0 -3
BITMAP
3C0C4780000000
0E3A85D0000000
0B66B1F2000000
07A2F1C5000000
04E0E499000000
00E3A85D000000
00B66B1F200000
007A2F1C500000
003E0E49900000
000E3A85D00000
000B66C1F20000
0007A2F1C50000
0003E0E4890000
0000E3A85D0000
0000B66C1F2000
00007A2F1C5000
00003E0D489000
00000E3A85D000
00000B76C1F200
000007A2F1C500
000003E0D48900
000000E3A85D00
000000B76C1F20
0000007A2F1C50
0000003E0D4890
0000000E3A85D0
0000000B76C1F2
00000007A2F1C5
00000003E0D489
ENDCHAR
STARTCHAR bracketright
ENCODING 93
SWIDTH 319 0
DWIDTH 10 0
BBX 9 30 0 -3
BITMAP
1FFFFFFFC0
02222226C0
1BBBBB65C0
06666B85C0
18882985C0
199E4985C0
000C4985C0
000C4985C0
000C4985C0
000C4985C0
000C4985C0
000C4985C0
000C4985C0
000C4985C0
000C4985C0
000C4985C0
000C4985C0
000C4985C0
000C4985C0
000C4985C0
000C4985C0
000C4985C0
000C4985C0
066D4985C0
1BBB3985C0
02222985C0
1FFFFF85C0
00000005C0
1DDDDDDEC0
0444444430
ENDCHAR
STARTCHAR asciicircum
ENCODING 94
SWIDTH 475 0
DWIDTH 15 0
BBX 14 13 1 10
BITMAP
00002815400000
00009F66C00000
0001E9C1E30000
0006C1E3990000
000B61993E1000
002F1A4E1C6000
008A2F1D66C000
00E48A07C1E300
05D0E401F2A900
0B75D000A84E00
2F1B70004E0D50
8A2F20000D57B0
B46A00000791D1
ENDCHAR
STARTCHAR underscore
ENCODING 95
SWIDTH 511 0
DWIDTH 16 0
BBX 14 6 1 -6
BITMAP
9FFFFFFFFFFFFE
12222222222222
7BBBBBBBBBBBBA
36666666666665
48888888888887
59999999999999
ENDCHAR
STARTCHAR grave
ENCODING 96
SWIDTH 472 0
DWIDTH 15 0
BBX 13 9 1 22
BITMAP
00200000000000
01DD5000000000
5506DD60000000
7DD506DD600000
006DD605CD6000
00006DD605CE60
0000005DD61540
000000005CC100
00000000001000
ENDCHAR
STARTCHAR a
ENCODING 97
SWIDTH 832 0
DWIDTH 27 0
BBX 26 25 0 -1
BITMAP
00000000000022000000000000
0000000059EFFFFEA500000000
0000005DD84100147CE7000000
00001AE6049CDDC9504DC20000
0001CC15DD854458DE61AE2000
000AC18E6048997405EB19C100
005E18D34DE9889DD51BB1C800
00D55E26E60365305E91D83E20
05D0D64E34DEBBED52D73F2A80
0A74D0D64F800005E63E1B75C0
0E4984D0D70000004E1B76C1F1
0F1C5893E00000000C67A3E0E2
2F0D4985B00000000985C2F0D4
1F1D5985D00000000985C1F1C4
0F2B67B2F10000000985C1F1C4
0C58A2E1B90000000985C1F1C4
08A2E1B82DA300156985C1F1C4
02F2A92E718DFEFB4985C1F1C4
00AA1E63DB4011034985C1F1C4
002E63E717DEDDED5985C1F1C4
0004E52CC51233213985C1F1C4
00005E816CFCBACF7985C1F1C4
000002CD612466411985C1F1C4
00000005CFC9779C8985C1F1C4
00000000025899741000000000
ENDCHAR
STARTCHAR b
ENCODING 98
SWIDTH 720 0
DWIDTH 23 0
BBX 21 23 1 0
BITMAP
4888888888888764000000
8D999999999999ADE70000
89144444444444304DB000
894FDDDDDDDDDDEE71C900
894C000000000004D81E30
894C1FFFFFFFFFD62E3890
894C1F322222225E3994C0
894C1F100000000B67A3E0
894C1F244444446E3985D0
894C1F3DDDDDDDC52E39A0
894C1F1000000016E72E40
894C1F3FFFFFFFFF80BC00
894C1F1222222238E44E20
894C1F3BBBBBBB925E1B80
894C1F266666669E1B76C0
894C1F100000000C67A3E0
894C1F100000000D5894D0
894C1F3BBBBBBBDC0C67B0
894C1F26666666409D0C60
894C1F277777788DC27E10
894C1F399999999507F400
894C1F1444444447DE4000
894C1F1DDDDDDDCA610000
ENDCHAR
STARTCHAR c
ENCODING 99
SWIDTH 736 0
DWIDTH 24 0
BBX 23 26 0 -2
BITMAP
000000000047898630000000
00000002AEDA989BED600000
0000019E9303454215DC3000
00002CB229EECCDFC617E600
0001D918F93011016DC34E60
000BA1BC239EFFFB618E4450
006D1AB17E941127DC26C000
00D56D19D329CDB518E20000
05D1D55E26F9547DC1500000
0A85D1E55E300000A4000000
0E4985D0D500000000000000
0F2C5894E000000000000000
2F0D4985B000000000000000
1F1C5985C000000000000000
0F2B67B2F200000000000000
0C67B2F2AA00000030000000
07A2F2AA1DA20006E5000000
02E2A91D71AFCCED52C20000
00A92E53DA2155306E816000
002E44E51AFB88AED51CA100
0005E24E9226997406EA1A90
00007E42AFB75469ED51BC10
000005E9227ACDB9405EB100
0000002AEA6310147DE50000
0000000027CEFFFEA5000000
000000000000121000000000
ENDCHAR
STARTCHAR d
ENCODING 100
SWIDTH 833 0
DWIDTH 27 0
BBX 25 23 1 0
BITMAP
48888888888887641000000000
8D99999999999ABDFA30000000
891444444444442028E9100000
894FDDDDDDDDDDEEA32CC20000
894C0000000000038E81AD1000
894C1FFFFFFFFFDA33DB1CA000
894C1F3222222249F71D82E400
894C1F19BBBBBB933E73E38B00
894C1F1C966666AF53F29A2F20
894C1F1C50000005E2A93F0C50
894C1F1C50000000B75D0F3A80
894C1F1C50000000893E0D4990
894C1F1C50000000A94D0E3980
894C1F1C50000001E57B1F1B60
894C1F1C5000002CB0D66D0E30
894C1F1CEDDDDEFA19C0C75D00
894C1F1344444411AD28D1C700
894C1FA999999ABFA26E37E100
894C08888888876219E43F4000
894D66666666667AEB25E70000
893BBBBBBBBBBBA7318E500000
89222222222222359EA2000000
8FFFFFFFFFFFFFDC7300000000
ENDCHAR
STARTCHAR e
ENCODING 101
SWIDTH 666 0
DWIDTH 21 0
BBX 20 23 1 0
BITMAP
44260816888888888881
894C1F1CB99999999991
894C1F1C744444444440
894C1F1CEDDDDDDDDDD1
894C1F1C500000000000
894C1F1CFFFFFFFFFFF1
894C1F1C622222222220
894C1F1C500000000000
894C1F1C611111111110
894C1F1CFFFFFFFFFF70
894C1F1C511111111100
894C1F1CDCCCCCCCCC60
894C1F1C844444444420
894C1F1CB99999999940
894C1F1CA88888888840
894C1F1C500000000000
894C1F1C500000000000
894C1F1CB99999999991
894C1F1CA88888888881
894C1F1C966666666661
894C1F1CDBBBBBBBBBB1
894C1F1C622222222220
894C1F1CFFFFFFFFFFF1
ENDCHAR
STARTCHAR f
ENCODING 102
SWIDTH 625 0
DWIDTH 20 0
BBX 18 23 1 0
BITMAP
442608168888888887
894C1F1CB999999999
894C1F1C7444444444
894C1F1CEDDDDDDDDC
894C1F1C5000000000
894C1F1CFFFFFFFFFE
894C1F1C6222222222
894C1F1C5000000000
894C1F1C5000000000
894C1F1C9777777771
894C1F1CCAAAAAAAA2
894C1F1C7333333331
894C1F1CEEEEEEEEE3
894C1F1C5000000000
894C1F1CEEEEEEEEE3
894C1F1C7333333331
894C1F1C5000000000
894C1F1C5000000000
894C1F1C5000000000
894C1F1C5000000000
894C1F1C5000000000
894C1F1C5000000000
894C1F1C5000000000
ENDCHAR
STARTCHAR g
ENCODING 103
SWIDTH 827 0
DWIDTH 26 0
BBX 26 26 0 -2
BITMAP
00000000004789863000000000
00000002AEDA989BED60000000
0000019E9303454215DC300000
00002CB229EECCDFC617E60000
0001D918F93011016DC34E6000
000BA1BC239EFFFB618E445000
006D1AB17E941127DC26C00000
00D56D19D329CDB518E2000000
05D1D55E26F9547DC150000000
0A85D1E55E300000A400000000
0E4985D0D50000000000000000
0F2C5894E00000000000000000
2F0D4985B00000000423416061
1F1C5985C00000000B67A3E0F2
0F2B67B2F20000000B67A3E0F2
0C67B2F2AA0000000B67A3E0F2
07A2F2AA1DA200029F67A3E0F2
02E2A91D71AFCCDFAC67A3E0F2
00A92E53DA2155413D67A3E0F2
002E44E51AFB889CEE67A3E0F2
0005E24E922699751B67A3E0F2
00007E42AFB75468DF67A3E0F2
000005E9227ACDB95B67A3E0F2
0000002AEA6310248E67A3E0F2
0000000027CEFFFEA500000000
00000000000012100000000000
ENDCHAR
STARTCHAR h
ENCODING 104
SWIDTH 830 0
DWIDTH 27 0
BBX 25 23 1 0
BITMAP
44260816200000006344260810
894C1F1C50000000C5894D0F10
894C1F1C50000000C5894D0F10
894C1F1C50000000C5894D0F10
894C1F1C50000000C5894D0F10
894C1F1C50000000C5894D0F10
894C1F1C50000000C5894D0F10
894C1F1C50000000C5894D0F10
894C1F1CB9999999E5894D0F10
894C1F1CA8888888D5894D0F10
894C1F1C96666666D5894D0F10
894C1F1CDBBBBBBBE5894D0F10
894C1F1C62222222C5894D0F10
894C1F1CFFFFFFFFF5894D0F10
894C1F1C50000000C5894D0F10
894C1F1C50000000C5894D0F10
894C1F1C50000000C5894D0F10
894C1F1C50000000C5894D0F10
894C1F1C50000000C5894D0F10
894C1F1C50000000C5894D0F10
894C1F1C50000000C5894D0F10
894C1F1C50000000C5894D0F10
894C1F1C50000000C5894D0F10
ENDCHAR
STARTCHAR i
ENCODING 105
SWIDTH 337 0
DWIDTH 11 0
BBX 9 23 1 0
BITMAP
4426081620
894C1F1C50
894C1F1C50
894C1F1C50
894C1F1C50
894C1F1C50
894C1F1C50
894C1F1C50
894C1F1C50
894C1F1C50
894C1F1C50
894C1F1C50
894C1F1C50
894C1F1C50
894C1F1C50
894C1F1C50
894C1F1C50
894C1F1C50
894C1F1C50
894C1F1C50
894C1F1C50
894C1F1C50
894C1F1C50
ENDCHAR
STARTCHAR j
ENCODING 106
SWIDTH 393 0
DWIDTH 13 0
BBX 12 27 0 -4
BITMAP
000533517071
000A77A3E0E3
000A77A3E0E3
000A77A3E0E3
000A77A3E0E3
000A77A3E0E3
000A77A3E0E3
000A77A3E0E3
000A77A3E0E3
000A77A3E0E3
000A77A3E0E3
000A77A3E0E3
000A77A3E0E3
000A77A3E0E3
000A77A3E0E3
000A77A3E0E3
000B67A3E0F2
003E2A85C1F1
2AE72E3994D0
2732D82E3980
159E81C92F30
3C932CB1B900
0148E919C100
4FEA32BD2000
01038EA10000
3DEEA3000000
143000000000
ENDCHAR
STARTCHAR k
ENCODING 107
SWIDTH 801 0
DWIDTH 26 0
BBX 24 23 1 0
BITMAP
442608162000000632706327
894C1F1C5000004E1B83E1B8
894C1F1C500000C74E1C74E1
894C1F1C500005D1D65D1C70
894C1F1C50000D56D1D55D00
894C1F1C50007C1E47C1D500
894C1F1C5001E38B1E47C000
894C1F1C5009A1E38B1E3000
894C1F1C502E29A2E39A0000
894C1F1C50A83E2A92E20000
894C1F1C54E1B83E1A900000
894C1F1C5C74E1B83E100000
894C1F1C5992E39A2E300000
894C1F1C52E38B1E38B00000
894C1F1C508B1E47C1E40000
894C1F1C501E46C1D56D0000
894C1F1C5006D1D65D1D6000
894C1F1C5000D65D1C74E100
894C1F1C50004E1C74E1B800
894C1F1C50000B83E1B83E20
894C1F1C500003E2A92E2A90
894C1F1C500000992E29A2E3
894C1F1C5000002E38A1E38B
ENDCHAR
STARTCHAR l
ENCODING 108
SWIDTH 583 0
DWIDTH 19 0
BBX 17 23 1 0
BITMAP
442608162000000000
894C1F1C5000000000
894C1F1C5000000000
894C1F1C5000000000
894C1F1C5000000000
894C1F1C5000000000
894C1F1C5000000000
894C1F1C5000000000
894C1F1C5000000000
894C1F1C5000000000
894C1F1C5000000000
894C1F1C5000000000
894C1F1C5000000000
894C1F1C5000000000
894C1F1C5000000000
894C1F1C5000000000
894C1F1C5000000000
894C1F1CB999999960
894C1F1CA888888850
894C1F1C9666666640
894C1F1CDBBBBBBB70
894C1F1C6222222210
894C1F1CFFFFFFFF90
ENDCHAR
STARTCHAR m
ENCODING 109
SWIDTH 1167 0
DWIDTH 37 0
BBX 35 24 1 0
BITMAP
000000026899852000001478986300000000
000006CFBA88ADFC503AFDA889BEE8100000
0002CD6114554129FCE9203554204BE50000
003E816CFDCCDFB53DD4AEECCDFD816E6000
01E82CD61011027EA2CF93011004BE44F400
09A1D916CFFFFB51BB2E99EFFFD816E46D00
1F29B1BD631138E91D76F931025BE26D0D50
6B1F29B16BCCA51D65D1E7ACDB817D0D57A0
985C1F28C6446D65D0E2BF8445AC0D4894D0
A67A3E0D300006B1F0D49A00000E3A76B2F0
B67A4D0F200004C1F1C58900000D4985C2F0
B67A4D0F200004C1F1C58900000D4985C2F0
B67A4D0F200004C1F1C58900000D4985C2F0
B67A4D0F200004C1F1C58900000D4985C2F0
B67A4D0F200004C1F1C58900000D4985C2F0
B67A4D0F200004C1F1C58900000D4985C2F0
B67A4D0F200004C1F1C58900000D4985C2F0
B67A4D0F200004C1F1C58900000D4985C2F0
B67A4D0F200004C1F1C58900000D4985C2F0
B67A4D0F200004C1F1C58900000D4985C2F0
B67A4D0F200004C1F1C58900000D4985C2F0
B67A4D0F200004C1F1C58900000D4985C2F0
B67A4D0F200004C1F1C58900000D4985C2F0
B67A4D0F200004C1F1C58900000D4985C2F0
ENDCHAR
STARTCHAR n
ENCODING 110
SWIDTH 787 0
DWIDTH 25 0
BBX 23 23 1 0
BITMAP
470641723600000007253350
8F65E1AA1E4000000E3A76B0
8EE1B82F47D000000E3A76B0
89C83F28C0D700000E3A76B0
894F29B1D65E10000E3A76B0
891AA1E55E1B90000E3A76B0
8945E47D0C82F3000E3A76B0
894B7C0D73F29B000E3A76B0
894C1D64E19B1E500E3A76B0
894C05E1A91E46D00E3A76B0
894C17B92F37D0C70E3A76B0
894C1E3F28C0D74E2E3A76B0
894C1F19B1E55E1AA93A76B0
894C1F11E46D1B92F52A76B0
894C1F107D0C83F38C0A76B0
894C1F100D73E29B1E6A76B0
894C1F1004E1AA1E56E676B0
894C1F1000B92E46D1C836B0
894C1F10002F37C0D73F26B0
894C1F100008B0D64E2AA6B0
894C1F100001E55E1AA2EAB0
894C1F1000006D1B92F37FB0
894C1F1000000C73F28C1DB0
ENDCHAR
STARTCHAR o
ENCODING 111
SWIDTH 833 0
DWIDTH 27 0
BBX 26 26 0 -2
BITMAP
00000000004789762000000000
00000002AEDA989BFC60000000
0000019E9303454116DD400000
00002CB229EECCDFC607E60000
0001D918F93012016DD34E6000
000BA1BC239EFFFC618E44E300
006D1AB17E941026DC25E37C00
00D56D19D329CDB609E28C0D60
05D1D55E26F9547DC19C1D66C0
0A85D1E55E300000AC0D66B1F2
0E4985D0D50000000D66C1F1C6
0F2C5894E000000007B2F0D3A7
2F0D4985B000000004C1F1C589
1F1C5985C000000005C1F1D498
0F2B67B2F20000000A84E0E3A7
0C67B2F2AA0000004F2994E0D4
07A2F2AA1DA20006E63E2993E0
02E2A91D71AFCCED52D73F2990
00A92E53DA2155305E81D82F20
002E44E51AFB889DD51CB1C800
0005E24E9226998406DA1AC000
00007E42AFB75469DD51BD1000
000005E9227ACDB9406DB10000
0000002AEA6310248DD5000000
0000000027CEFFFD9500000000
00000000000011000000000000
ENDCHAR
STARTCHAR p
ENCODING 112
SWIDTH 781 0
DWIDTH 25 0
BBX 23 23 1 0
BITMAP
488888888888877510000000
8D999999999999ACFB300000
891444444444443117E80000
894FDDDDDDDDDDEFB33D9000
894C0000000000028E72E600
894C1FFFFFFFFFEB33E64E10
894C1F3222222238E54E1B60
894C1F19BBBBBBA35E1B66B0
894C1F1C9666668E1C5793D0
894C1F1C5000001F2B67A3E0
894C1F1C5ADDDDEB1E4984C0
894C1F1C53444431AC1D48A0
894C1F1C579999AEC28C1E50
894C1F1C5688887418E28D00
894C1F1C54555568DC26F500
894C1F1C5ACCCCB9408F7000
894C1F1C511111248ED40000
894C1F1C5CFFFFFDA5000000
894C1F1C5000000000000000
894C1F1C5000000000000000
894C1F1C5000000000000000
894C1F1C5000000000000000
894C1F1C5000000000000000
ENDCHAR
STARTCHAR q
ENCODING 113
SWIDTH 788 0
DWIDTH 25 0
BBX 24 27 0 -4
BITMAP
000000002578888888888886
0000005CECA99999999999CB
00002CD6113444444444426B
0002DA15CFEDDDDDDDDDE76B
001D81BD710000000000A76B
00AB1CB15BEFFFFFFFF4A76B
03E19C1AD632222222E4A76B
0993F29C15ABBBBBB0D4A76B
0D48A3E28D766667F0D4A76B
0F1C68A2E2000002F0D4A76B
2F0D4985C0000002F0D4A76B
1F1C5884D0000002F0D4A76B
0F3A75C1E5000002F0D4A76B
0B75C1E45EEDDDD5F0D4A76B
07C1D55E50344443F0D4A76B
01F55E25EDA99994F0D4A76B
008E27E515788884F0D4A76B
000BC24DD8666663F0D4A76B
0001BE6059BBBBB5F0D4A76B
000007ED84322223F0D4A76B
00000016ADFFFFF6F0D4A76B
0000000000000002F0D4A76B
0000000000000002F0D4A76B
0000000000000002F0D4A76B
0000000000000002F0D4A76B
0000000000000002F0D4A76B
000000000000000160514324
ENDCHAR
STARTCHAR r
ENCODING 114
SWIDTH 831 0
DWIDTH 27 0
BBX 25 23 1 0
BITMAP
48888888888888876410000000
8D99999999999999ADE9200000
8914444444444444302AE50000
894FDDDDDDDDDDDDEE925E5000
894C00000000000003AE45E200
894C1FFFFFFFFFFFE916E28B00
894C1F32222222224BD29B1F20
894C1F19BBBBBBBB91AB1F2B60
894C1F1C96666666BA3F0D4980
894C1F1C500000008B2F1D4980
894C1F1C6FFFFFFFE56D0E2A70
894C1F1C5222222204E55D0E40
894C1F1C5BBBBBBBDE72E56E00
894C1F1C56666666414D82E700
894C1F1C588888889CE61CB000
894C1F1C599999998614DC1000
894C1F1C5444444457CF800000
894C1F1C6DDDEEEFDF7F300000
894C1F1C50006C3E1E4A900000
894C1F1C50001F2C59A4E00000
894C1F1C50000A86B3E1D50000
894C1F1C500005D1F2C67B0000
894C1F1C500000E4A86C1F2000
ENDCHAR
STARTCHAR s
ENCODING 115
SWIDTH 683 0
DWIDTH 22 0
BBX 21 25 0 -1
BITMAP
0000000000110000000000
0000016ADFFFFDB7300000
00007EC74211236AEC5000
001CC4159BCCBA6316DC20
00BB17EC865567BEC618B0
06D1AC31578875205DC100
0B65D18EC9899BED715000
0E3A75D200000004B30000
0F2C58A000000000000000
0E3A83E631110000000000
0B74E24BEFFFFFC9400000
05E18E7200111259EB2000
00AC14BFEDCCCB8319E200
000AE711344456AEA18C00
00005CFCA9998631BB0D50
0000002578889AE91D48A0
000000000000001E4985C0
000013000000000D4885C0
00005EB6421135CC1D57A0
003D416ADFFFEB719C1C60
0616EC730000026CC28D00
1AD416BEFEDDEFC618E300
006EC62023443116DC3000
00006BFEBA99ADFC600000
0000000467876410000000
ENDCHAR
STARTCHAR t
ENCODING 116
SWIDTH 588 0
DWIDTH 19 0
BBX 18 23 0 0
BITMAP
088888888888888886
199999999999999998
044444444444444443
1DDDDDDDDDDDDDDDDB
000000000000000000
1FFFFFFFFFFFFFFFFC
022224435262532222
00000885C1F1C50000
00000885C1F1C50000
00000885C1F1C50000
00000885C1F1C50000
00000885C1F1C50000
00000885C1F1C50000
00000885C1F1C50000
00000885C1F1C50000
00000885C1F1C50000
00000885C1F1C50000
00000885C1F1C50000
00000885C1F1C50000
00000885C1F1C50000
00000885C1F1C50000
00000885C1F1C50000
00000885C1F1C50000
ENDCHAR
STARTCHAR u
ENCODING 117
SWIDTH 795 0
DWIDTH 25 0
BBX 24 25 1 -2
BITMAP
534527071000000634426081
B67A3E0F2000000C5894D0F1
B67A3E0F2000000C5894D0F1
B67A3E0F2000000C5894D0F1
B67A3E0F2000000C5894D0F1
B67A3E0F2000000C5894D0F1
B67A3E0F2000000C5894D0F1
B67A3E0F2000000C5894D0F1
B67A3E0F2000000C5894D0F1
B67A3E0F2000000C5894D0F1
B67A3E0F2000000C5894D0F1
B67A3E0F2000000C5894D0F1
B67A3E0F2000000C5894D0F1
A77A3E0E3000000D4985C1F1
985C1F2A8000003F1B67B2E0
6B2F1B82E80004D73F2B75C0
1F1B83E43DECDE71C83F2A70
0B83E45E6035413DB1C82E20
03E36E34DD989CE81AB1C800
008D17E604898613DB19D100
000AC24DD85457BE819E2000
00009E6059CDCA713CC20000
000005DD8410136BE8100000
000000059DFFFEB710000000
000000000001100000000000
ENDCHAR
STARTCHAR v
ENCODING 118
SWIDTH 855 0
DWIDTH 27 0
BBX 27 23 0 0
BITMAP
3707245171000000005427072460
1F3993E1C600000001E3993E1C70
0A93E1C66C00000006C1E3992F10
04E1D66C1E3000000C66C1E38A00
00D57C1E399000003E1C65D0E400
007B1F2993E10000993E1B75D000
001F2A83E1C60001E3992F1B7000
000A84E0C66C0006C1E38A2F1000
0004E0D57C1E300C66C0E48A0000
0000D57B1F39903E1C75D0E40000
00007B1F2A83E1993F1B75D00000
00001F2A84E0C2E39A2F1B700000
00000A84E0D536D0E48A2F200000
000004E0D57B0C75D0E48A000000
000000D57B1E3F1B75D0D5000000
0000008B2F248A2F1B75D0000000
0000002F2A80E48A2F2B80000000
0000000B85B5D0E48A2F20000000
00000005D04B75D0D47B00000000
00000000E42F1B75D0D500000000
000000008A8A2F1B84E000000000
000000002FE48A2F2A8000000000
000000000BD0D47B1F2000000000
ENDCHAR
STARTCHAR w
ENCODING 119
SWIDTH 1129 0
DWIDTH 36 0
BBX 34 24 1 -1
BITMAP
5345270710000725435170000180624436
B67A3E0F20000E3A76B2F00001F0D4985C
B67A3E0F20000E3A76B2F00001F0D4985C
B67A3E0F20000E3A76B2F00001F0D4985C
B67A3E0F20000E3A76B2F00001F0D4985C
B67A3E0F20000E3A76B2F00001F0D4985C
B67A3E0F20000E3A76B2F00001F0D4985C
B67A3E0F20000E3A76B2F00001F0D4985C
B67A3E0F20000E3A76B2F00001F0D4985C
B67A3E0F20000E3A76B2F00001F0D4985C
B67A3E0F20000E3A76B2F00001F0D4985C
B67A3E0F20000E3A76B2F00001F0D4985C
B67A3E0F20000E3A76B2F00001F0D4985C
B67A3E0F20000E3A76B2F00001F0D4985C
A77A3E0D30000F2A67A3F10003E0D4A86B
985C1F29C5349C0D4994FA434BA1F1B67A
6B1F2AA17CDC927D1D58B8CDC719B1F2A7
1F2AA1DC52014AE36D1EC41025CD29B1F2
0AA1D817DFFFE925E39D8DFFFD817E29B0
02E52DC4012103AE56FC4012104BD36E20
004E618DECBCEE927F88EECBCED816E400
0004DB403465304CEEB303565304BE4000
000017EEA878ADE9219EDA879AEE810000
0000000379A985100001479A9730000000
ENDCHAR
STARTCHAR x
ENCODING 120
SWIDTH 790 0
DWIDTH 25 0
BBX 25 23 0 0
BITMAP
27137055074000281370550640
0B91E63F37E100AB1D72F45E10
02F45E19C0C905E28C0B91E600
007D1AA1D73F2E73F36E19B000
000C82E54E249C0C91E54F2000
0003F36D1AA4F37D1AA1D70000
00009C0C915D82E45E28C00000
00001D73F38D0BA1D63F300000
000004E274F46E19C0C9000000
000000AB0C91E64F37D1000000
0000001B6E1AB0D82E40000000
00000002E54E28D0BA00000000
0000000AA1D72F46E510000000
0000005E28C0C91E6A90000000
000001E63F36D1AB32F4000000
000009C0C82E54E3E27D000000
00004F27D1AA1D71AB0D800000
0000D72F45E19C791E63F30000
0008D0BA1E63F32F45E19C0000
003F36E19B0C8A27D1BA1D7000
00C91E54F27D1AB0C82E55E200
07D1AB0D72F401E63F37D1AB00
2E55E28C0BA0005E19C0C91E50
ENDCHAR
STARTCHAR y
ENCODING 121
SWIDTH 733 0
DWIDTH 23 0
BBX 23 23 0 0
BITMAP
361706244000000716345270
1E2B67B2E100005C2E1D4980
07A3D1D4990000C4985C2E10
01E2A76C1E3005C1E2C58900
007A3E1D57B00C5894D1E200
001E2A85D1D54D1E2B689000
0007A2E1C658B67A3D1E2000
0001E3994E14D1E3B67A0000
00007A2E2B7A76B3E1D30000
00001E39935E1D3A76B00000
000007A1E2986B2E1D400000
000000D386E1D4985C000000
0000006A1985C2E1C5000000
0000000D4E2C5895C0000000
00000006F94D1E2C50000000
00000000F3A76B2E00000000
00000000E3B67A3E00000000
00000000E3B67A3E00000000
00000000E3B67A3E00000000
00000000E3B67A3E00000000
00000000E3B67A3E00000000
00000000E3B67A3E00000000
00000000E3B67A3E00000000
ENDCHAR
STARTCHAR z
ENCODING 122
SWIDTH 714 0
DWIDTH 23 0
BBX 22 23 0 0
BITMAP
0577777777773550640721
07AAAAAAAAA93E45E28C09
024444444441BA1E72F36B
09DDDDDDDDC6E19C0B91E3
00000000001E63F36E1A80
0AFFFFFFFB9C0C81E54D10
0122222224F37D1AB1D500
000000000C82E54E28B000
000000007D1AA0D72E2000
00000002E55E28C0B70000
0000000BA1D72F36D00000
0000005E28C0B91E400000
000001E73F36E1AA000000
000009C0C91E54E1000000
00003F36D1AB0D60000000
0000C82E54F28C00000000
0007D1AB0D72E300000000
002E54E28D0B9599999996
00BA1D72F46E1788888885
05E28C0B91E55666666664
1E73F36E19B2BBBBBBBBB8
2C0C91E64F222222222221
136E19B0D86FFFFFFFFFFA
ENDCHAR
STARTCHAR braceleft
ENCODING 123
SWIDTH 396 0
DWIDTH 13 0
BBX 12 34 0 -7
BITMAP
00000028CEFD
000006EA5221
00006E428BBA
0002E35EA655
000992E51687
000E3991EB98
001F0D58A000
002E0E3A7000
003E0E3A7000
003E0E3A7000
003E0E3A7000
003E0E3A7000
003E0E3A7000
003E0E3A7000
05550D1B5000
1CDFC50E3000
01016E750000
2FFC42E50000
0126E46C0000
1CB36D0E2000
059C1F2B5000
003E0E3A7000
003E0E3A7000
003E0E3A7000
003E0E3A7000
003E0E3A7000
002F0E397000
000F1C56C100
000D57B0BEDB
0007B1D90243
0001D62CEA98
00003E704786
000003DD9665
000000049ABA
ENDCHAR
STARTCHAR bar
ENCODING 124
SWIDTH 266 0
DWIDTH 9 0
BBX 7 30 1 -4
BITMAP
784B0D10
894D0F10
894D0F10
894D0F10
894D0F10
894D0F10
894D0F10
894D0F10
894D0F10
894D0F10
894D0F10
894D0F10
894D0F10
894D0F10
894D0F10
894D0F10
894D0F10
894D0F10
894D0F10
894D0F10
894D0F10
894D0F10
894D0F10
894D0F10
894D0F10
894D0F10
894D0F10
894D0F10
894D0F10
33150500
ENDCHAR
STARTCHAR braceright
ENCODING 125
SWIDTH 396 0
DWIDTH 13 0
BBX 12 34 0 -7
BITMAP
2FFEC6100000
02236CD30000
1CBA617E2000
1557CD27C000
188509C0D500
199DB0D58A00
0001E3985C00
0000B6794D00
0000B67A4D00
0000B67A4D00
0000B67A4D00
0000B67A4D00
0000B67A3E00
0000985D1EA7
00006C1E5287
00001E45E854
000006E23ACA
0000367E8311
00008914AEFC
0000A76B1601
0000B67A3D00
0000B67A4D00
0000B67A4D00
0000B67A4D00
0000B67A4D00
0000B67A4D00
0000C5894D00
0003E2A85C00
2DDF71E39900
04411CA1E300
199BE91AA000
187621BD1000
1667AEA10000
1BBA82000000
ENDCHAR
STARTCHAR asciitilde
ENCODING 126
SWIDTH 665 0
DWIDTH 21 0
BBX 20 6 1 18
BITMAP
00269999999996029082
06EB888888888505D0E2
2F4045666666667D72F1
8A1CEBBBBBBBBBB609B0
B66D1022222222249E20
C48904FFFFFFFFFDA200
ENDCHAR
STARTCHAR uni00A0
ENCODING 160
SWIDTH 108 0
DWIDTH 3 0
BBX 1 1 0 0
BITMAP
00
ENDCHAR
STARTCHAR exclamdown
ENCODING 161
SWIDTH 336 0
DWIDTH 11 0
BBX 9 28 1 -2
BITMAP
784B0D1A50
894D0F1C50
894D0F1C50
894D0F1C50
894D0F1C50
894D0F1C50
894D0F1C50
894D0F1C50
894D0F1C50
894D0F1C50
894D0F1C50
894D0F1C50
894D0F1C50
894D0F1C50
894D0F1C50
894D0F1C50
894D0F1C50
894D0F1C50
894D0F1C50
2213040310
0000000000
4888888830
5999999930
2444444410
7DDDDDDD50
0000000000
8FFFFFFF50
1222222210
ENDCHAR
STARTCHAR cent
ENCODING 162
SWIDTH 708 0
DWIDTH 23 0
BBX 22 32 0 -3
BITMAP
0000000000A30670000000
0000000000D40890000000
0000000000D40890000000
0000000000C30680000000
00000000158ABA85100000
00000029FD97679DE91000
000006EA304676403AE600
00009E429EDBABEE914D90
0007D25EA3023204AE62D9
003E36E429EEEFE814E724
00B83E44EA30004AE53C10
04E1B83E619EFD815E3000
0893E1C82DA424AE330000
0D58A3E1C9000007500000
0E2B67A2E1000000000000
1F1C5895C0000000000000
0F2B6894D0000000000000
0E3985D1E4000001000000
0A75C1E47D30003D700000
06C1E47D18FB9CF8193000
01E47C1AC2268622CC1400
007C1BA18FA667BF819D10
000C91CC228BBA722BD26A
0002E819FA53236BF817E3
00002DB228CEFEC722BD30
0000019FA5100015AF9100
000000028DFEDEFD820000
0000000000424120000000
0000000000D40890000000
0000000000D40890000000
0000000000D40890000000
0000000000A30670000000
ENDCHAR
STARTCHAR sterling
ENCODING 163
SWIDTH 689 0
DWIDTH 22 0
BBX 21 27 1 0
BITMAP
0000016ADEFEDB73000000
00008EC8432346AED71000
001CC4159ABA96305BE400
01CA17EC87678BED716E20
08C1AD3147775204BD4000
1E47D17EDAAACED8152000
5D0E46E40233203A800000
994D0E44EEDEFE90000000
A76B2F0D60000230000000
B67A3E0E30000000000000
B67A3E0E30000000000000
B67A3E0E33333333300000
B67A3E0E5EEEEEEEE20000
B67A3E0E30000000000000
B67A3E0E5EEEEEEEE20000
B67A3E0E33333333300000
B67A3E0E5AAAAAAAA20000
B67A3E0E47777777710000
B67A3E0E30000000000000
B67A3E0E30000000000000
B67A3E0E30000000000000
B67A3E0EA9999999920000
B67A3E0E98888888810000
B67A3E0E76666666610000
B67A3E0ECBBBBBBBB20000
B67A3E0E42222222200000
B67A3E0EFFFFFFFFF30000
ENDCHAR
STARTCHAR currency
ENCODING 164
SWIDTH 715 0
DWIDTH 23 0
BBX 22 26 0 -1
BITMAP
0000010000000000010000
00006D10000000001D4000
002A1BA000000000BA1B20
061C91D700000008C1AB16
1D82E63E3134314E27D19C
03E54E27CFEDEFC63E36E2
005E25CD6100026DB43E40
00088DA16BEFEB51BC9700
0000AA1BD63237EA1C9000
0003E1AB1000001C83F200
000893E100000003F1B700
000C57A000000000B67A00
000D3A7000000000985C00
000E3A7000000000894D00
000D498000000000A85B00
000A76C000000000D48900
0006C1E500000006D0D500
0001E45E5000006E46D000
00047E25ED989DD43E7300
002E58E515898406E66D10
01C91B6EC85558DD6A1AB0
0AC1BA186ACCB9681BA1D8
1B28D1AB0000000C91D72B
003E27D100000002E63E20
00014E30000000004E3100
0000240000000000051000
ENDCHAR
STARTCHAR yen
ENCODING 165
SWIDTH 796 0
DWIDTH 26 0
BBX 25 26 0 0
BITMAP
2C1B3875A00000003B1C2A5780
0A76B3E1D3000000B67A3D1E30
03D1E3A76B000003E1D3A76B00
00B67A3E1D30000A76B2E1D300
004D1E2B67B0002E1D4986B000
000C5894D1E300985C2E1D4000
0005C1E2B67B02E1C5985C0000
0000C4894D1E3894C1E2C50000
00005C1E2C675E2C5894D00000
00000D4985D1894D1E2B600000
000006B2E1C4E2B67A3D000000
000000E3A847A3D1E3A6000000
0000007A2E1D3A76B3E1000000
0000001E297B2E1D3A70000000
0000000890D4986B2E10000000
00000001E7C2E1D49800000000
000000008F5985C1E100000000
000000003E0E3A76B000000000
0004DDDD6E0E3A77AADDD90000
000144444E0E3A77A344430000
000399995E0E3A77A799970000
000288884E0E3A77A688850000
000000003E0E3A77A000000000
000000003E0E3A77A000000000
000000003E0E3A77A000000000
000000003E0E3A77A000000000
ENDCHAR
STARTCHAR brokenbar
ENCODING 166
SWIDTH 263 0
DWIDTH 8 0
BBX 6 30 1 -4
BITMAP
875A1D
985C1F
985C1F
985C1F
985C1F
985C1F
985C1F
985C1F
985C1F
985C1F
985C1F
985C1F
443618
000000
000000
000000
000000
985C1F
985C1F
985C1F
985C1F
985C1F
985C1F
985C1F
985C1F
985C1F
985C1F
985C1F
985C1F
432516
ENDCHAR
STARTCHAR section
ENCODING 167
SWIDTH 108 0
DWIDTH 3 0
BBX 1 1 0 0
BITMAP
00
ENDCHAR
STARTCHAR dieresis
ENCODING 168
SWIDTH 556 0
DWIDTH 18 0
BBX 16 5 1 23
BITMAP
1111020000202011
B67A3E0002F0D498
B67A3E0002F0D498
B67A3E0002F0D498
4234150001605133
ENDCHAR
STARTCHAR copyright
ENCODING 169
SWIDTH 869 0
DWIDTH 28 0
BBX 26 26 1 1
BITMAP
0000000038BEFFDB7200000000
0000003BFFDB9ABEFFA2000000
000009FE8300000049FF800000
0001CFA200000000003CFA1000
000CF7000037997400009FA000
009F80004DFFFFFFD5000AF700
04FB0008FE941137DFA001DE20
0CF3007FD20000001AF8005F90
3FA003FD100000000061000CF1
8F500BF40000000000000007F6
CF102FC00000000000000002F9
ED005F800000000000000000FB
FB007F600000000000000000ED
FC007F600000000000000000EC
ED005F800000000000000000FB
BF101FD00000000000000003F9
8F500BF50000000000000008F5
3FA003EE200000000082000DE1
0BF3006FE40000002BF8006F80
03FC0006EFB6435AEF8001DE10
008F90003BFFFFFFB3000BF600
000BF900002577520001BF8000
0001AFC300000000004DF90000
000008FFA40000015BFE600000
0000002AFFEDBBDFFE81000000
0000000016ACDDC95100000000
ENDCHAR
STARTCHAR ordfeminine
ENCODING 170
SWIDTH 833 0
DWIDTH 27 0
BBX 25 25 1 -1
BITMAP
00000000000121000000000000
000000049DFFFFEA6100000000
000004CE94100136BE81000000
00008F7138BDDCA613BD300000
000AD33BE964457CE817E40000
007D26F8137998503CD26E2000
03F36E43BEA889DE719D19B000
0B82E54E81256414CB1BB1E400
2F1A82E52BFCBDE71B91E48A00
7A2F1A92EA10004D91E48A2E00
B66B1F1AA0000002E3893E0E40
D4985C1F20000000984D0F2B50
E3A76B3E000000006A3E0E3A70
D3A76B2F100000006B2F0D4A70
C5894D0E400000006B2F0D4A70
985D0E38B00000006B2F0D4A70
5D1E38B1CC4001476B2F0D4A70
1E47C1D917DFEFC56B2F0D4A70
08C1C82CC51120256B2F0D4A70
00D92D916CFDCEE86B2F0D4A70
002E81BD711342136B2F0D4A70
0003DA14BFDBACEA6B2F0D4A70
00001AE8214665216B2F0D4A70
0000004BFC9879CB6B2F0D4A70
00000000157897510000000000
ENDCHAR
STARTCHAR guillemotleft
ENCODING 171
SWIDTH 911 0
DWIDTH 29 0
BBX 27 17 1 3
BITMAP
0000000000035000000000000260
0000000016CE600000000005AFA0
00000039EC611000000028DD8210
00016CE9316C9000005BFA404AD0
04AFC6139EC710028ED7227DE820
AE8316CE9315606FA404AFB50480
4039EC6139ED503128DE8217DE80
5CE9316CE940003BFB504AFB5000
96139EC631000067227DE8320000
16CE9302BFA40005AFB5019FB610
CF712DC6128E807F921AE8217CD0
5CE9316CE930203BFB504AFB5030
0039EC6139ED500028DE8217DE80
000016CE931660000004AFB50480
000000039EC610000000017DE820
00000000016C9000000000004AD0
0000000000001000000000000010
ENDCHAR
STARTCHAR logicalnot
ENCODING 172
SWIDTH 718 0
DWIDTH 23 0
BBX 21 11 1 6
BITMAP
9DDDDDDDDDDDDDDD1A5780
244444444444444F1C5890
69999999999999AF1C5890
588888888888888F1C5890
466666666666666F1C5890
7BBBBBBBBBBBBBBF1C5890
000000000000000F1C5890
000000000000000F1C5890
000000000000000F1C5890
000000000000000F1C5890
0000000000000004031220
ENDCHAR
STARTCHAR registered
ENCODING 174
SWIDTH 869 0
DWIDTH 28 0
BBX 26 26 1 1
BITMAP
0000000038BEFFDB7200000000
0000003BFFDB9ABEFFA2000000
000009FE8300000049FF800000
0001CFA200000000003CFA1000
000CF7000000000000009FA000
009F80001111111000000AF700
04FB0003FFFFFFFFA20001DE20
0CF30003FD99999CFE20005F90
3FA00003F90000007FA0000CF1
8F500003F90000000EF00007F6
CF100003F90000000DF00002F9
ED000003F90000004FB00000FB
FB000003FB555568EF300000ED
FC000003FFFFFFFFD4000000EC
ED000003FB5557FC00000000FB
BF100003F90000CF30000003F9
8F500003F900005FA0000008F5
3FA00003F900000DF200000DE1
0BF30003F9000006FA00006F80
03FC0003F9000000EF2001DE10
008F90014200000024200BF600
000BF900000000000001BF8000
0001AFC300000000004DF90000
000008FFA40000015BFE600000
0000002AFFEDBBDFFE81000000
0000000016ACDDC95100000000
ENDCHAR
STARTCHAR degree
ENCODING 176
SWIDTH 330 0
DWIDTH 11 0
BBX 9 10 1 24
BITMAP
0001100000
02BDCD7000
2D5352A900
A69B8D4C30
D3D004B770
E3C003B780
A5A96C4B40
3D35738B00
03CBAD9100
0002310000
ENDCHAR
STARTCHAR plusminus
ENCODING 177
SWIDTH 598 0
DWIDTH 19 0
BBX 17 20 1 1
BITMAP
000014041322300000
00003E0E3B67A00000
00003E0E3B67A00000
00003E0E3B67A00000
00003E0E3B67A00000
ACCCCE0E3B67ECCCC0
55557E0E3B67C55550
78889E0E3B67D88880
8999AE0E3B67D99990
34446E0E3B67B44440
BDDDDE0E3B67EDDDD0
00003E0E3B67A00000
00003E0E3B67A00000
00003E0E3B67A00000
00003E0E3B67A00000
000015051422400000
057777777777777720
08AAAAAAAAAAAAAA20
033333333333333310
0BEEEEEEEEEEEEEE30
ENDCHAR
STARTCHAR uni00B2
ENCODING 178
SWIDTH 435 0
DWIDTH 14 0
BBX 14 21 0 5
BITMAP
0147ABCCB94000
07C9754458EB10
00147899731C90
00FDB9889E64F0
0010000008B2F1
000000000B85D0
000000005E1D60
00000002E48C00
0000000C84E200
0000008C2E6000
000004E2BA0000
00002E57D10000
0000B93E300000
0008C1D7000000
004E2AB0000000
01E57D10000000
03505300000000
1FFFFFFFFFFF20
02222222222200
1BBBBBBBBBBB10
06666666666610
ENDCHAR
STARTCHAR uni00B3
ENCODING 179
SWIDTH 515 0
DWIDTH 17 0
BBX 16 22 0 4
BITMAP
047ABCDCA6100000
1EB865457BF70000
00367898613CB000
0AECA989CF71C800
0102445414D82F20
03EEDCCDE62F1B70
002000004F0C5890
000000000F1C5890
00005887761A2A70
00006999ACFB3920
000034443117E600
00009DDDEFB33D50
00000000028E54E1
0000AFFFEB35E1C5
0000122238E0D498
0000000003E0D498
00CECBBABE72F1B6
00024566522C92F2
03DB98778BF91B90
014689AA9722BB00
07A8544346AE8100
048ACDDEDB720000
ENDCHAR
STARTCHAR acute
ENCODING 180
SWIDTH 472 0
DWIDTH 15 0
BBX 13 9 1 22
BITMAP
00000000002000
000000005CE200
0000005CE71460
00005DD615CE70
006DD605CE7100
5DD605DD710000
3506DD60000000
00BD6000000000
00100000000000
ENDCHAR
STARTCHAR uni00B5
ENCODING 181
SWIDTH 802 0
DWIDTH 26 0
BBX 24 27 1 -4
BITMAP
452708163000000452708163
894D0F2B6000000894D0F2B6
894D0F2B6000000894D0F2B6
894D0F2B6000000894D0F2B6
894D0F2B6000000894D0F2B6
894D0F2B6000000894D0F2B6
894D0F2B6000000894D0F2B6
894D0F2B6000000894D0F2B6
894D0F2B6000000894D0F2B6
894D0F2B6000000894D0F2B6
894D0F2B6000000894D0F2B6
894D0F2B6000000894D0F2B6
894D0F2B6000000894D0F2B6
894D0F2B6000000894C0F1C5
894D0F2B6000001D57A2F0D3
894D0F2B610002BB1D57B1F1
894D0F2B6ECBDFA19C0D66B0
894D0F2B6145521AD29C0D50
894D0F2B6B988BEA17E28C00
894D0F2B66999721AE35E300
894D0F2B675446AEA16E5000
894D0F2B6ACDDB8319E40000
894D0F2B63100259EA200000
894D0F2B6EFFFFC830000000
894D0F2B6012100000000000
894D0F2B6000000000000000
341506142000000000000000
ENDCHAR
STARTCHAR paragraph
ENCODING 182
SWIDTH 676 0
DWIDTH 22 0
BBX 20 27 1 -4
BITMAP
00000015778888888881
00003BFCA999999999F3
0008E7113444444430E3
009D33BFEDDDDDDEE0E3
06E17E8200000003E0E3
1E46E33BEFFFFFA3E0E3
7B1E45F8322228A3E0E3
B67B1E53ABBB57A3E0E3
D3A75C1E866C67A3E0E3
E3A76B2F100B67A3E0E3
D4894E1BEDDE67A3E0E3
A84D1CA1344C67A3E0E3
5D1C82CEA99D67A3E0E3
0D82E814788D67A3E0E3
05F52CD8655C67A3E0E3
007F8049BCCE67A3E0E3
0004DE84211B67A3E0E3
000005ADFFFF67A3E0E3
00000000000B67A3E0E3
00000000000B67A3E0E3
00000000000B67A3E0E3
00000000000B67A3E0E3
00000000000B67A3E0E3
00000000000B67A3E0E3
00000000000B67A3E0E3
00000000000BDDA3FBF3
00000000000466416661
ENDCHAR
STARTCHAR periodcentered
ENCODING 183
SWIDTH 260 0
DWIDTH 8 0
BBX 6 6 1 12
BITMAP
AFFFFF
122222
7BBBBB
466665
588887
699999
ENDCHAR
STARTCHAR cedilla
ENCODING 184
SWIDTH 321 0
DWIDTH 10 0
BBX 8 11 1 -12
BITMAP
00003223
0001B76B
03CFC56B
1D81017B
5D09FFFB
893E3000
894D0000
7A2F8654
4E149BC8
0BC53221
017CEFFB
ENDCHAR
STARTCHAR uni00B9
ENCODING 185
SWIDTH 359 0
DWIDTH 12 0
BBX 11 19 0 7
BITMAP
1DDDDDDDDD10
044444444400
199999999910
1888CCAE8F10
0000894C1F10
0000894C1F10
0000894C1F10
0000894C1F10
0000894C1F10
0000894C1F10
0000894C1F10
0000894C1F10
0000894C1F10
0000894C1F10
0000894C1F10
0000894C1F10
0000894C1F10
0000894C1F10
000011010200
ENDCHAR
STARTCHAR ordmasculine
ENCODING 186
SWIDTH 835 0
DWIDTH 27 0
BBX 25 26 1 -2
BITMAP
00000000047898630000000000
00000019EEA989BED710000000
000007EA403454215CD5000000
0001AD318DEDCDFC715E800000
000BB17EA4012115CD42D80000
009C19D428DFFFC716E62E5000
03E28D15EA41025CD33E54E100
0B83E26E428CDB717E35E1B800
3E1B83E34EA546CD26D1B83E00
7A2F1C73E5000008D1B84E0D40
B67B2F1B80000000B84E0E3980
D4986C1F100000005D0F2B67A0
E3B67A3E000000002F0D4A76B0
E3A77B2E000000003E0E3A77A0
C5894D0E400000007B2F1C5890
A85D1E48C1000002E47B1F1B60
5D1E48C1BC30004E82E47B1F20
1E38C0C918FDCEE61C91E47C00
07C1D82CB2145404DA1BA1E400
01D63E719FC989DE71AD1AB000
003E43DB316898514DB17D1000
0005E618FB75458DE719E30000
00003EB316ACDC9514CC200000
0000018EB6310237CE70000000
000000026BEFFFEA5100000000
00000000000110000000000000
ENDCHAR
STARTCHAR guillemotright
ENCODING 187
SWIDTH 912 0
DWIDTH 29 0
BBX 27 17 1 3
BITMAP
5300000000000034000000000000
7EC610000000004ED72000000000
116CE930000000105BFB50000000
AB5039EC6100006D7128DD820000
17DE8216CE930005BFA404AFB500
7504AFC6139E9047128ED7227DD0
5DE8217DE931303BFA405BFA4040
004AFB5039EC500028ED7128DD70
000137DE831680000135BFA405A0
04AFB204AFC610039ED4028ED720
AD8217DC217FA05E9305BE405EF0
204AFB5039EC502128ED7128DD70
5DE8217DE930003BFA405BFA4000
7504AFC610000047128ED7100000
17DE820000000005BFA400000000
AB5000000000006D710000000000
1000000000000010000000000000
ENDCHAR
STARTCHAR onequarter
ENCODING 188
SWIDTH 1236 0
DWIDTH 40 0
BBX 39 29 0 -3
BITMAP
3DDDDDDDDC00000001D1A55A0000000000000000
144444444400000005D0E3A80000000000000000
29999999990000000994E0D40000000000000000
2888DBBD9E0000000C57A2F10000000000000000
0000A77A3E0000001F1B76B00000000000000000
0000A77A3E0000005D0E3A8000001B45A0B40000
0000A77A3E000000994E0D4000006D0D65E00000
0000A77A3E000000C57A2F100000D65D0C700000
0000A77A3E000001F1B66B000006E0C74E100000
0000A77A3E000005D0E3A800000D74E1B8000000
0000A77A3E00000994E0D400005E1B83F2000000
0000A77A3E00000D57A2F10000C83E1AA0000000
0000A77A3E00001F1B66B00004E1B92F30000000
0000A77A3E00005D0E3A80000B93F29B04C0E100
0000A77A3E0000994E0E40003F2AA1F404D0F200
0000A77A3E0000D57A2F0000AA2F38C004D0F200
0000A77A3E0001F1B66B00006236063002607100
0000A77A3E0005D0E3A80001FFFFFFFFFFFFFFC0
0000111102000994E0E400002222222222222210
0000000000000D57A2F00001CCCCCCCCCCCCCC90
0000000000001F1B66B000005555555555555540
0000000000005D0E3A7000018888888888888860
000000000000994E0E4000019999999999999970
000000000000D57A2F0000000000000003A0C100
000000000001F1B66B0000000000000004D0F200
000000000005D0E2A70000000000000004D0F200
00000000000994E0E40000000000000000000000
00000000000D57A2E00000000000000000000000
00000000001F1B66B00000000000000000000000
ENDCHAR
STARTCHAR onehalf
ENCODING 189
SWIDTH 1154 0
DWIDTH 37 0
BBX 36 29 0 -3
BITMAP
3DDDDDDDDC00000001D1A55A000000000000
144444444400000005D0E3A8000000000000
29999999990000000994E0D4000000000000
2888DBBD9E0000000C57A2F1000000000000
0000A77A3E0000001F1B76B0000000000000
0000A77A3E0000005D0E3A80000123320000
0000A77A3E000000994E0D404AEFEDDEEA20
0000A77A3E000000C57A2F104631000039E3
0000A77A3E000001F1B66B0018BDFFFD919C
0000A77A3E000005D0E3A8000A743223C93F
0000A77A3E00000994E0D400000000008A3F
0000A77A3E00000D57A2F10000000001E49A
0000A77A3E00001F1B66B0000000000AA3E2
0000A77A3E00005D0E3A80000000006D1C70
0000A77A3E0000994E0E4000000003E49B00
0000A77A3E0000D57A2F000000001C75E200
0000A77A3E0001F1B66B000000009B2E5000
0000A77A3E0005D0E3A800000005E2C90000
0000111102000994E0E40000002E48C00000
0000000000000D57A2F0000000C74E200000
0000000000001F1B66B0000009B2E6000000
0000000000005D0E3A7000005D2BA0000000
000000000000994E0E400001666666666660
000000000000D57A2F000001BBBBBBBBBBB1
000000000001F1B66B000000222222222220
000000000005D0E2A7000001FFFFFFFFFFF1
00000000000994E0E4000000000000000000
00000000000D57A2E0000000000000000000
00000000001F1B66B0000000000000000000
ENDCHAR
STARTCHAR threequarters
ENCODING 190
SWIDTH 1345 0
DWIDTH 43 0
BBX 43 29 0 -3
BITMAP
047ABCDCA6100000000000874B0C2000000000000000
2EB865457BE70000000000D4893E0000000000000000
00367898613DA000000002F1C67B0000000000000000
0BEBA98ACE71C700000006C1F2B70000000000000000
0102445414D73E1000000A84D0E30000000000000000
04EEDCCDE53F1C6000000D4893E00000690B45A00000
012000005E0D498000002F1C67B00000E56D0D600000
000000001F1D498000006C1F2B700006D0D65E100000
00006887761A2B600000A84D0E30000D65E0C8000000
00007999ACEA2A200000D4893E00005E0C74E1000000
000034443118E5000002F1C67A0000C74E1B90000000
0000ADDDEFB33E400006C1F2B70005E1B83F20000000
00000000029E45D0000A85D0E3000C83F1AA00000000
0000BFFFEA36E0D4000D4893E0004F1A92F30B578000
0000122238D0E3A7002F1C57A000B93F29B00C589000
0000000004E0E3A7006C1F2B7003F2AA1E400C589000
00DDCBBACE63F1C500A85D0E30035062360005244000
00024566513D82F100D4893E0009FFFFFFFFFFFFFF40
04DB98778BF81C8002F1C57A00012222222222222200
014689AA9722CB0006C1F2B70007CCCCCCCCCCCCCC30
08A7544346AE80000A85D0E300035555555555555520
058ACDDEDB7200000D4893E000058888888888888820
00000000000000002F1C57A000059999999999999930
00000000000000006C1F2B700000000000000A467000
0000000000000000A85D0E300000000000000C589000
0000000000000000D4893E000000000000000C589000
0000000000000002F1C57A0000000000000000000000
0000000000000006C1F2B60000000000000000000000
000000000000000A85D0E30000000000000000000000
ENDCHAR
STARTCHAR questiondown
ENCODING 191
SWIDTH 693 0
DWIDTH 22 0
BBX 22 27 0 0
BITMAP
0000048BDEFEC950000000
0017DDA6432359DE700000
03DC50379ABA8404CC2000
1E717DEA87679DE619D200
003DB4036776404CC19C00
001618EEBAABEE71AB1D60
00007B40233205CB1D66C0
0000008EFEDEE71D66C1F1
0000002200003D57A3F0E3
0000000000000A76B2F0D4
0002213041447E3894D0F2
000894D0F3CCA32E3893E0
000894D0F22248E72E38A0
000894D0F4FEDA32C71E40
000894D0F100138E70BA00
000894D0F4EEFE931BC100
000894D0F2321028EA1000
000894D0F3CCCDEA400000
000894D0F2444300000000
000894D0F1000000000000
0002213040000000000000
001AAAAAA7000000000000
0017777775000000000000
0016666664000000000000
002BBBBBB8000000000000
0002222221000000000000
002FFFFFFA000000000000
ENDCHAR
STARTCHAR Agrave
ENCODING 192
SWIDTH 936 0
DWIDTH 30 0
BBX 30 37 0 0
BITMAP
000000020000000000000000000000
0000005FA300000000000000000000
000018229EA3000000000000000000
000029FA318EB30000000000000000
00000029FA318EB400000000000000
0000000029EB318EB3000000000000
000000000018EB4171000000000000
00000000000018E700000000000000
000000000000001000000000000000
000000000000000000000000000000
000000000000000000000000000000
00000000006D2973C0B50000000000
0000000000CE84E0D57B0000000000
0000000003E5D0D57B1F2000000000
000000000990D47B1F2A8000000000
000000001E338A2F2A84E000000000
000000006D1D3F2B74E0D500000000
00000000C75D0B75D0D57B00000000
00000003F1B735D0E47B1F20000000
00000008A2F1B3E48A2F2A80000000
0000000E48A2F18A2F1B84E0000000
0000005D0E48A23F1B75D0D5000000
000000B75D0E485B75D0D47B000000
000002F1B75D0D55D0E48A2F200000
000008A2F1B84E00E48A2F1B800000
00000E48A2F2A8008A2F1B75D00000
00005D0E47B1F2002F1B75D0E40000
0000B75D0D57B0000C75D0E48A0000
0002F2B74E0D6BBBB6C1E48A2F2000
0008A2F2A84E266662E39A2F1B7000
000E57B1F2A8677776993F1B75D000
005D0D57B1F4AAAAAA4E1C65D0E400
00B84E0D57B23333332C66C0E48A00
02F2A84E0D6DEEEEEED6C1E38A2F10
07B1F2A84E1000000001E3992F1B70
0D57B1F2990000000000993E1C75D0
4E0D57C1E300000000003E1C66C1E4
ENDCHAR
STARTCHAR Aacute
ENCODING 193
SWIDTH 936 0
DWIDTH 30 0
BBX 30 37 0 0
BITMAP
000000000000000000000020000000
000000000000000000003AE4000000
0000000000000000003BE813700000
00000000000000004BE813AF910000
000000000000004BE813BE92000000
0000000000003CE714BE8100000000
0000000000001714BE810000000000
000000000000008E71000000000000
000000000000000100000000000000
000000000000000000000000000000
000000000000000000000000000000
00000000006D2973C0B50000000000
0000000000CE84E0D57B0000000000
0000000003E5D0D57B1F2000000000
000000000990D47B1F2A8000000000
000000001E338A2F2A84E000000000
000000006D1D3F2B74E0D500000000
00000000C75D0B75D0D57B00000000
00000003F1B735D0E47B1F20000000
00000008A2F1B3E48A2F2A80000000
0000000E48A2F18A2F1B84E0000000
0000005D0E48A23F1B75D0D5000000
000000B75D0E485B75D0D47B000000
000002F1B75D0D55D0E48A2F200000
000008A2F1B84E00E48A2F1B800000
00000E48A2F2A8008A2F1B75D00000
00005D0E47B1F2002F1B75D0E40000
0000B75D0D57B0000C75D0E48A0000
0002F2B74E0D6BBBB6C1E48A2F2000
0008A2F2A84E266662E39A2F1B7000
000E57B1F2A8677776993F1B75D000
005D0D57B1F4AAAAAA4E1C65D0E400
00B84E0D57B23333332C66C0E48A00
02F2A84E0D6DEEEEEED6C1E38A2F10
07B1F2A84E1000000001E3992F1B70
0D57B1F2990000000000993E1C75D0
4E0D57C1E300000000003E1C66C1E4
ENDCHAR
STARTCHAR Acircumflex
ENCODING 194
SWIDTH 936 0
DWIDTH 30 0
BBX 30 36 0 0
BITMAP
0000000000000B63A0000000000000
0000000000005FD0D4000000000000
000000000000B7E48A000000000000
000000000002F18A2F100000000000
000000000008A13F1B700000000000
00000000000D476B75D00000000000
00000000005D0D55D0E40000000000
0000000000973C00C3780000000000
000000000000000000000000000000
000000000000000000000000000000
00000000006D2973C0B50000000000
0000000000CE84E0D57B0000000000
0000000003E5D0D57B1F2000000000
000000000990D47B1F2A8000000000
000000001E338A2F2A84E000000000
000000006D1D3F2B74E0D500000000
00000000C75D0B75D0D57B00000000
00000003F1B735D0E47B1F20000000
00000008A2F1B3E48A2F2A80000000
0000000E48A2F18A2F1B84E0000000
0000005D0E48A23F1B75D0D5000000
000000B75D0E485B75D0D47B000000
000002F1B75D0D55D0E48A2F200000
000008A2F1B84E00E48A2F1B800000
00000E48A2F2A8008A2F1B75D00000
00005D0E47B1F2002F1B75D0E40000
0000B75D0D57B0000C75D0E48A0000
0002F2B74E0D6BBBB6C1E48A2F2000
0008A2F2A84E266662E39A2F1B7000
000E57B1F2A8677776993F1B75D000
005D0D57B1F4AAAAAA4E1C65D0E400
00B84E0D57B23333332C66C0E48A00
02F2A84E0D6DEEEEEED6C1E38A2F10
07B1F2A84E1000000001E3992F1B70
0D57B1F2990000000000993E1C75D0
4E0D57C1E300000000003E1C66C1E4
ENDCHAR
STARTCHAR Atilde
ENCODING 195
SWIDTH 936 0
DWIDTH 30 0
BBX 30 35 0 0
BITMAP
000000015899999999900826500000
0000003DC988888888701F2A700000
000000D8035666666666BC0D400000
000004E08FCBBBBBBBBB814E100000
000007A2F3022222222237E6000000
00000894D00EFFFFFFFFEB40000000
000000000000000000000000000000
000000000000000000000000000000
000000000000000000000000000000
00000000006D2973C0B50000000000
0000000000CE84E0D57B0000000000
0000000003E5D0D57B1F2000000000
000000000990D47B1F2A8000000000
000000001E338A2F2A84E000000000
000000006D1D3F2B74E0D500000000
00000000C75D0B75D0D57B00000000
00000003F1B735D0E47B1F20000000
00000008A2F1B3E48A2F2A80000000
0000000E48A2F18A2F1B84E0000000
0000005D0E48A23F1B75D0D5000000
000000B75D0E485B75D0D47B000000
000002F1B75D0D55D0E48A2F200000
000008A2F1B84E00E48A2F1B800000
00000E48A2F2A8008A2F1B75D00000
00005D0E47B1F2002F1B75D0E40000
0000B75D0D57B0000C75D0E48A0000
0002F2B74E0D6BBBB6C1E48A2F2000
0008A2F2A84E266662E39A2F1B7000
000E57B1F2A8677776993F1B75D000
005D0D57B1F4AAAAAA4E1C65D0E400
00B84E0D57B23333332C66C0E48A00
02F2A84E0D6DEEEEEED6C1E38A2F10
07B1F2A84E1000000001E3992F1B70
0D57B1F2990000000000993E1C75D0
4E0D57C1E300000000003E1C66C1E4
ENDCHAR
STARTCHAR Adieresis
ENCODING 196
SWIDTH 936 0
DWIDTH 30 0
BBX 30 33 0 0
BITMAP
000000011110200002011110000000
0000000A76B2F0001F1C5890000000
0000000A76B2F0001F1C5890000000
0000000A76B2F0001F1C5890000000
000000043241600006042330000000
000000000000000000000000000000
000000000000000000000000000000
00000000006D2973C0B50000000000
0000000000CE84E0D57B0000000000
0000000003E5D0D57B1F2000000000
000000000990D47B1F2A8000000000
000000001E338A2F2A84E000000000
000000006D1D3F2B74E0D500000000
00000000C75D0B75D0D57B00000000
00000003F1B735D0E47B1F20000000
00000008A2F1B3E48A2F2A80000000
0000000E48A2F18A2F1B84E0000000
0000005D0E48A23F1B75D0D5000000
000000B75D0E485B75D0D47B000000
000002F1B75D0D55D0E48A2F200000
000008A2F1B84E00E48A2F1B800000
00000E48A2F2A8008A2F1B75D00000
00005D0E47B1F2002F1B75D0E40000
0000B75D0D57B0000C75D0E48A0000
0002F2B74E0D6BBBB6C1E48A2F2000
0008A2F2A84E266662E39A2F1B7000
000E57B1F2A8677776993F1B75D000
005D0D57B1F4AAAAAA4E1C65D0E400
00B84E0D57B23333332C66C0E48A00
02F2A84E0D6DEEEEEED6C1E38A2F10
07B1F2A84E1000000001E3992F1B70
0D57B1F2990000000000993E1C75D0
4E0D57C1E300000000003E1C66C1E4
ENDCHAR
STARTCHAR Aring
ENCODING 197
SWIDTH 936 0
DWIDTH 30 0
BBX 30 36 0 0
BITMAP
000000000000001100000000000000
0000000000005DCDC4000000000000
000000000005C3553D500000000000
00000000000D3C99C3D00000000000
00000000003B780086C30000000000
00000000003B770086C30000000000
00000000001E3D77D3E00000000000
000000000007B3773B600000000000
0000000000007DBBD6000000000000
000000000000003300000000000000
00000000006D2973C0B50000000000
0000000000CE84E0D57B0000000000
0000000003E5D0D57B1F2000000000
000000000990D47B1F2A8000000000
000000001E338A2F2A84E000000000
000000006D1D3F2B74E0D500000000
00000000C75D0B75D0D57B00000000
00000003F1B735D0E47B1F20000000
00000008A2F1B3E48A2F2A80000000
0000000E48A2F18A2F1B84E0000000
0000005D0E48A23F1B75D0D5000000
000000B75D0E485B75D0D47B000000
000002F1B75D0D55D0E48A2F200000
000008A2F1B84E00E48A2F1B800000
00000E48A2F2A8008A2F1B75D00000
00005D0E47B1F2002F1B75D0E40000
0000B75D0D57B0000C75D0E48A0000
0002F2B74E0D6BBBB6C1E48A2F2000
0008A2F2A84E266662E39A2F1B7000
000E57B1F2A8677776993F1B75D000
005D0D57B1F4AAAAAA4E1C65D0E400
00B84E0D57B23333332C66C0E48A00
02F2A84E0D6DEEEEEED6C1E38A2F10
07B1F2A84E1000000001E3992F1B70
0D57B1F2990000000000993E1C75D0
4E0D57C1E300000000003E1C66C1E4
ENDCHAR
STARTCHAR AE
ENCODING 198
SWIDTH 1198 0
DWIDTH 38 0
BBX 38 26 0 0
BITMAP
00000000005D2873C0ADDDDDDDDDDDDDDDDDD2
0000000000CE84E0D56D444444444444444441
0000000003F5E0D57B1EA99999999999999991
0000000009A0D57B1F29D88888888888888881
000000000E437B2F2A83E66666666666666661
000000005D0D3F2A84E0DDBBBBBBBBBBBBBBB2
00000000B75D0B84D0D57B0000000000000000
00000002F1B735D0D57B1F2000000000000000
00000008A2F1B4E48B1F2A8000000000000000
0000000E48A2F28A2F2A84E000000000000000
0000005D0E48A23F1B74D0DCBBBBBBBBBBB200
000000B75D0D576B75D0D58D66666666666100
000002F1B74D0D55D0E47B2F88888888888200
000008A2F2A84E00E48A2F2BD9999999999200
00000E48A2F2A8008A2F1B75D4444444444100
00005D0D57B1F2002F1B75D1EEDDDDDDDDD300
0000B84D0D57B0000B75D0E498000000000000
0002F2A84E0D6BBBB6D0E48A3E000000000000
0008B2F2A84E266662E48A2F1C500000000000
000D57B1F2A86777769A2F1B76B00000000000
004E0D57B1F4AAAAAA4E1C75D1FA9999999991
00A84E0D56C23333332C66D0E4AD8888888881
02F2A84E1C6CEEEEEED6C1E48A4E6666666661
07B1F2A93E1000000001E39A2F1DDBBBBBBBB2
0D57B1F3990000000000993E1B77B222222220
4E0D56C1E300000000003E1C65D2FFFFFFFFF2
ENDCHAR
STARTCHAR Ccedilla
ENCODING 199
SWIDTH 852 0
DWIDTH 27 0
BBX 27 38 0 -11
BITMAP
000000000048CEFFEB8300000000
000000005DE9632236AEC5000000
0000003CD6037ABB97306DB20000
000005E816DEA8668AEC519E4000
00005E52CD6136775216EA16E400
0003E54E916DEBAACFC51BD26E20
000D73E61BD61133117E919D1730
006D1D81DA15CFEEFB42BC1A6000
01E57D0BA1BD610027E91B800000
05D0E57D1BB10000002C91100000
0A85E0E46D100000000240000000
0D4994D0D5000000000000000000
1F2B67A3E0000000000000000000
2F0D5985C0000000000000000000
2F0D4985C0000000000000000000
1F1C6893E0000000000000000000
0E4985D0E4000000000000000000
0A75D1E47C000000000130000000
06C1E48C1CA00000001BA0000000
01E48C1C81CC400005DB1A900000
007C1D62E817EECCED61AD195000
001E64E42CC40355305DB27E2520
0004E35E618ED988AEE619E34E30
00007E34DC4158997404DC24E500
000007E618ED864469DE707E5000
0000004EC4159CDDB9514CD30000
000000017EC74100248DE7000000
00000000016AEFFFFDA510000000
0000000000002C79A00000000000
00000000004DFC57A00000000000
0000000001E70018A00000000000
0000000006C09FFFA00000000000
000000000984E300000000000000
000000000985C000000000000000
000000000882F855300000000000
0000000005D05ABC700000000000
0000000000CB5322100000000000
000000000018CEFFA00000000000
ENDCHAR
STARTCHAR Egrave
ENCODING 200
SWIDTH 706 0
DWIDTH 23 0
BBX 21 37 1 0
BITMAP
0020000000000000000000
01DD600000000000000000
5506DD6000000000000000
6DD605DD60000000000000
006DD605CD710000000000
00006DD605CE7000000000
0000005DD6144000000000
000000005CD10000000000
0000000000100000000000
0000000000000000000000
0000000000000000000000
784B1D1ADDDDDDDDDDDD40
894C1F1C74444444444410
894C1F1CB9999999999930
894C1F1CA8888888888820
894C1F1C96666666666620
894C1F1CDBBBBBBBBBBB30
894C1F1C50000000000000
894C1F1C50000000000000
894C1F1C50000000000000
894C1F1C50000000000000
894C1F1CDBBBBB50000000
894C1F1C96666630000000
894C1F1CA8888840000000
894C1F1CB9999940000000
894C1F1C74444420000000
894C1F1CEDDDDD60000000
894C1F1C50000000000000
894C1F1C50000000000000
894C1F1C50000000000000
894C1F1C50000000000000
894C1F1CB9999999999930
894C1F1CA8888888888820
894C1F1C96666666666620
894C1F1CDBBBBBBBBBBB30
894C1F1C62222222222210
894C1F1CFFFFFFFFFFFF40
ENDCHAR
STARTCHAR Eacute
ENCODING 201
SWIDTH 706 0
DWIDTH 23 0
BBX 21 37 1 0
BITMAP
0000000000000000011000
00000000000000018E9000
000000000000018EB41730
0000000000018EB418EC40
00000000029EB318EB4000
000000019FA318EB400000
000000006328EB30000000
0000000003EA3000000000
0000000000100000000000
0000000000000000000000
0000000000000000000000
784B1D1ADDDDDDDDDDDD40
894C1F1C74444444444410
894C1F1CB9999999999930
894C1F1CA8888888888820
894C1F1C96666666666620
894C1F1CDBBBBBBBBBBB30
894C1F1C50000000000000
894C1F1C50000000000000
894C1F1C50000000000000
894C1F1C50000000000000
894C1F1CDBBBBB50000000
894C1F1C96666630000000
894C1F1CA8888840000000
894C1F1CB9999940000000
894C1F1C74444420000000
894C1F1CEDDDDD60000000
894C1F1C50000000000000
894C1F1C50000000000000
894C1F1C50000000000000
894C1F1C50000000000000
894C1F1CB9999999999930
894C1F1CA8888888888820
894C1F1C96666666666620
894C1F1CDBBBBBBBBBBB30
894C1F1C62222222222210
894C1F1CFFFFFFFFFFFF40
ENDCHAR
STARTCHAR Ecircumflex
ENCODING 202
SWIDTH 706 0
DWIDTH 23 0
BBX 21 36 1 0
BITMAP
000000007A0A4000000000
00000000EF48A000000000
00000005D8A2F100000000
0000000B72F1B700000000
0000002F12B75D00000000
0000008A2C5D0E40000000
000000D48B0E48A0000000
000004C0B40882D1000000
0000000000000000000000
0000000000000000000000
784B1D1ADDDDDDDDDDDD40
894C1F1C74444444444410
894C1F1CB9999999999930
894C1F1CA8888888888820
894C1F1C96666666666620
894C1F1CDBBBBBBBBBBB30
894C1F1C50000000000000
894C1F1C50000000000000
894C1F1C50000000000000
894C1F1C50000000000000
894C1F1CDBBBBB50000000
894C1F1C96666630000000
894C1F1CA8888840000000
894C1F1CB9999940000000
894C1F1C74444420000000
894C1F1CEDDDDD60000000
894C1F1C50000000000000
894C1F1C50000000000000
894C1F1C50000000000000
894C1F1C50000000000000
894C1F1CB9999999999930
894C1F1CA8888888888820
894C1F1C96666666666620
894C1F1CDBBBBBBBBBBB30
894C1F1C62222222222210
894C1F1CFFFFFFFFFFFF40
ENDCHAR
STARTCHAR Edieresis
ENCODING 203
SWIDTH 706 0
DWIDTH 23 0
BBX 21 33 1 0
BITMAP
0002020110001111020000
004D0F2B6000A76B2F0000
004D0F2B6000A76B2F0000
004D0F2B6000A76B2F0000
0015061420004324150000
0000000000000000000000
0000000000000000000000
784B1D1ADDDDDDDDDDDD40
894C1F1C74444444444410
894C1F1CB9999999999930
894C1F1CA8888888888820
894C1F1C96666666666620
894C1F1CDBBBBBBBBBBB30
894C1F1C50000000000000
894C1F1C50000000000000
894C1F1C50000000000000
894C1F1C50000000000000
894C1F1CDBBBBB50000000
894C1F1C96666630000000
894C1F1CA8888840000000
894C1F1CB9999940000000
894C1F1C74444420000000
894C1F1CEDDDDD60000000
894C1F1C50000000000000
894C1F1C50000000000000
894C1F1C50000000000000
894C1F1C50000000000000
894C1F1CB9999999999930
894C1F1CA8888888888820
894C1F1C96666666666620
894C1F1CDBBBBBBBBBBB30
894C1F1C62222222222210
894C1F1CFFFFFFFFFFFF40
ENDCHAR
STARTCHAR Igrave
ENCODING 204
SWIDTH 338 0
DWIDTH 11 0
BBX 15 37 -5 0
BITMAP
0020000000000000
01CD600000000000
5506DD6000000000
6DD605DD60000000
006DD605CE710000
00006DD615CE7000
0000005CE7144000
000000005CD10000
0000000000100000
0000000000000000
0000000000000000
000000784B1D1A40
000000894C1F1C50
000000894C1F1C50
000000894C1F1C50
000000894C1F1C50
000000894C1F1C50
000000894C1F1C50
000000894C1F1C50
000000894C1F1C50
000000894C1F1C50
000000894C1F1C50
000000894C1F1C50
000000894C1F1C50
000000894C1F1C50
000000894C1F1C50
000000894C1F1C50
000000894C1F1C50
000000894C1F1C50
000000894C1F1C50
000000894C1F1C50
000000894C1F1C50
000000894C1F1C50
000000894C1F1C50
000000894C1F1C50
000000894C1F1C50
000000894C1F1C50
ENDCHAR
STARTCHAR Iacute
ENCODING 205
SWIDTH 338 0
DWIDTH 11 0
BBX 15 37 1 0
BITMAP
0000000000011000
00000000017EA000
000000018EB41730
0000018EB417EC40
00028EB318EC4000
019FA318EB400000
006318EB30000000
0003EA3000000000
0000100000000000
0000000000000000
0000000000000000
784B1D1A40000000
894C1F1C50000000
894C1F1C50000000
894C1F1C50000000
894C1F1C50000000
894C1F1C50000000
894C1F1C50000000
894C1F1C50000000
894C1F1C50000000
894C1F1C50000000
894C1F1C50000000
894C1F1C50000000
894C1F1C50000000
894C1F1C50000000
894C1F1C50000000
894C1F1C50000000
894C1F1C50000000
894C1F1C50000000
894C1F1C50000000
894C1F1C50000000
894C1F1C50000000
894C1F1C50000000
894C1F1C50000000
894C1F1C50000000
894C1F1C50000000
894C1F1C50000000
ENDCHAR
STARTCHAR Icircumflex
ENCODING 206
SWIDTH 338 0
DWIDTH 11 0
BBX 11 36 0 0
BITMAP
0006A0A40000
000EF48A0000
005D8A2F2000
00B72F1B7000
02F22B75D000
07A2C5D0E400
0D57B0E48A00
3C0B50882D10
000000000000
000000000000
0784B1D1A400
0894C1F1C500
0894C1F1C500
0894C1F1C500
0894C1F1C500
0894C1F1C500
0894C1F1C500
0894C1F1C500
0894C1F1C500
0894C1F1C500
0894C1F1C500
0894C1F1C500
0894C1F1C500
0894C1F1C500
0894C1F1C500
0894C1F1C500
0894C1F1C500
0894C1F1C500
0894C1F1C500
0894C1F1C500
0894C1F1C500
0894C1F1C500
0894C1F1C500
0894C1F1C500
0894C1F1C500
0894C1F1C500
ENDCHAR
STARTCHAR Idieresis
ENCODING 207
SWIDTH 338 0
DWIDTH 11 0
BBX 16 33 -3 0
BITMAP
0202011000111102
4D0F2B6000A76B2F
4D0F2B6000A76B2F
4D0F2B6000A76B2F
1506142000432416
0000000000000000
0000000000000000
0000784B1D1A4000
0000894C1F1C5000
0000894C1F1C5000
0000894C1F1C5000
0000894C1F1C5000
0000894C1F1C5000
0000894C1F1C5000
0000894C1F1C5000
0000894C1F1C5000
0000894C1F1C5000
0000894C1F1C5000
0000894C1F1C5000
0000894C1F1C5000
0000894C1F1C5000
0000894C1F1C5000
0000894C1F1C5000
0000894C1F1C5000
0000894C1F1C5000
0000894C1F1C5000
0000894C1F1C5000
0000894C1F1C5000
0000894C1F1C5000
0000894C1F1C5000
0000894C1F1C5000
0000894C1F1C5000
0000894C1F1C5000
ENDCHAR
STARTCHAR Eth
ENCODING 208
SWIDTH 905 0
DWIDTH 29 0
BBX 28 26 0 0
BITMAP
00DDDDDDDDDDDDDDDCA610000000
00F5444444444444468DE7000000
00F279999999999998514DC20000
00F2BA888888888889DE719E3000
00F2B636666666665414DC18D100
00F2B67EBBBBBBBBCEE71BC1BA00
00F2B67A02222222205D91C92E40
00F2B67A4FFFFFFFFE62D83F38B0
00F2B67A4D00000004E73F29A2F2
00A1745629000000003F2A92F1C7
2BBBBBBBBBBB7000000B84E0D58A
16666666666640000006C1F2A76C
18888888888850000004E0E3985D
19999999999960000004E0E3994D
14444444444420000006C0F2A76C
2DDDDDDDDDDD8000000A93E0D58A
0081634528000000002F3992F1C6
00F2B67A4D00000002D82E38B1F2
00F2B67A4FDDDDDDDF81C92E47C0
00F2B67A14444444312CB1BB1E40
00F2B67D99999999ACF91AD1AB00
00F2B648888888887622BD26E200
00F2B9666666666667BF917E4000
00F28BBBBBBBBBBBBA722BE30000
00F4222222222222246BF9100000
00FFFFFFFFFFFFFFFEC820000000
ENDCHAR
STARTCHAR Ntilde
ENCODING 209
SWIDTH 877 0
DWIDTH 28 0
BBX 26 35 1 0
BITMAP
00000158999999999008355000
00002DC988888888701E3A7000
0000C8025666666666BC0C5000
0003E07FCBBBBBBBBB814E1000
0006A1F3022222222237E60000
000894D00EFFFFFFFFEB500000
00000000000000000000000000
00000000000000000000000000
00000000000000000000000000
7D1891C54C10000004B1D1A478
8FA2E46D1B80000004C1F1C589
8BE47D0C83E3000004C1F1C589
897D1C73F38C000004C1F1C589
890D73E29B1D600004C1F1C589
8934E29B1E65E10004C1F1C589
89479B1E55E1B90004C1F1C589
894C1E56D1B92E3004C1F1C589
894C06D1B82E37C004C1F1C589
894C15C82E38C1D704C1F1C589
894C1D3F38C1D74E24C1F1C589
894C1F18B1D64E2AA4C1F1C589
894C1F12D65E1AA1E491F1C589
894C1F185E1A91E46D21F1C589
894C1F1C4B92E46D1C81F1C589
894C1F1C52E37D0C83E3E1C589
894C1F1C507C0C73F29B51C589
894C1F1C500D73E29B1E50C589
894C1F1C5004E29B1E55E1C589
894C1F1C5000AA1E55E1B98589
894C1F1C50001E46D1B92E4389
894C1F1C500006D1B82F38C089
894C1F1C500000C83E38C1D689
894C1F1C5000003E28C1D64EA9
894C1F1C50000008B1D64E1AF9
894C1F1C50000001D55E1AA2E9
ENDCHAR
STARTCHAR Ograve
ENCODING 210
SWIDTH 933 0
DWIDTH 30 0
BBX 29 39 0 -2
BITMAP
000000020000000000000000000000
0000005FA200000000000000000000
000018229FA3000000000000000000
00002AFA229EA30000000000000000
00000029FA318EB300000000000000
0000000029FA318EB3000000000000
000000000029EB3171000000000000
00000000000018E700000000000000
000000000000001000000000000000
000000000000000000000000000000
000000000048CEFFEB830000000000
000000005DE9632246AEC400000000
0000003CD6037ABB97317EB2000000
000005E816DEA8668BFC519E300000
00005E52CD6136775217EB16E30000
0003E54E916DEBAACFC51AD26E2000
000D73E61BD61133116E918D19B000
006D1D81DA15CFEEFB42CC1AB1E400
01E57D0BA1BD610017E91C91E57C00
05D0E57D1BB10000002C92E57C1E30
0A85E0E46D1000000002E46C1F3A80
0D4994D0D500000000007B1F2B76B0
1F2B67A3E000000000001F1C5894E0
2F0D5985C000000000000E3A76B2F0
2F0D4985C000000000000E3A76B2F0
1F1C6893E000000000001F1B68A3E0
0E4985D0E400000000006C1E3A76C0
0A75D1E47C0000000001D56D1E3980
06C1E48C1CA00000001BB1D66D0E40
01E48C1C81CC400005DB1AB1D66D00
007C1D62E817EECCED61AD19C1D500
001E64E42CC40355304DB16E28C000
0004E35E618ED988ADE708E45E3000
00007E34DC4158997405DD35E50000
000007E618ED864569EE717E500000
0000004EC4159CDDB9505DD3000000
000000017EC74100248DE600000000
00000000016AEFFFFDA51000000000
000000000000012200000000000000
ENDCHAR
STARTCHAR Oacute
ENCODING 211
SWIDTH 933 0
DWIDTH 30 0
BBX 29 39 0 -2
BITMAP
000000000000000000000020000000
000000000000000000003BE4000000
0000000000000000004BE813700000
00000000000000004BE813BE910000
000000000000004CE714BE81000000
0000000000004CE714BE8100000000
0000000000002614CE710000000000
000000000000009E71000000000000
000000000000001100000000000000
000000000000000000000000000000
000000000048CEFFEB830000000000
000000005DE9632246AEC400000000
0000003CD6037ABB97317EB2000000
000005E816DEA8668BFC519E300000
00005E52CD6136775217EB16E30000
0003E54E916DEBAACFC51AD26E2000
000D73E61BD61133116E918D19B000
006D1D81DA15CFEEFB42CC1AB1E400
01E57D0BA1BD610017E91C91E57C00
05D0E57D1BB10000002C92E57C1E30
0A85E0E46D1000000002E46C1F3A80
0D4994D0D500000000007B1F2B76B0
1F2B67A3E000000000001F1C5894E0
2F0D5985C000000000000E3A76B2F0
2F0D4985C000000000000E3A76B2F0
1F1C6893E000000000001F1B68A3E0
0E4985D0E400000000006C1E3A76C0
0A75D1E47C0000000001D56D1E3980
06C1E48C1CA00000001BB1D66D0E40
01E48C1C81CC400005DB1AB1D66D00
007C1D62E817EECCED61AD19C1D500
001E64E42CC40355304DB16E28C000
0004E35E618ED988ADE708E45E3000
00007E34DC4158997405DD35E50000
000007E618ED864569EE717E500000
0000004EC4159CDDB9505DD3000000
000000017EC74100248DE600000000
00000000016AEFFFFDA51000000000
000000000000012200000000000000
ENDCHAR
STARTCHAR Ocircumflex
ENCODING 212
SWIDTH 933 0
DWIDTH 30 0
BBX 29 38 0 -2
BITMAP
0000000000001B63A0000000000000
0000000000006FD0E4000000000000
000000000000C7E38A000000000000
000000000002E1993E100000000000
000000000008A23E1C600000000000
00000000000E485C66C00000000000
00000000005D0E46C1E30000000000
0000000000964C01D2880000000000
000000000000000000000000000000
000000000048CEFFEB830000000000
000000005DE9632246AEC400000000
0000003CD6037ABB97317EB2000000
000005E816DEA8668BFC519E300000
00005E52CD6136775217EB16E30000
0003E54E916DEBAACFC51AD26E2000
000D73E61BD61133116E918D19B000
006D1D81DA15CFEEFB42CC1AB1E400
01E57D0BA1BD610017E91C91E57C00
05D0E57D1BB10000002C92E57C1E30
0A85E0E46D1000000002E46C1F3A80
0D4994D0D500000000007B1F2B76B0
1F2B67A3E000000000001F1C5894E0
2F0D5985C000000000000E3A76B2F0
2F0D4985C000000000000E3A76B2F0
1F1C6893E000000000001F1B68A3E0
0E4985D0E400000000006C1E3A76C0
0A75D1E47C0000000001D56D1E3980
06C1E48C1CA00000001BB1D66D0E40
01E48C1C81CC400005DB1AB1D66D00
007C1D62E817EECCED61AD19C1D500
001E64E42CC40355304DB16E28C000
0004E35E618ED988ADE708E45E3000
00007E34DC4158997405DD35E50000
000007E618ED864569EE717E500000
0000004EC4159CDDB9505DD3000000
000000017EC74100248DE600000000
00000000016AEFFFFDA51000000000
000000000000012200000000000000
ENDCHAR
STARTCHAR Otilde
ENCODING 213
SWIDTH 933 0
DWIDTH 30 0
BBX 29 37 0 -2
BITMAP
000000015899999999800926400000
0000003EC988888888701F2B600000
000000D7035666666666BB0D400000
000004D08ECBBBBBBBBB815E100000
000007A2F2022222222237E5000000
00000985C00FFFFFFFFFEB40000000
000000000000000000000000000000
000000000000000000000000000000
000000000048CEFFEB830000000000
000000005DE9632246AEC400000000
0000003CD6037ABB97317EB2000000
000005E816DEA8668BFC519E300000
00005E52CD6136775217EB16E30000
0003E54E916DEBAACFC51AD26E2000
000D73E61BD61133116E918D19B000
006D1D81DA15CFEEFB42CC1AB1E400
01E57D0BA1BD610017E91C91E57C00
05D0E57D1BB10000002C92E57C1E30
0A85E0E46D1000000002E46C1F3A80
0D4994D0D500000000007B1F2B76B0
1F2B67A3E000000000001F1C5894E0
2F0D5985C000000000000E3A76B2F0
2F0D4985C000000000000E3A76B2F0
1F1C6893E000000000001F1B68A3E0
0E4985D0E400000000006C1E3A76C0
0A75D1E47C0000000001D56D1E3980
06C1E48C1CA00000001BB1D66D0E40
01E48C1C81CC400005DB1AB1D66D00
007C1D62E817EECCED61AD19C1D500
001E64E42CC40355304DB16E28C000
0004E35E618ED988ADE708E45E3000
00007E34DC4158997405DD35E50000
000007E618ED864569EE717E500000
0000004EC4159CDDB9505DD3000000
000000017EC74100248DE600000000
00000000016AEFFFFDA51000000000
000000000000012200000000000000
ENDCHAR
STARTCHAR Odieresis
ENCODING 214
SWIDTH 933 0
DWIDTH 30 0
BBX 29 35 0 -2
BITMAP
000000011110200002021110000000
0000000A77A3E0001F0D4980000000
0000000A77A3E0001F0D4980000000
0000000A77A3E0001F0D4980000000
000000042241500016052330000000
000000000000000000000000000000
000000000048CEFFEB830000000000
000000005DE9632246AEC400000000
0000003CD6037ABB97317EB2000000
000005E816DEA8668BFC519E300000
00005E52CD6136775217EB16E30000
0003E54E916DEBAACFC51AD26E2000
000D73E61BD61133116E918D19B000
006D1D81DA15CFEEFB42CC1AB1E400
01E57D0BA1BD610017E91C91E57C00
05D0E57D1BB10000002C92E57C1E30
0A85E0E46D1000000002E46C1F3A80
0D4994D0D500000000007B1F2B76B0
1F2B67A3E000000000001F1C5894E0
2F0D5985C000000000000E3A76B2F0
2F0D4985C000000000000E3A76B2F0
1F1C6893E000000000001F1B68A3E0
0E4985D0E400000000006C1E3A76C0
0A75D1E47C0000000001D56D1E3980
06C1E48C1CA00000001BB1D66D0E40
01E48C1C81CC400005DB1AB1D66D00
007C1D62E817EECCED61AD19C1D500
001E64E42CC40355304DB16E28C000
0004E35E618ED988ADE708E45E3000
00007E34DC4158997405DD35E50000
000007E618ED864569EE717E500000
0000004EC4159CDDB9505DD3000000
000000017EC74100248DE600000000
00000000016AEFFFFDA51000000000
000000000000012200000000000000
ENDCHAR
STARTCHAR multiply
ENCODING 215
SWIDTH 790 0
DWIDTH 25 0
BBX 25 23 0 0
BITMAP
27137055074000281370550640
0B91E63F37E100AB1D72F45E10
02F45E19C0C905E28C0B91E600
007D1AA1D73F2E73F36E19B000
000C82E54E249C0C91E54F2000
0003F36D1AA4F37D1AA1D70000
00009C0C915D82E45E28C00000
00001D73F38D0BA1D63F300000
000004E274F46E19C0C9000000
000000AB0C91E64F37D1000000
0000001B6E1AB0D82E40000000
00000002E54E28D0BA00000000
0000000AA1D72F46E510000000
0000005E28C0C91E6A90000000
000001E63F36D1AB32F4000000
000009C0C82E54E3E27D000000
00004F27D1AA1D71AB0D800000
0000D72F45E19C791E63F30000
0008D0BA1E63F32F45E19C0000
003F36E19B0C8A27D1BA1D7000
00C91E54F27D1AB0C82E55E200
07D1AB0D72F401E63F37D1AB00
2E55E28C0BA0005E19C0C91E50
ENDCHAR
STARTCHAR Oslash
ENCODING 216
SWIDTH 938 0
DWIDTH 30 0
BBX 29 36 0 -5
BITMAP
000000000000000000002200000000
00000000000000000000A911000000
00000000000000000003F2A9110000
0000000000000000000A92F2990000
000000000048CEFFDB841992F20000
000000005DE9632246AEC41A900000
0000003CD6037ABB97317EB5200000
000005E816DEA8678BFC519D300000
00005E52CD6136775217EB17E30000
0003E44E816DEBAACFC51AD27D1000
000D73E61BD51133117E918D19B000
007C1D81DA15CFEEFB42CC1AB1E400
01E47C0BA1BD610017E91C91E57C00
05D1E47C1BB10000002C92E57C1E30
0A75D0E46D1000000002E47C1F3A70
0D4994D0D400000000007B1F2B76B0
1F1C68A3E000000000002F1C5894D0
2F0D4985C000000000000E3A77A3E0
2F0D4985C000000000000E3A77B2E0
1F1C6893E000000000001F1C5894D0
0E3985D0E400000000006C1F2B76B0
0B76D1E37C0000000001D56D1F3980
06C1E38B1CA00000001BA1D66D0E40
01E38B1C82CC400005DB1AB1D66D00
008B1E62E817EECCED61AD19C1D500
001E64E42CC30355305DB16E28C000
0004E35E618ED988AEE708E35E2000
00007E34DC4158997405DC25E40000
000007E618ED864569EE717E500000
0000024EC3159CDDB9505DD3000000
00000B718EC74100248DE600000000
00004E1B626AEFFFFDA50000000000
0000B83E1B80012200000000000000
0002D1B83E10000000000000000000
000002D1B800000000000000000000
00000002D100000000000000000000
ENDCHAR
STARTCHAR Ugrave
ENCODING 217
SWIDTH 905 0
DWIDTH 29 0
BBX 27 39 1 -2
BITMAP
0000020000000000000000000000
00000CD600000000000000000000
0005605DD6000000000000000000
0006DD605CD71000000000000000
000006DD605CE710000000000000
00000005DD614CE7000000000000
0000000005CE7145000000000000
000000000005CD10000000000000
0000000000000100000000000000
0000000000000000000000000000
0000000000000000000000000000
96693C0D20000000004A1D1B4870
B67A3E0E30000000005C1F1C4980
B67A3E0E30000000005C1F1C4980
B67A3E0E30000000005C1F1C4980
B67A3E0E30000000005C1F1C4980
B67A3E0E30000000005C1F1C4980
B67A3E0E30000000005C1F1C4980
B67A3E0E30000000005C1F1C4980
B67A3E0E30000000005C1F1C4980
B67A3E0E30000000005C1F1C4980
B67A3E0E30000000005C1F1C4980
B67A3E0E30000000005C1F1C4980
B67A3E0E30000000005C1F1C4980
B67A3E0E30000000005C1F1C4980
A67A3E0E30000000005C1F1D4980
A85B2F1D40000000007B2E0D3A70
894D0E49A000000000C66C1F1C60
5D0E39A2E500000008D1C65C1F30
1F3992E44E810002AE27D1C75D00
0AA2E45E42BFDCDFA16E46D1C700
02F37E26E82145412AE43E46E100
008D19D33BFB989CF925E62E5000
000BB17F81268985129E52D90000
0001BD23BEA75457BF924E900000
000009E8127ACDCA622AE7000000
0000004CEA6310237BFA20000000
0000000038CFFFFEC72000000000
0000000000001210000000000000
ENDCHAR
STARTCHAR Uacute
ENCODING 218
SWIDTH 905 0
DWIDTH 29 0
BBX 27 39 1 -2
BITMAP
0000000000000000000011000000
00000000000000000017EA000000
000000000000000018EC41730000
0000000000000018EB417EC40000
00000000000018EB417EC4000000
000000000019EB318EB400000000
000000000006318EB40000000000
0000000000002EB3000000000000
0000000000000100000000000000
0000000000000000000000000000
0000000000000000000000000000
96693C0D20000000004A1D1B4870
B67A3E0E30000000005C1F1C4980
B67A3E0E30000000005C1F1C4980
B67A3E0E30000000005C1F1C4980
B67A3E0E30000000005C1F1C4980
B67A3E0E30000000005C1F1C4980
B67A3E0E30000000005C1F1C4980
B67A3E0E30000000005C1F1C4980
B67A3E0E30000000005C1F1C4980
B67A3E0E30000000005C1F1C4980
B67A3E0E30000000005C1F1C4980
B67A3E0E30000000005C1F1C4980
B67A3E0E30000000005C1F1C4980
B67A3E0E30000000005C1F1C4980
A67A3E0E30000000005C1F1D4980
A85B2F1D40000000007B2E0D3A70
894D0E49A000000000C66C1F1C60
5D0E39A2E500000008D1C65C1F30
1F3992E44E810002AE27D1C75D00
0AA2E45E42BFDCDFA16E46D1C700
02F37E26E82145412AE43E46E100
008D19D33BFB989CF925E62E5000
000BB17F81268985129E52D90000
0001BD23BEA75457BF924E900000
000009E8127ACDCA622AE7000000
0000004CEA6310237BFA20000000
0000000038CFFFFEC72000000000
0000000000001210000000000000
ENDCHAR
STARTCHAR Ucircumflex
ENCODING 219
SWIDTH 905 0
DWIDTH 29 0
BBX 27 38 1 -2
BITMAP
000000000006B094000000000000
00000000000DF57B000000000000
00000000004D8B1F200000000000
0000000000A82F2A800000000000
0000000001F22B84D00000000000
0000000007B1C5D0D50000000000
000000000D57B0E47B0000000000
000000003C0B50792D1000000000
0000000000000000000000000000
0000000000000000000000000000
96693C0D20000000004A1D1B4870
B67A3E0E30000000005C1F1C4980
B67A3E0E30000000005C1F1C4980
B67A3E0E30000000005C1F1C4980
B67A3E0E30000000005C1F1C4980
B67A3E0E30000000005C1F1C4980
B67A3E0E30000000005C1F1C4980
B67A3E0E30000000005C1F1C4980
B67A3E0E30000000005C1F1C4980
B67A3E0E30000000005C1F1C4980
B67A3E0E30000000005C1F1C4980
B67A3E0E30000000005C1F1C4980
B67A3E0E30000000005C1F1C4980
B67A3E0E30000000005C1F1C4980
A67A3E0E30000000005C1F1D4980
A85B2F1D40000000007B2E0D3A70
894D0E49A000000000C66C1F1C60
5D0E39A2E500000008D1C65C1F30
1F3992E44E810002AE27D1C75D00
0AA2E45E42BFDCDFA16E46D1C700
02F37E26E82145412AE43E46E100
008D19D33BFB989CF925E62E5000
000BB17F81268985129E52D90000
0001BD23BEA75457BF924E900000
000009E8127ACDCA622AE7000000
0000004CEA6310237BFA20000000
0000000038CFFFFEC72000000000
0000000000001210000000000000
ENDCHAR
STARTCHAR Udieresis
ENCODING 220
SWIDTH 905 0
DWIDTH 29 0
BBX 27 35 1 -2
BITMAP
0000002020110001111020000000
000003E0E3B6000985C2F0000000
000003E0E3B6000985C2F0000000
000003E0E3B6000985C2F0000000
0000015051420003324160000000
0000000000000000000000000000
0000000000000000000000000000
96693C0D20000000004A1D1B4870
B67A3E0E30000000005C1F1C4980
B67A3E0E30000000005C1F1C4980
B67A3E0E30000000005C1F1C4980
B67A3E0E30000000005C1F1C4980
B67A3E0E30000000005C1F1C4980
B67A3E0E30000000005C1F1C4980
B67A3E0E30000000005C1F1C4980
B67A3E0E30000000005C1F1C4980
B67A3E0E30000000005C1F1C4980
B67A3E0E30000000005C1F1C4980
B67A3E0E30000000005C1F1C4980
B67A3E0E30000000005C1F1C4980
B67A3E0E30000000005C1F1C4980
A67A3E0E30000000005C1F1D4980
A85B2F1D40000000007B2E0D3A70
894D0E49A000000000C66C1F1C60
5D0E39A2E500000008D1C65C1F30
1F3992E44E810002AE27D1C75D00
0AA2E45E42BFDCDFA16E46D1C700
02F37E26E82145412AE43E46E100
008D19D33BFB989CF925E62E5000
000BB17F81268985129E52D90000
0001BD23BEA75457BF924E900000
000009E8127ACDCA622AE7000000
0000004CEA6310237BFA20000000
0000000038CFFFFEC72000000000
0000000000001210000000000000
ENDCHAR
STARTCHAR Yacute
ENCODING 221
SWIDTH 789 0
DWIDTH 25 0
BBX 25 37 0 0
BITMAP
00000000000000000000200000
0000000000000000006DC10000
00000000000000006DD6055000
000000000000006DD506DD6000
0000000000017EC506DD600000
00000000007EC516DD60000000
00000000004417EC5000000000
000000000001DC500000000000
00000000000010000000000000
00000000000000000000000000
00000000000000000000000000
3B1C2A56800000005A2C1B3860
0C5894D1E2000000C4985C2E10
05C1E1C589000005C1E2C58900
00D4985C1E20000C5894D1E200
006B2E1D5890004D1E2B689000
000D3985C1E200B67A3D1E2000
0006A2E1D49903D1E3B67A0000
0001E3A76B2E2A76B3E1D30000
00007A3E1D495E1D3A76B00000
00001E2B66B1986B2E1D400000
00000894D1E3E1D4985C000000
000001E1B64985C2E1C5000000
000000984D1E2C5894C0000000
0000002E1A894D1E2C50000000
0000000A71E2B6794D00000000
00000002E8A3D1E2B600000000
00000000AF3A67A3E000000000
000000005C1F1C589000000000
000000005C1F1C588000000000
000000005C1F1C588000000000
000000005C1F1C588000000000
000000005C1F1C588000000000
000000005C1F1C588000000000
000000005C1F1C588000000000
000000005C1F1C588000000000
000000005C1F1C588000000000
ENDCHAR
STARTCHAR Thorn
ENCODING 222
SWIDTH 798 0
DWIDTH 26 0
BBX 24 30 1 -3
BITMAP
894D0F1C5000000000000000
894D0F1C5000000000000000
894D0F1C6122200000000000
894D0F1CFFFFFFD940000000
894D0F1C61000249EC400000
894D0F1CDCDDDC9417E70000
894D0F1C8544459EC33E8000
894D0F1CA99998418E53E500
894D0F1CB8888AEC34E35E10
894D0F1C85565318E36D1C70
894D0F1CEDCCCEC27D1B75D0
894D0F1C5000019D1C75D1E2
894D0F1C5000000C76C1F1C5
894D0F1C50000007A3E0E3A7
894D0F1C50000007A3E0E3A7
894D0F1C5000000C75C1F1C5
894D0F1C500001AD1B75D0E2
894D0F1C7CCBCEC27E1B84D0
894D0F1C64555318E36E1B70
894D0F1C68888AEC34E45E10
894D0F1C699998407E53E500
894D0F1C6444458DC34D8000
894D0F1C7DDDDC9407F70000
894D0F1C51000148DC400000
894D0F1C7FFFFFD940000000
894D0F1C5222200000000000
894D0F1C5000000000000000
894D0F1C5000000000000000
894D0F1C5000000000000000
221304031000000000000000
ENDCHAR
STARTCHAR germandbls
ENCODING 223
SWIDTH 826 0
DWIDTH 26 0
BBX 25 30 1 -3
BITMAP
0000017BEFFFFFFEC720000000
00006EC6322222236BF8000000
000AE4169BBBBBB9613DB10000
009C15EC86666667BE71AB0000
05E27E515788887613DA1D8000
0D54E35ECA9999ACE71D73E100
4E0C64E5134444313E73E1B700
8A3E0D64EEDDDDDE63E1C67A00
985C2F1C70000004E0D4985C00
A76B2F0E30000002F0C4985C00
A76B2F0E5AAAAABEA1F2B67A00
A76B2F0E477777641B92E1C600
A76B2F0E47777779EB1C65D000
A76B2F0E5AAAAAACF82A84D100
A76B2F0E444444421AD2C59900
A76B2F0E5DDDDDDEC1B95C1F10
A76B2F0E30000000B85D1F2C50
A76B2F0E300000007A3E0E3A70
A76B2F0E30000001B85C1F2B60
A76B2F0E5DDDDDDFB1B85D0E40
A76B2F0E444444421AD1C74E00
A76B2F0E5999999BEB18C1C900
A76B2F0E4888887621AD28E200
A76B2F0E46666667AFA16F5000
A76B2F0E5BBBBBBA721AF60000
A76B2F0E4222222359EC300000
A76B2F0E6FFFFFFEC940000000
A76B2F0E300000000000000000
A76B2F0E300000000000000000
22231403100000000000000000
ENDCHAR
STARTCHAR agrave
ENCODING 224
SWIDTH 832 0
DWIDTH 27 0
BBX 26 34 0 -1
BITMAP
00000200000000000000000000
00005FA2000000000000000000
0018229FA30000000000000000
002AFA229EA300000000000000
000029FA328EB3000000000000
00000029FA318EB30000000000
0000000029EA31710000000000
000000000018E6000000000000
00000000000010000000000000
00000000000022000000000000
0000000059EFFFFEA500000000
0000005DD84100147CE7000000
00001AE6049CDDC9504DC20000
0001CC15DD854458DE61AE2000
000AC18E6048997405EB19C100
005E18D34DE9889DD51BB1C800
00D55E26E60365305E91D83E20
05D0D64E34DEBBED52D73F2A80
0A74D0D64F800005E63E1B75C0
0E4984D0D70000004E1B76C1F1
0F1C5893E00000000C67A3E0E2
2F0D4985B00000000985C2F0D4
1F1D5985D00000000985C1F1C4
0F2B67B2F10000000985C1F1C4
0C58A2E1B90000000985C1F1C4
08A2E1B82DA300156985C1F1C4
02F2A92E718DFEFB4985C1F1C4
00AA1E63DB4011034985C1F1C4
002E63E717DEDDED5985C1F1C4
0004E52CC51233213985C1F1C4
00005E816CFCBACF7985C1F1C4
000002CD612466411985C1F1C4
00000005CFC9779C8985C1F1C4
00000000025899741000000000
ENDCHAR
STARTCHAR aacute
ENCODING 225
SWIDTH 832 0
DWIDTH 27 0
BBX 26 34 0 -1
BITMAP
00000000000000000000200000
0000000000000000004BE30000
00000000000000004BE8137000
000000000000004CE813BE9100
0000000000005CE714BE810000
00000000004CE714BE81000000
00000000002614CE7100000000
0000000000009E710000000000
00000000000011000000000000
00000000000022000000000000
0000000059EFFFFEA500000000
0000005DD84100147CE7000000
00001AE6049CDDC9504DC20000
0001CC15DD854458DE61AE2000
000AC18E6048997405EB19C100
005E18D34DE9889DD51BB1C800
00D55E26E60365305E91D83E20
05D0D64E34DEBBED52D73F2A80
0A74D0D64F800005E63E1B75C0
0E4984D0D70000004E1B76C1F1
0F1C5893E00000000C67A3E0E2
2F0D4985B00000000985C2F0D4
1F1D5985D00000000985C1F1C4
0F2B67B2F10000000985C1F1C4
0C58A2E1B90000000985C1F1C4
08A2E1B82DA300156985C1F1C4
02F2A92E718DFEFB4985C1F1C4
00AA1E63DB4011034985C1F1C4
002E63E717DEDDED5985C1F1C4
0004E52CC51233213985C1F1C4
00005E816CFCBACF7985C1F1C4
000002CD612466411985C1F1C4
00000005CFC9779C8985C1F1C4
00000000025899741000000000
ENDCHAR
STARTCHAR acircumflex
ENCODING 226
SWIDTH 832 0
DWIDTH 27 0
BBX 26 34 0 -1
BITMAP
00000000001B54A00000000000
00000000006FC1E30000000000
0000000000C7E3990000000000
0000000003E1993E1000000000
0000000009923E1C6000000000
000000000E385C66C000000000
000000005D0E46C1E300000000
00000000A64C01D28800000000
00000000000000000000000000
00000000000022000000000000
0000000059EFFFFEA500000000
0000005DD84100147CE7000000
00001AE6049CDDC9504DC20000
0001CC15DD854458DE61AE2000
000AC18E6048997405EB19C100
005E18D34DE9889DD51BB1C800
00D55E26E60365305E91D83E20
05D0D64E34DEBBED52D73F2A80
0A74D0D64F800005E63E1B75C0
0E4984D0D70000004E1B76C1F1
0F1C5893E00000000C67A3E0E2
2F0D4985B00000000985C2F0D4
1F1D5985D00000000985C1F1C4
0F2B67B2F10000000985C1F1C4
0C58A2E1B90000000985C1F1C4
08A2E1B82DA300156985C1F1C4
02F2A92E718DFEFB4985C1F1C4
00AA1E63DB4011034985C1F1C4
002E63E717DEDDED5985C1F1C4
0004E52CC51233213985C1F1C4
00005E816CFCBACF7985C1F1C4
000002CD612466411985C1F1C4
00000005CFC9779C8985C1F1C4
00000000025899741000000000
ENDCHAR
STARTCHAR atilde
ENCODING 227
SWIDTH 832 0
DWIDTH 27 0
BBX 26 32 0 -1
BITMAP
00000168999999998009264000
00003EC988888888601F1B6000
0000D7035666666666CB0E3000
0005D09ECBBBBBBBBB815E0000
000892F2022222222238E50000
000985C00FFFFFFFFFEB400000
00000000000000000000000000
00000000000022000000000000
0000000059EFFFFEA500000000
0000005DD84100147CE7000000
00001AE6049CDDC9504DC20000
0001CC15DD854458DE61AE2000
000AC18E6048997405EB19C100
005E18D34DE9889DD51BB1C800
00D55E26E60365305E91D83E20
05D0D64E34DEBBED52D73F2A80
0A74D0D64F800005E63E1B75C0
0E4984D0D70000004E1B76C1F1
0F1C5893E00000000C67A3E0E2
2F0D4985B00000000985C2F0D4
1F1D5985D00000000985C1F1C4
0F2B67B2F10000000985C1F1C4
0C58A2E1B90000000985C1F1C4
08A2E1B82DA300156985C1F1C4
02F2A92E718DFEFB4985C1F1C4
00AA1E63DB4011034985C1F1C4
002E63E717DEDDED5985C1F1C4
0004E52CC51233213985C1F1C4
00005E816CFCBACF7985C1F1C4
000002CD612466411985C1F1C4
00000005CFC9779C8985C1F1C4
00000000025899741000000000
ENDCHAR
STARTCHAR adieresis
ENCODING 228
SWIDTH 832 0
DWIDTH 27 0
BBX 26 31 0 -1
BITMAP
00000111102000020201100000
00000B67A3E0002F0D49800000
00000B67A3E0002F0D49800000
00000B67A3E0002F0D49800000
00000423415000160513300000
00000000000000000000000000
00000000000022000000000000
0000000059EFFFFEA500000000
0000005DD84100147CE7000000
00001AE6049CDDC9504DC20000
0001CC15DD854458DE61AE2000
000AC18E6048997405EB19C100
005E18D34DE9889DD51BB1C800
00D55E26E60365305E91D83E20
05D0D64E34DEBBED52D73F2A80
0A74D0D64F800005E63E1B75C0
0E4984D0D70000004E1B76C1F1
0F1C5893E00000000C67A3E0E2
2F0D4985B00000000985C2F0D4
1F1D5985D00000000985C1F1C4
0F2B67B2F10000000985C1F1C4
0C58A2E1B90000000985C1F1C4
08A2E1B82DA300156985C1F1C4
02F2A92E718DFEFB4985C1F1C4
00AA1E63DB4011034985C1F1C4
002E63E717DEDDED5985C1F1C4
0004E52CC51233213985C1F1C4
00005E816CFCBACF7985C1F1C4
000002CD612466411985C1F1C4
00000005CFC9779C8985C1F1C4
00000000025899741000000000
ENDCHAR
STARTCHAR aring
ENCODING 229
SWIDTH 832 0
DWIDTH 27 0
BBX 26 35 0 -1
BITMAP
00000000000011000000000000
00000000004CDCD50000000000
0000000004D3453C6000000000
000000000D3B98C3D100000000
000000002D590077B400000000
000000002D690068A400000000
000000000D3D76D3D100000000
0000000005C3673B8000000000
00000000006DBAD70000000000
00000000000033100000000000
00000000000022000000000000
0000000059EFFFFEA500000000
0000005DD84100147CE7000000
00001AE6049CDDC9504DC20000
0001CC15DD854458DE61AE2000
000AC18E6048997405EB19C100
005E18D34DE9889DD51BB1C800
00D55E26E60365305E91D83E20
05D0D64E34DEBBED52D73F2A80
0A74D0D64F800005E63E1B75C0
0E4984D0D70000004E1B76C1F1
0F1C5893E00000000C67A3E0E2
2F0D4985B00000000985C2F0D4
1F1D5985D00000000985C1F1C4
0F2B67B2F10000000985C1F1C4
0C58A2E1B90000000985C1F1C4
08A2E1B82DA300156985C1F1C4
02F2A92E718DFEFB4985C1F1C4
00AA1E63DB4011034985C1F1C4
002E63E717DEDDED5985C1F1C4
0004E52CC51233213985C1F1C4
00005E816CFCBACF7985C1F1C4
000002CD612466411985C1F1C4
00000005CFC9779C8985C1F1C4
00000000025899741000000000
ENDCHAR
STARTCHAR ae
ENCODING 230
SWIDTH 1166 0
DWIDTH 37 0
BBX 37 25 0 -1
BITMAP
00000000000022100000000000000000000000
0000000059EFFFFDA502608068888888888800
0000005DD84100147CE661F1CB999999999910
00001AE6049CDDC9504DC2E1C7444444444400
0001CC15DD854458DE61AD61CEDDDDDDDDDD10
000AC18E6048997405EB19D1C5000000000000
005E18D34DE9889DD51BB1C9CFFFFFFFFFFF10
00D55E26E60365305E91D83FE6222222222200
05D0D64E34DEBBED52D73F2AF5000000000000
0A74D0D64F800005E63E1B75F5111111111000
0E4984D0D70000004E1B76C1FFFFFFFFFFF700
0F1C5893E00000000C67A3E0E5111111111000
2F0D4985B00000000985C2F0DDCCCCCCCCC500
1F1D5985D00000000985C1F1C8444444444200
0F2B67B2F10000000985C1F1CB999999999400
0C58A2E1B90000000985C1F1CA888888888400
08A2E1B82DA300156985C1F1C5000000000000
02F2A92E718DFEFB4985C1F1C5000000000000
00AA1E63DB4011034985C1F1CB999999999910
002E63E717DEDDED5985C1F1CA888888888800
0004E52CC51233213985C1F1C9666666666600
00005E816CFCBACF7985C1F1CCBBBBBBBBBB10
000002CD612466411985C1F1C6222222222200
00000005CFC9779C8985C1F1CFFFFFFFFFFF10
00000000025899741000000000000000000000
ENDCHAR
STARTCHAR ccedilla
ENCODING 231
SWIDTH 736 0
DWIDTH 24 0
BBX 23 35 0 -11
BITMAP
000000000047898630000000
00000002AEDA989BED600000
0000019E9303454215DC3000
00002CB229EECCDFC617E600
0001D918F93011016DC34E60
000BA1BC239EFFFB618E4450
006D1AB17E941127DC26C000
00D56D19D329CDB518E20000
05D1D55E26F9547DC1500000
0A85D1E55E300000A4000000
0E4985D0D500000000000000
0F2C5894E000000000000000
2F0D4985B000000000000000
1F1C5985C000000000000000
0F2B67B2F200000000000000
0C67B2F2AA00000030000000
07A2F2AA1DA20006E5000000
02E2A91D71AFCCED52C20000
00A92E53DA2155306E816000
002E44E51AFB88AED51CA100
0005E24E9226997406EA1A90
00007E42AFB75469ED51BC10
000005E9227ACDB9405EB100
0000002AEA6310147DE50000
0000000027CFFFFEA5000000
000000000018B4F000000000
000000001BFD83E000000000
00000000BB1014E000000000
00000002F16EFFE000000000
00000004D0E6100000000000
00000005C1F1000000000000
00000004D0DA655000000000
00000001F329BCB000000000
000000008E63222000000000
0000000006BEFFE000000000
ENDCHAR
STARTCHAR egrave
ENCODING 232
SWIDTH 666 0
DWIDTH 21 0
BBX 21 33 0 0
BITMAP
0011000000000000000000
007E820000000000000000
2813AE9200000000000000
3BE823AF92000000000000
003BF922AF920000000000
00003AF9229FA200000000
0000003AF9227000000000
0000000029F40000000000
0000000000100000000000
0000000000000000000000
0442608168888888888810
0894C1F1CB999999999910
0894C1F1C7444444444400
0894C1F1CEDDDDDDDDDD10
0894C1F1C5000000000000
0894C1F1CFFFFFFFFFFF10
0894C1F1C6222222222200
0894C1F1C5000000000000
0894C1F1C6111111111100
0894C1F1CFFFFFFFFFF700
0894C1F1C5111111111000
0894C1F1CDCCCCCCCCC600
0894C1F1C8444444444200
0894C1F1CB999999999400
0894C1F1CA888888888400
0894C1F1C5000000000000
0894C1F1C5000000000000
0894C1F1CB999999999910
0894C1F1CA888888888810
0894C1F1C9666666666610
0894C1F1CDBBBBBBBBBB10
0894C1F1C6222222222200
0894C1F1CFFFFFFFFFFF10
ENDCHAR
STARTCHAR eacute
ENCODING 233
SWIDTH 666 0
DWIDTH 21 0
BBX 20 33 1 0
BITMAP
00000000000000000200
0000000000000005CE20
00000000000005CE7146
000000000005DD615CE7
0000000006DD605CE710
00000005DD605DD71000
00000003506DD6000000
000000000BD600000000
00000000010000000000
00000000000000000000
44260816888888888881
894C1F1CB99999999991
894C1F1C744444444440
894C1F1CEDDDDDDDDDD1
894C1F1C500000000000
894C1F1CFFFFFFFFFFF1
894C1F1C622222222220
894C1F1C500000000000
894C1F1C611111111110
894C1F1CFFFFFFFFFF70
894C1F1C511111111100
894C1F1CDCCCCCCCCC60
894C1F1C844444444420
894C1F1CB99999999940
894C1F1CA88888888840
894C1F1C500000000000
894C1F1C500000000000
894C1F1CB99999999991
894C1F1CA88888888881
894C1F1C966666666661
894C1F1CDBBBBBBBBBB1
894C1F1C622222222220
894C1F1CFFFFFFFFFFF1
ENDCHAR
STARTCHAR ecircumflex
ENCODING 234
SWIDTH 666 0
DWIDTH 21 0
BBX 20 33 1 0
BITMAP
00000002B45800000000
00000008FA2F20000000
0000000E6F1B70000000
0000005D0B75D0000000
000000B725D0E4000000
000002F2B3E48A000000
000008A2F28A2F100000
00000B46A02D1A600000
00000000000000000000
00000000000000000000
44260816888888888881
894C1F1CB99999999991
894C1F1C744444444440
894C1F1CEDDDDDDDDDD1
894C1F1C500000000000
894C1F1CFFFFFFFFFFF1
894C1F1C622222222220
894C1F1C500000000000
894C1F1C611111111110
894C1F1CFFFFFFFFFF70
894C1F1C511111111100
894C1F1CDCCCCCCCCC60
894C1F1C844444444420
894C1F1CB99999999940
894C1F1CA88888888840
894C1F1C500000000000
894C1F1C500000000000
894C1F1CB99999999991
894C1F1CA88888888881
894C1F1C966666666661
894C1F1CDBBBBBBBBBB1
894C1F1C622222222220
894C1F1CFFFFFFFFFFF1
ENDCHAR
STARTCHAR edieresis
ENCODING 235
SWIDTH 666 0
DWIDTH 21 0
BBX 20 30 1 0
BITMAP
00201111000020201100
00D4985C0004D0F2C500
00D4985C0004D0F2C500
00D4985C0004D0F2C500
00513324000150614200
00000000000000000000
00000000000000000000
44260816888888888881
894C1F1CB99999999991
894C1F1C744444444440
894C1F1CEDDDDDDDDDD1
894C1F1C500000000000
894C1F1CFFFFFFFFFFF1
894C1F1C622222222220
894C1F1C500000000000
894C1F1C611111111110
894C1F1CFFFFFFFFFF70
894C1F1C511111111100
894C1F1CDCCCCCCCCC60
894C1F1C844444444420
894C1F1CB99999999940
894C1F1CA88888888840
894C1F1C500000000000
894C1F1C500000000000
894C1F1CB99999999991
894C1F1CA88888888881
894C1F1C966666666661
894C1F1CDBBBBBBBBBB1
894C1F1C622222222220
894C1F1CFFFFFFFFFFF1
ENDCHAR
STARTCHAR igrave
ENCODING 236
SWIDTH 337 0
DWIDTH 11 0
BBX 15 33 -5 0
BITMAP
0020000000000000
01CD600000000000
5506DD6000000000
6DD605DD60000000
006DD605CE710000
00006DD615CE7000
0000005CE7144000
000000005CD10000
0000000000100000
0000000000000000
0000004426081620
000000894C1F1C50
000000894C1F1C50
000000894C1F1C50
000000894C1F1C50
000000894C1F1C50
000000894C1F1C50
000000894C1F1C50
000000894C1F1C50
000000894C1F1C50
000000894C1F1C50
000000894C1F1C50
000000894C1F1C50
000000894C1F1C50
000000894C1F1C50
000000894C1F1C50
000000894C1F1C50
000000894C1F1C50
000000894C1F1C50
000000894C1F1C50
000000894C1F1C50
000000894C1F1C50
000000894C1F1C50
ENDCHAR
STARTCHAR iacute
ENCODING 237
SWIDTH 337 0
DWIDTH 11 0
BBX 15 33 1 0
BITMAP
0000000000011000
00000000017EA000
000000018EB41730
0000018EB417EC40
00028EB318EC4000
019FA318EB400000
006318EB30000000
0003EA3000000000
0000100000000000
0000000000000000
4426081620000000
894C1F1C50000000
894C1F1C50000000
894C1F1C50000000
894C1F1C50000000
894C1F1C50000000
894C1F1C50000000
894C1F1C50000000
894C1F1C50000000
894C1F1C50000000
894C1F1C50000000
894C1F1C50000000
894C1F1C50000000
894C1F1C50000000
894C1F1C50000000
894C1F1C50000000
894C1F1C50000000
894C1F1C50000000
894C1F1C50000000
894C1F1C50000000
894C1F1C50000000
894C1F1C50000000
894C1F1C50000000
ENDCHAR
STARTCHAR icircumflex
ENCODING 238
SWIDTH 337 0
DWIDTH 11 0
BBX 11 33 0 0
BITMAP
0006A0A40000
000EF48A0000
005D8A2F2000
00B72F1B7000
02F22B75D000
07A2C5D0E400
0D57B0E48A00
3C0B50882D10
000000000000
000000000000
044260816200
0894C1F1C500
0894C1F1C500
0894C1F1C500
0894C1F1C500
0894C1F1C500
0894C1F1C500
0894C1F1C500
0894C1F1C500
0894C1F1C500
0894C1F1C500
0894C1F1C500
0894C1F1C500
0894C1F1C500
0894C1F1C500
0894C1F1C500
0894C1F1C500
0894C1F1C500
0894C1F1C500
0894C1F1C500
0894C1F1C500
0894C1F1C500
0894C1F1C500
ENDCHAR
STARTCHAR idieresis
ENCODING 239
SWIDTH 337 0
DWIDTH 11 0
BBX 16 30 -3 0
BITMAP
0202011000111102
4D0F2B6000A76B2F
4D0F2B6000A76B2F
4D0F2B6000A76B2F
1506142000432416
0000000000000000
0000000000000000
0000442608162000
0000894C1F1C5000
0000894C1F1C5000
0000894C1F1C5000
0000894C1F1C5000
0000894C1F1C5000
0000894C1F1C5000
0000894C1F1C5000
0000894C1F1C5000
0000894C1F1C5000
0000894C1F1C5000
0000894C1F1C5000
0000894C1F1C5000
0000894C1F1C5000
0000894C1F1C5000
0000894C1F1C5000
0000894C1F1C5000
0000894C1F1C5000
0000894C1F1C5000
0000894C1F1C5000
0000894C1F1C5000
0000894C1F1C5000
0000894C1F1C5000
ENDCHAR
STARTCHAR eth
ENCODING 240
SWIDTH 783 0
DWIDTH 25 0
BBX 24 29 0 -2
BITMAP
000000159CDEEDC840000000
000028EC95432469ED600000
0006EA31489BBA7305DB1000
004D429EDA7667AED619D100
00005E93146776306EB19C00
0000342AFDBAABED51CB0C60
000000A920233216E81D64E0
00000001AFEDEFC42E65E0D4
000000003100016E55D0E498
0000000000000005D0E2A67A
0000000012332101F0D4985C
0000017CFEDDDFD2F1C5885C
00007EB510100021F1C5885C
000AD428CFFFFDC2F1C5885C
009C17E942111231F1C5885C
04E28D239CDDDCB2F1C5885C
0B74E27E95334451F1C5885C
0F2A74E249BBBBA2F1C5985C
2F0E4A84E7544554E0E3A76B
3E0E3A76C100002C83E1C589
1F1C57C1AFDCCDE81B92F1B6
0D57C1CA31455303BC1B92F1
07C1D919FCA88ADE819D1A90
01D72DA2258997413CD27E10
003E619FB854569DE717E300
0003EB226ABDCB8504CD3000
000019FB73211247CE810000
00000017AEFFFFD951000000
000000000001100000000000
ENDCHAR
STARTCHAR ntilde
ENCODING 241
SWIDTH 787 0
DWIDTH 25 0
BBX 23 31 1 0
BITMAP
000027999999999503809100
0007EA888888888407B1F100
004E3046666666667E54D000
00A81DDBBBBBBBBBA50A9000
00D48B012222222224AD1000
00E3A705FFFFFFFFFD920000
000000000000000000000000
000000000000000000000000
470641723600000007253350
8F65E1AA1E4000000E3A76B0
8EE1B82F47D000000E3A76B0
89C83F28C0D700000E3A76B0
894F29B1D65E10000E3A76B0
891AA1E55E1B90000E3A76B0
8945E47D0C82F3000E3A76B0
894B7C0D73F29B000E3A76B0
894C1D64E19B1E500E3A76B0
894C05E1A91E46D00E3A76B0
894C17B92F37D0C70E3A76B0
894C1E3F28C0D74E2E3A76B0
894C1F19B1E55E1AA93A76B0
894C1F11E46D1B92F52A76B0
894C1F107D0C83F38C0A76B0
894C1F100D73E29B1E6A76B0
894C1F1004E1AA1E56E676B0
894C1F1000B92E46D1C836B0
894C1F10002F37C0D73F26B0
894C1F100008B0D64E2AA6B0
894C1F100001E55E1AA2EAB0
894C1F1000006D1B92F37FB0
894C1F1000000C73F28C1DB0
ENDCHAR
STARTCHAR ograve
ENCODING 242
SWIDTH 833 0
DWIDTH 27 0
BBX 26 35 0 -2
BITMAP
00000200000000000000000000
00002EC5000000000000000000
0006417EC50000000000000000
0008EC416DC500000000000000
000017EC506DD6000000000000
00000017EC506DD50000000000
0000000006DD50530000000000
000000000006DB000000000000
00000000000001000000000000
00000000004789762000000000
00000002AEDA989BFC60000000
0000019E9303454116DD400000
00002CB229EECCDFC607E60000
0001D918F93012016DD34E6000
000BA1BC239EFFFC618E44E300
006D1AB17E941026DC25E37C00
00D56D19D329CDB609E28C0D60
05D1D55E26F9547DC19C1D66C0
0A85D1E55E300000AC0D66B1F2
0E4985D0D50000000D66C1F1C6
0F2C5894E000000007B2F0D3A7
2F0D4985B000000004C1F1C589
1F1C5985C000000005C1F1D498
0F2B67B2F20000000A84E0E3A7
0C67B2F2AA0000004F2994E0D4
07A2F2AA1DA20006E63E2993E0
02E2A91D71AFCCED52D73F2990
00A92E53DA2155305E81D82F20
002E44E51AFB889DD51CB1C800
0005E24E9226998406DA1AC000
00007E42AFB75469DD51BD1000
000005E9227ACDB9406DB10000
0000002AEA6310248DD5000000
0000000027CEFFFD9500000000
00000000000011000000000000
ENDCHAR
STARTCHAR oacute
ENCODING 243
SWIDTH 833 0
DWIDTH 27 0
BBX 26 35 0 -2
BITMAP
00000000000000000000110000
00000000000000000029E70000
000000000000000029FA318200
0000000000000029FA329EB300
0000000000002AF9229FA30000
00000000002AF9229FA3000000
00000000000722AFA200000000
0000000000005F920000000000
00000000000001000000000000
00000000004789762000000000
00000002AEDA989BFC60000000
0000019E9303454116DD400000
00002CB229EECCDFC607E60000
0001D918F93012016DD34E6000
000BA1BC239EFFFC618E44E300
006D1AB17E941026DC25E37C00
00D56D19D329CDB609E28C0D60
05D1D55E26F9547DC19C1D66C0
0A85D1E55E300000AC0D66B1F2
0E4985D0D50000000D66C1F1C6
0F2C5894E000000007B2F0D3A7
2F0D4985B000000004C1F1C589
1F1C5985C000000005C1F1D498
0F2B67B2F20000000A84E0E3A7
0C67B2F2AA0000004F2994E0D4
07A2F2AA1DA20006E63E2993E0
02E2A91D71AFCCED52D73F2990
00A92E53DA2155305E81D82F20
002E44E51AFB889DD51CB1C800
0005E24E9226998406DA1AC000
00007E42AFB75469DD51BD1000
000005E9227ACDB9406DB10000
0000002AEA6310248DD5000000
0000000027CEFFFD9500000000
00000000000011000000000000
ENDCHAR
STARTCHAR ocircumflex
ENCODING 244
SWIDTH 833 0
DWIDTH 27 0
BBX 26 35 0 -2
BITMAP
00000000000890B20000000000
00000000001FF2A80000000000
00000000007BA84E0000000000
0000000000D54E0D5000000000
0000000004E02D57B000000000
000000000A84A8B1F200000000
000000001F2A82F2A800000000
000000006A1D30A64C00000000
00000000000000000000000000
00000000004789762000000000
00000002AEDA989BFC60000000
0000019E9303454116DD400000
00002CB229EECCDFC607E60000
0001D918F93012016DD34E6000
000BA1BC239EFFFC618E44E300
006D1AB17E941026DC25E37C00
00D56D19D329CDB609E28C0D60
05D1D55E26F9547DC19C1D66C0
0A85D1E55E300000AC0D66B1F2
0E4985D0D50000000D66C1F1C6
0F2C5894E000000007B2F0D3A7
2F0D4985B000000004C1F1C589
1F1C5985C000000005C1F1D498
0F2B67B2F20000000A84E0E3A7
0C67B2F2AA0000004F2994E0D4
07A2F2AA1DA20006E63E2993E0
02E2A91D71AFCCED52D73F2990
00A92E53DA2155305E81D82F20
002E44E51AFB889DD51CB1C800
0005E24E9226998406DA1AC000
00007E42AFB75469DD51BD1000
000005E9227ACDB9406DB10000
0000002AEA6310248DD5000000
0000000027CEFFFD9500000000
00000000000011000000000000
ENDCHAR
STARTCHAR otilde
ENCODING 245
SWIDTH 833 0
DWIDTH 27 0
BBX 26 33 0 -2
BITMAP
00000048999999999106537000
00001BE988888888810C66A000
00009B1256666666669E198000
0000F35ECBBBBBBBBB921E4000
0003E0D6012222222236DA0000
0004C0F20BFFFFFFFFEC600000
00000000000000000000000000
00000000004789762000000000
00000002AEDA989BFC60000000
0000019E9303454116DD400000
00002CB229EECCDFC607E60000
0001D918F93012016DD34E6000
000BA1BC239EFFFC618E44E300
006D1AB17E941026DC25E37C00
00D56D19D329CDB609E28C0D60
05D1D55E26F9547DC19C1D66C0
0A85D1E55E300000AC0D66B1F2
0E4985D0D50000000D66C1F1C6
0F2C5894E000000007B2F0D3A7
2F0D4985B000000004C1F1C589
1F1C5985C000000005C1F1D498
0F2B67B2F20000000A84E0E3A7
0C67B2F2AA0000004F2994E0D4
07A2F2AA1DA20006E63E2993E0
02E2A91D71AFCCED52D73F2990
00A92E53DA2155305E81D82F20
002E44E51AFB889DD51CB1C800
0005E24E9226998406DA1AC000
00007E42AFB75469DD51BD1000
000005E9227ACDB9406DB10000
0000002AEA6310248DD5000000
0000000027CEFFFD9500000000
00000000000011000000000000
ENDCHAR
STARTCHAR odieresis
ENCODING 246
SWIDTH 833 0
DWIDTH 27 0
BBX 26 32 0 -2
BITMAP
00000110202000011111200000
000006B2F0D4000C5894C00000
000006B2F0D4000C5894C00000
000006B2F0D4000C5894C00000
00000241605100042332500000
00000000000000000000000000
00000000004789762000000000
00000002AEDA989BFC60000000
0000019E9303454116DD400000
00002CB229EECCDFC607E60000
0001D918F93012016DD34E6000
000BA1BC239EFFFC618E44E300
006D1AB17E941026DC25E37C00
00D56D19D329CDB609E28C0D60
05D1D55E26F9547DC19C1D66C0
0A85D1E55E300000AC0D66B1F2
0E4985D0D50000000D66C1F1C6
0F2C5894E000000007B2F0D3A7
2F0D4985B000000004C1F1C589
1F1C5985C000000005C1F1D498
0F2B67B2F20000000A84E0E3A7
0C67B2F2AA0000004F2994E0D4
07A2F2AA1DA20006E63E2993E0
02E2A91D71AFCCED52D73F2990
00A92E53DA2155305E81D82F20
002E44E51AFB889DD51CB1C800
0005E24E9226998406DA1AC000
00007E42AFB75469DD51BD1000
000005E9227ACDB9406DB10000
0000002AEA6310248DD5000000
0000000027CEFFFD9500000000
00000000000011000000000000
ENDCHAR
STARTCHAR divide
ENCODING 247
SWIDTH 260 0
DWIDTH 8 0
BBX 11 19 -1 1
BITMAP
00875A1D0000
00985C2F0000
00985C2F0000
00985C2F0000
00985C2F0000
0076491B0000
000000000000
666666666610
ABBBBBBBBB20
222222222200
EFFFFFFFFF30
000000000000
001101010000
00985C2F0000
00985C2F0000
00985C2F0000
00985C2F0000
00985C2F0000
005436180000
ENDCHAR
STARTCHAR oslash
ENCODING 248
SWIDTH 832 0
DWIDTH 27 0
BBX 26 30 0 -4
BITMAP
000000000000000000B3000000
000000000000000006D1920000
00000000004789762855D17100
00000002AEDA989BFC6755E100
0000019E9303554116DC3B6000
00002CB229EECCDFC607E70000
0001D918F93011016DC34E6000
000BA1BC239EFFFB618E44E300
006D1AB18F941026DC25E37C00
01D56D19D339CDB609E28C1D50
05D1E56E26F9547DC19C1D56C0
0A85D1E55E300001AB0D67B1F2
0E3985D0E50000001D56B2F1C5
0F1C5894E000000007A2F0E3A7
2F0D4976B000000005C1F1C588
1F1D4985C000000005C2F0D498
0F2B67B2F10000000A84D0E2B6
0C57A2F1AA0000004E2994D0E4
08A2E1AA1DA20006E63F2A93E0
03E1A92E71AFCCED42D73E2990
00A92E53EA2155306E81D83E20
002E45E52AFB88AED51CB1C800
0005E24E9226898406EA1AC000
00007E42AFB75469DD51BC1000
000066E9227BCDB9406DA10000
0003E24AEA6310248DD5000000
000773F157CEFFFD9500000000
00000883F20011000000000000
0000000A800000000000000000
00000001100000000000000000
ENDCHAR
STARTCHAR ugrave
ENCODING 249
SWIDTH 795 0
DWIDTH 25 0
BBX 24 35 1 -2
BITMAP
000110000000000000000000
0009E8100000000000000000
02713BE81000000000000000
04CE813AE920000000000000
0004BE813AF9200000000000
000003BE823AF91000000000
00000003AF92260000000000
0000000003AF300000000000
000000000001000000000000
000000000000000000000000
534527071000000634426081
B67A3E0F2000000C5894D0F1
B67A3E0F2000000C5894D0F1
B67A3E0F2000000C5894D0F1
B67A3E0F2000000C5894D0F1
B67A3E0F2000000C5894D0F1
B67A3E0F2000000C5894D0F1
B67A3E0F2000000C5894D0F1
B67A3E0F2000000C5894D0F1
B67A3E0F2000000C5894D0F1
B67A3E0F2000000C5894D0F1
B67A3E0F2000000C5894D0F1
B67A3E0F2000000C5894D0F1
A77A3E0E3000000D4985C1F1
985C1F2A8000003F1B67B2E0
6B2F1B82E80004D73F2B75C0
1F1B83E43DECDE71C83F2A70
0B83E45E6035413DB1C82E20
03E36E34DD989CE81AB1C800
008D17E604898613DB19D100
000AC24DD85457BE819E2000
00009E6059CDCA713CC20000
000005DD8410136BE8100000
000000059DFFFEB710000000
000000000001100000000000
ENDCHAR
STARTCHAR uacute
ENCODING 250
SWIDTH 795 0
DWIDTH 25 0
BBX 24 35 1 -2
BITMAP
000000000000000000020000
000000000000000005CD1000
0000000000000006DD615600
00000000000006DD605CE700
000000000006DD506DD60000
0000000006DC506DD6000000
0000000004506DD600000000
00000000000CD50000000000
000000000001000000000000
000000000000000000000000
534527071000000634426081
B67A3E0F2000000C5894D0F1
B67A3E0F2000000C5894D0F1
B67A3E0F2000000C5894D0F1
B67A3E0F2000000C5894D0F1
B67A3E0F2000000C5894D0F1
B67A3E0F2000000C5894D0F1
B67A3E0F2000000C5894D0F1
B67A3E0F2000000C5894D0F1
B67A3E0F2000000C5894D0F1
B67A3E0F2000000C5894D0F1
B67A3E0F2000000C5894D0F1
B67A3E0F2000000C5894D0F1
A77A3E0E3000000D4985C1F1
985C1F2A8000003F1B67B2E0
6B2F1B82E80004D73F2B75C0
1F1B83E43DECDE71C83F2A70
0B83E45E6035413DB1C82E20
03E36E34DD989CE81AB1C800
008D17E604898613DB19D100
000AC24DD85457BE819E2000
00009E6059CDCA713CC20000
000005DD8410136BE8100000
000000059DFFFEB710000000
000000000001100000000000
ENDCHAR
STARTCHAR ucircumflex
ENCODING 251
SWIDTH 795 0
DWIDTH 25 0
BBX 24 35 1 -2
BITMAP
0000000003B3670000000000
0000000009F93E1000000000
000000001E6E1C6000000000
000000006C0D66C000000000
00000000C627C1E300000000
00000003E1C3F39900000000
0000000993E1A83E10000000
0000000C37904C0B40000000
000000000000000000000000
000000000000000000000000
534527071000000634426081
B67A3E0F2000000C5894D0F1
B67A3E0F2000000C5894D0F1
B67A3E0F2000000C5894D0F1
B67A3E0F2000000C5894D0F1
B67A3E0F2000000C5894D0F1
B67A3E0F2000000C5894D0F1
B67A3E0F2000000C5894D0F1
B67A3E0F2000000C5894D0F1
B67A3E0F2000000C5894D0F1
B67A3E0F2000000C5894D0F1
B67A3E0F2000000C5894D0F1
B67A3E0F2000000C5894D0F1
A77A3E0E3000000D4985C1F1
985C1F2A8000003F1B67B2E0
6B2F1B82E80004D73F2B75C0
1F1B83E43DECDE71C83F2A70
0B83E45E6035413DB1C82E20
03E36E34DD989CE81AB1C800
008D17E604898613DB19D100
000AC24DD85457BE819E2000
00009E6059CDCA713CC20000
000005DD8410136BE8100000
000000059DFFFEB710000000
000000000001100000000000
ENDCHAR
STARTCHAR udieresis
ENCODING 252
SWIDTH 795 0
DWIDTH 25 0
BBX 24 32 1 -2
BITMAP
000020111100011020210000
0000E3A77A0005C1F0D40000
0000E3A77A0005C1F0D40000
0000E3A77A0005C1F0D40000
000051422400024160520000
000000000000000000000000
000000000000000000000000
534527071000000634426081
B67A3E0F2000000C5894D0F1
B67A3E0F2000000C5894D0F1
B67A3E0F2000000C5894D0F1
B67A3E0F2000000C5894D0F1
B67A3E0F2000000C5894D0F1
B67A3E0F2000000C5894D0F1
B67A3E0F2000000C5894D0F1
B67A3E0F2000000C5894D0F1
B67A3E0F2000000C5894D0F1
B67A3E0F2000000C5894D0F1
B67A3E0F2000000C5894D0F1
B67A3E0F2000000C5894D0F1
A77A3E0E3000000D4985C1F1
985C1F2A8000003F1B67B2E0
6B2F1B82E80004D73F2B75C0
1F1B83E43DECDE71C83F2A70
0B83E45E6035413DB1C82E20
03E36E34DD989CE81AB1C800
008D17E604898613DB19D100
000AC24DD85457BE819E2000
00009E6059CDCA713CC20000
000005DD8410136BE8100000
000000059DFFFEB710000000
000000000001100000000000
ENDCHAR
STARTCHAR yacute
ENCODING 253
SWIDTH 733 0
DWIDTH 23 0
BBX 23 33 0 0
BITMAP
000000000000000000020000
000000000000000005CD2000
0000000000000005CD714600
00000000000005DD615CE700
000000000006DD605CE71000
0000000006DD605DD7100000
0000000003506DD600000000
00000000000BD60000000000
000000000001000000000000
000000000000000000000000
361706244000000716345270
1E2B67B2E100005C2E1D4980
07A3D1D4990000C4985C2E10
01E2A76C1E3005C1E2C58900
007A3E1D57B00C5894D1E200
001E2A85D1D54D1E2B689000
0007A2E1C658B67A3D1E2000
0001E3994E14D1E3B67A0000
00007A2E2B7A76B3E1D30000
00001E39935E1D3A76B00000
000007A1E2986B2E1D400000
000000D386E1D4985C000000
0000006A1985C2E1C5000000
0000000D4E2C5895C0000000
00000006F94D1E2C50000000
00000000F3A76B2E00000000
00000000E3B67A3E00000000
00000000E3B67A3E00000000
00000000E3B67A3E00000000
00000000E3B67A3E00000000
00000000E3B67A3E00000000
00000000E3B67A3E00000000
00000000E3B67A3E00000000
ENDCHAR
STARTCHAR thorn
ENCODING 254
SWIDTH 833 0
DWIDTH 27 0
BBX 25 30 1 -4
BITMAP
784B0D1A500000000000000000
894D0F1C500000000000000000
894D0F1C500000000000000000
894D0F1C500000000000000000
894D0F1C500000000000000000
894D0F1C500000000000000000
894D0F1C511111110000000000
894D0F1C5FFFFFFFFDA4000000
894D0F1C50000001249EC20000
894D0F1C5CDDDDDDB832BE3000
894D0F1C5444444459E91AE100
894D0F1C59999999731BB1C900
894D0F1C58888888AE91C74F10
894D0F1C5555555532D84E0D50
894D0F1C5BCCCCCCE74E0E3970
894D0F1C500000005C1F1C5890
894D0F1C56777777C92F0D4980
894D0F1C5AAAAAAA71BA2F1B60
894D0F1C533333335CC1AA2F10
894D0F1C5EEEEEEEC818D2AA00
894D0F1C5000000004BD36E200
894D0F1C5EEEEEEEFD817E4000
894D0F1C53333333204BD30000
894D0F1C5AAAAAAABEE7100000
894D0F1C567777765300000000
894D0F1C500000000000000000
894D0F1C500000000000000000
894D0F1C500000000000000000
894D0F1C500000000000000000
33250614200000000000000000
ENDCHAR
STARTCHAR ydieresis
ENCODING 255
SWIDTH 733 0
DWIDTH 23 0
BBX 23 30 0 0
BITMAP
000020111100012020110000
0000D4986B0004D0F1C50000
0000D4986B0004D0F1C50000
0000D4986B0004D0F1C50000
000051432400025061420000
000000000000000000000000
000000000000000000000000
361706244000000716345270
1E2B67B2E100005C2E1D4980
07A3D1D4990000C4985C2E10
01E2A76C1E3005C1E2C58900
007A3E1D57B00C5894D1E200
001E2A85D1D54D1E2B689000
0007A2E1C658B67A3D1E2000
0001E3994E14D1E3B67A0000
00007A2E2B7A76B3E1D30000
00001E39935E1D3A76B00000
000007A1E2986B2E1D400000
000000D386E1D4985C000000
0000006A1985C2E1C5000000
0000000D4E2C5895C0000000
00000006F94D1E2C50000000
00000000F3A76B2E00000000
00000000E3B67A3E00000000
00000000E3B67A3E00000000
00000000E3B67A3E00000000
00000000E3B67A3E00000000
00000000E3B67A3E00000000
00000000E3B67A3E00000000
00000000E3B67A3E00000000
ENDCHAR
STARTCHAR Amacron
ENCODING 256
SWIDTH 936 0
DWIDTH 30 0
BBX 30 26 0 0
BITMAP
00000000006D2973C0B50000000000
0000000000CE84E0D57B0000000000
0000000003E5D0D57B1F2000000000
000000000990D47B1F2A8000000000
000000001E338A2F2A84E000000000
000000006D1D3F2B74E0D500000000
00000000C75D0B75D0D57B00000000
00000003F1B735D0E47B1F20000000
00000008A2F1B3E48A2F2A80000000
0000000E48A2F18A2F1B84E0000000
0000005D0E48A23F1B75D0D5000000
000000B75D0E485B75D0D47B000000
000002F1B75D0D55D0E48A2F200000
000008A2F1B84E00E48A2F1B800000
00000E48A2F2A8008A2F1B75D00000
00005D0E47B1F2002F1B75D0E40000
0000B75D0D57B0000C75D0E48A0000
0002F2B74E0D6BBBB6C1E48A2F2000
0008A2F2A84E266662E39A2F1B7000
000E57B1F2A8677776993F1B75D000
005D0D57B1F4AAAAAA4E1C65D0E400
00B84E0D57B23333332C66C0E48A00
02F2A84E0D6DEEEEEED6C1E38A2F10
07B1F2A84E1000000001E3992F1B70
0D57B1F2990000000000993E1C75D0
4E0D57C1E300000000003E1C66C1E4
ENDCHAR
STARTCHAR amacron
ENCODING 257
SWIDTH 832 0
DWIDTH 27 0
BBX 26 25 0 -1
BITMAP
00000000000022000000000000
0000000059EFFFFEA500000000
0000005DD84100147CE7000000
00001AE6049CDDC9504DC20000
0001CC15DD854458DE61AE2000
000AC18E6048997405EB19C100
005E18D34DE9889DD51BB1C800
00D55E26E60365305E91D83E20
05D0D64E34DEBBED52D73F2A80
0A74D0D64F800005E63E1B75C0
0E4984D0D70000004E1B76C1F1
0F1C5893E00000000C67A3E0E2
2F0D4985B00000000985C2F0D4
1F1D5985D00000000985C1F1C4
0F2B67B2F10000000985C1F1C4
0C58A2E1B90000000985C1F1C4
08A2E1B82DA300156985C1F1C4
02F2A92E718DFEFB4985C1F1C4
00AA1E63DB4011034985C1F1C4
002E63E717DEDDED5985C1F1C4
0004E52CC51233213985C1F1C4
00005E816CFCBACF7985C1F1C4
000002CD612466411985C1F1C4
00000005CFC9779C8985C1F1C4
00000000025899741000000000
ENDCHAR
STARTCHAR Abreve
ENCODING 258
SWIDTH 936 0
DWIDTH 30 0
BBX 30 33 0 0
BITMAP
0000000000A4C2002C490000000000
00000000006A4CBBC4B50000000000
00000000000AB3333B900000000000
0000000000005BDDB5000000000000
000000000000000000000000000000
000000000000000000000000000000
000000000000000000000000000000
00000000006D2973C0B50000000000
0000000000CE84E0D57B0000000000
0000000003E5D0D57B1F2000000000
000000000990D47B1F2A8000000000
000000001E338A2F2A84E000000000
000000006D1D3F2B74E0D500000000
00000000C75D0B75D0D57B00000000
00000003F1B735D0E47B1F20000000
00000008A2F1B3E48A2F2A80000000
0000000E48A2F18A2F1B84E0000000
0000005D0E48A23F1B75D0D5000000
000000B75D0E485B75D0D47B000000
000002F1B75D0D55D0E48A2F200000
000008A2F1B84E00E48A2F1B800000
00000E48A2F2A8008A2F1B75D00000
00005D0E47B1F2002F1B75D0E40000
0000B75D0D57B0000C75D0E48A0000
0002F2B74E0D6BBBB6C1E48A2F2000
0008A2F2A84E266662E39A2F1B7000
000E57B1F2A8677776993F1B75D000
005D0D57B1F4AAAAAA4E1C65D0E400
00B84E0D57B23333332C66C0E48A00
02F2A84E0D6DEEEEEED6C1E38A2F10
07B1F2A84E1000000001E3992F1B70
0D57B1F2990000000000993E1C75D0
4E0D57C1E300000000003E1C66C1E4
ENDCHAR
STARTCHAR abreve
ENCODING 259
SWIDTH 832 0
DWIDTH 27 0
BBX 26 30 0 -1
BITMAP
00000000A3D1003B5800000000
00000000794DABC3B400000000
000000000BA3324C8000000000
00000000006BDDB40000000000
00000000000000000000000000
00000000000022000000000000
0000000059EFFFFEA500000000
0000005DD84100147CE7000000
00001AE6049CDDC9504DC20000
0001CC15DD854458DE61AE2000
000AC18E6048997405EB19C100
005E18D34DE9889DD51BB1C800
00D55E26E60365305E91D83E20
05D0D64E34DEBBED52D73F2A80
0A74D0D64F800005E63E1B75C0
0E4984D0D70000004E1B76C1F1
0F1C5893E00000000C67A3E0E2
2F0D4985B00000000985C2F0D4
1F1D5985D00000000985C1F1C4
0F2B67B2F10000000985C1F1C4
0C58A2E1B90000000985C1F1C4
08A2E1B82DA300156985C1F1C4
02F2A92E718DFEFB4985C1F1C4
00AA1E63DB4011034985C1F1C4
002E63E717DEDDED5985C1F1C4
0004E52CC51233213985C1F1C4
00005E816CFCBACF7985C1F1C4
000002CD612466411985C1F1C4
00000005CFC9779C8985C1F1C4
00000000025899741000000000
ENDCHAR
STARTCHAR Aogonek
ENCODING 260
SWIDTH 937 0
DWIDTH 30 0
BBX 30 36 0 -10
BITMAP
00000000003D56A1D2880000000000
00000000009EB1F2A83E1000000000
0000000001E5F2A84E0C6000000000
0000000006D0A84E0D57C000000000
000000000B734D0D57B1F200000000
000000002F1B3D57B1F2A800000000
000000008A2F18B2F2A84E00000000
00000000E48A23F2A84E0D50000000
00000005D0E486B75D0D57B0000000
0000000B75D0D45D0D47B1F2000000
0000002F1B75D02E48A2F2A8000000
0000008A2F2A8498A2F2A84E000000
000000E48A2F2A82F1B74D0D500000
000005D0D47B1F20B75D0D57B00000
00000B75D0D57B005D0E48B2F20000
00002F2B84E0D5000E48A2F2A80000
00008B2F2A84E00008A2F1B75D0000
0000D57B1F2A89BBB5F1B75D0D5000
0005E0D57B1F366663B75D0E48B000
000A84E0D57C5777776D0E48A2F200
002F2A84E0D69AAAAA4E38A2F1B700
007B1F2A93E23333333993F1B75D00
00D57B1F399AEEEEEEE5E1C75D0E40
04E0D57C1E3000000000C66D0E48A0
0A84E0C66C00000000006C1E38A2F1
1F2A83E1C600001000001E3992F1B7
000000000006CFF100000000000000
00000000009D621000000000000000
0000000003F229C100000000000000
0000000007A0DA5000000000000000
000000000884D00000000000000000
000000000985C18000000000000000
000000000985C1F100000000000000
000000000985C1F100000000000000
000000000985C1F100000000000000
000000000985C1F100000000000000
ENDCHAR
STARTCHAR aogonek
ENCODING 261
SWIDTH 832 0
DWIDTH 27 0
BBX 26 34 0 -10
BITMAP
00000000000022000000000000
0000000059EFFFFEA500000000
0000005DD84100147CE7000000
00001AE6049CDDC9504DC20000
0001CC15DD854458DE61AE2000
000AC18E6048997405EB19C100
005E18D34DE9889DD51BB1C800
00D55E26E60365305E91D83E20
05D0D64E34DEBBED52D73F2A80
0A74D0D64F800005E63E1B75C0
0E4984D0D70000004E1B76C1F1
0F1C5893E00000000C67A3E0E2
2F0D4985B00000000985C2F0D4
1F1D5985D00000000985C1F1C4
0F2B67B2F10000000985C1F1C4
0C58A2E1B90000000985C1F1C4
08A2E1B82DA300156985C1F1C4
02F2A92E718DFEFB4985C1F1C4
00AA1E63DB4011034985C1F1C4
002E63E717DEDDED5985C1F1C4
0004E52CC51233213985C1F1C4
00005E816CFCBACF7985C1F1C4
000002CD612466411985C1F1C4
00000005CFC9979C8985C1F1C4
0000000008FFF9741000000000
000000009D6210000000000000
00000003E229C0000000000000
00000007A1E950000000000000
0000000984D000000000000000
0000000985C180000000000000
0000000985C2F0000000000000
0000000985C2F0000000000000
0000000985C2F0000000000000
0000000985C2F0000000000000
ENDCHAR
STARTCHAR Cacute
ENCODING 262
SWIDTH 852 0
DWIDTH 27 0
BBX 27 39 0 -2
BITMAP
0000000000000000000000200000
000000000000000000003BE40000
0000000000000000004BE8137000
00000000000000004BE813BE9100
000000000000004CE714BE810000
0000000000004CE714BE81000000
0000000000002614CE7100000000
000000000000009E710000000000
0000000000000011000000000000
0000000000000000000000000000
000000000048CEFFEB8300000000
000000005DE9632236AEC5000000
0000003CD6037ABB97306DB20000
000005E816DEA8668AEC519E4000
00005E52CD6136775216EA16E400
0003E54E916DEBAACFC51BD26E20
000D73E61BD61133117E919D1730
006D1D81DA15CFEEFB42BC1A6000
01E57D0BA1BD610027E91B800000
05D0E57D1BB10000002C91100000
0A85E0E46D100000000240000000
0D4994D0D5000000000000000000
1F2B67A3E0000000000000000000
2F0D5985C0000000000000000000
2F0D4985C0000000000000000000
1F1C6893E0000000000000000000
0E4985D0E4000000000000000000
0A75D1E47C000000000130000000
06C1E48C1CA00000001BA0000000
01E48C1C81CC400005DB1A900000
007C1D62E817EECCED61AD195000
001E64E42CC40355305DB27E2520
0004E35E618ED988AEE619E34E30
00007E34DC4158997404DC24E500
000007E618ED864469DE707E5000
0000004EC4159CDDB9514CD30000
000000017EC74100248DE7000000
00000000016AEFFFFDA510000000
0000000000000121000000000000
ENDCHAR
STARTCHAR cacute
ENCODING 263
SWIDTH 736 0
DWIDTH 24 0
BBX 24 35 0 -2
BITMAP
000000000000000000001100
00000000000000000029E700
000000000000000029FA3182
0000000000000029FA329EB3
0000000000002AF9229FA300
00000000002AF9229FA30000
00000000000722AFA2000000
0000000000005F9200000000
000000000000010000000000
000000000047898630000000
00000002AEDA989BED600000
0000019E9303454215DC3000
00002CB229EECCDFC617E600
0001D918F93011016DC34E60
000BA1BC239EFFFB618E4450
006D1AB17E941127DC26C000
00D56D19D329CDB518E20000
05D1D55E26F9547DC1500000
0A85D1E55E300000A4000000
0E4985D0D500000000000000
0F2C5894E000000000000000
2F0D4985B000000000000000
1F1C5985C000000000000000
0F2B67B2F200000000000000
0C67B2F2AA00000030000000
07A2F2AA1DA20006E5000000
02E2A91D71AFCCED52C20000
00A92E53DA2155306E816000
002E44E51AFB88AED51CA100
0005E24E9226997406EA1A90
00007E42AFB75469ED51BC10
000005E9227ACDB9405EB100
0000002AEA6310147DE50000
0000000027CEFFFEA5000000
000000000000121000000000
ENDCHAR
STARTCHAR Cdotaccent
ENCODING 266
SWIDTH 852 0
DWIDTH 27 0
BBX 27 36 0 -2
BITMAP
000000000000CDDDDA0000000000
0000000000003444430000000000
0000000000008999970000000000
0000000000007888860000000000
0000000000005666640000000000
000000000000ABBBB80000000000
0000000000000000000000000000
000000000048CEFFEB8300000000
000000005DE9632236AEC5000000
0000003CD6037ABB97306DB20000
000005E816DEA8668AEC519E4000
00005E52CD6136775216EA16E400
0003E54E916DEBAACFC51BD26E20
000D73E61BD61133117E919D1730
006D1D81DA15CFEEFB42BC1A6000
01E57D0BA1BD610027E91B800000
05D0E57D1BB10000002C91100000
0A85E0E46D100000000240000000
0D4994D0D5000000000000000000
1F2B67A3E0000000000000000000
2F0D5985C0000000000000000000
2F0D4985C0000000000000000000
1F1C6893E0000000000000000000
0E4985D0E4000000000000000000
0A75D1E47C000000000130000000
06C1E48C1CA00000001BA0000000
01E48C1C81CC400005DB1A900000
007C1D62E817EECCED61AD195000
001E64E42CC40355305DB27E2520
0004E35E618ED988AEE619E34E30
00007E34DC4158997404DC24E500
000007E618ED864469DE707E5000
0000004EC4159CDDB9514CD30000
000000017EC74100248DE7000000
00000000016AEFFFFDA510000000
0000000000000121000000000000
ENDCHAR
STARTCHAR cdotaccent
ENCODING 267
SWIDTH 736 0
DWIDTH 24 0
BBX 23 33 0 -2
BITMAP
00000000008DDDDD10000000
000000000024444400000000
000000000059999900000000
000000000048888800000000
000000000036666600000000
00000000007BBBBB10000000
000000000000000000000000
000000000047898630000000
00000002AEDA989BED600000
0000019E9303454215DC3000
00002CB229EECCDFC617E600
0001D918F93011016DC34E60
000BA1BC239EFFFB618E4450
006D1AB17E941127DC26C000
00D56D19D329CDB518E20000
05D1D55E26F9547DC1500000
0A85D1E55E300000A4000000
0E4985D0D500000000000000
0F2C5894E000000000000000
2F0D4985B000000000000000
1F1C5985C000000000000000
0F2B67B2F200000000000000
0C67B2F2AA00000030000000
07A2F2AA1DA20006E5000000
02E2A91D71AFCCED52C20000
00A92E53DA2155306E816000
002E44E51AFB88AED51CA100
0005E24E9226997406EA1A90
00007E42AFB75469ED51BC10
000005E9227ACDB9405EB100
0000002AEA6310147DE50000
0000000027CEFFFEA5000000
000000000000121000000000
ENDCHAR
STARTCHAR Ccaron
ENCODING 268
SWIDTH 852 0
DWIDTH 27 0
BBX 27 39 0 -2
BITMAP
0000000000854900A26600000000
00000000006C1E35D0D400000000
00000000001E396B75D000000000
000000000009833F2B8000000000
000000000004E08B2F2000000000
000000000000D5D57B0000000000
0000000000007ED0D50000000000
0000000000001E74D00000000000
0000000000000000000000000000
0000000000000000000000000000
000000000048CEFFEB8300000000
000000005DE9632236AEC5000000
0000003CD6037ABB97306DB20000
000005E816DEA8668AEC519E4000
00005E52CD6136775216EA16E400
0003E54E916DEBAACFC51BD26E20
000D73E61BD61133117E919D1730
006D1D81DA15CFEEFB42BC1A6000
01E57D0BA1BD610027E91B800000
05D0E57D1BB10000002C91100000
0A85E0E46D100000000240000000
0D4994D0D5000000000000000000
1F2B67A3E0000000000000000000
2F0D5985C0000000000000000000
2F0D4985C0000000000000000000
1F1C6893E0000000000000000000
0E4985D0E4000000000000000000
0A75D1E47C000000000130000000
06C1E48C1CA00000001BA0000000
01E48C1C81CC400005DB1A900000
007C1D62E817EECCED61AD195000
001E64E42CC40355305DB27E2520
0004E35E618ED988AEE619E34E30
00007E34DC4158997404DC24E500
000007E618ED864469DE707E5000
0000004EC4159CDDB9514CD30000
000000017EC74100248DE7000000
00000000016AEFFFFDA510000000
0000000000000121000000000000
ENDCHAR
STARTCHAR ccaron
ENCODING 269
SWIDTH 736 0
DWIDTH 24 0
BBX 23 35 0 -2
BITMAP
00000000581A207539000000
000000002F1B71F399000000
000000000B75A6C1E3000000
0000000005D03C66C0000000
0000000000E43E1C60000000
00000000008A993E10000000
00000000002FE39900000000
00000000000BC0D300000000
000000000000000000000000
000000000047898630000000
00000002AEDA989BED600000
0000019E9303454215DC3000
00002CB229EECCDFC617E600
0001D918F93011016DC34E60
000BA1BC239EFFFB618E4450
006D1AB17E941127DC26C000
00D56D19D329CDB518E20000
05D1D55E26F9547DC1500000
0A85D1E55E300000A4000000
0E4985D0D500000000000000
0F2C5894E000000000000000
2F0D4985B000000000000000
1F1C5985C000000000000000
0F2B67B2F200000000000000
0C67B2F2AA00000030000000
07A2F2AA1DA20006E5000000
02E2A91D71AFCCED52C20000
00A92E53DA2155306E816000
002E44E51AFB88AED51CA100
0005E24E9226997406EA1A90
00007E42AFB75469ED51BC10
000005E9227ACDB9405EB100
0000002AEA6310147DE50000
0000000027CEFFFEA5000000
000000000000121000000000
ENDCHAR
STARTCHAR Dcaron
ENCODING 270
SWIDTH 886 0
DWIDTH 28 0
BBX 27 37 1 0
BITMAP
00000000390930671A1000000000
000000001E38A0D57B0000000000
000000000993D4E0D50000000000
0000000003E14A84E00000000000
0000000000C61F2A800000000000
00000000006C7B1F200000000000
00000000001EE57C000000000000
000000000009D0B5000000000000
0000000000000000000000000000
0000000000000000000000000000
0000000000000000000000000000
7DDDDDDDDDDDDDDCB83000000000
8A444444444444457BFB30000000
89399999999999997219F6000000
894E888888888888BFB24E800000
894C066666666665219E53E60000
894C1FCBBBBBBBBDFB26F55F2000
894C1F11222222212AE36E29B000
894C1F1CFFFFFFFFA18D1BA2F300
894C1F1C50000002AC1B92F2A900
894C1F1C500000000C83E1B76D00
894C1F1C5000000004E1D56B1F10
894C1F1C5000000000E4984E0E40
894C1F1C5000000000C57A2F0D50
894C1F1C5000000000C67A2F0D50
894C1F1C5000000000E4883E0E30
894C1F1C5000000003F1C66C1F20
894C1F1C500000000B92F1A85D00
894C1F1C500000008D1AA1F39900
894C1F1CEDDDDDDEC26E1AB1E300
894C1F134444444207E44F38B000
894C1FA99999999AEC34E63E3000
894C088888888877407F72D70000
894D6666666666669ED42D900000
893BBBBBBBBBBBBB8417E8000000
892222222222222359EC40000000
8FFFFFFFFFFFFFFFDA5000000000
ENDCHAR
STARTCHAR dcaron
ENCODING 271
SWIDTH 1084 0
DWIDTH 35 0
BBX 33 24 1 0
BITMAP
000000000000000000000000000A173560
488888888888876410000000000F2C5890
8D99999999999ABDFA300000000F2C5890
891444444444443028EA1000000F2C5890
894FDDDDDDDDDDEFA32CD200000D1C5890
894D0000000000038E81AD1000000C5890
894D0FFFFFFFFFDA32DB1CA000004F2980
894D0F3222222249E71D82E4000EE60D50
894D0F19BBBBBB933E73E38B0003119D00
894D0F1C966666AF53F28A2F200ABEB200
894D0F1C50000005F2993F0C5007520000
894D0F1C50000000B75D0E3A8000000000
894D0F1C500000008A3E0D499000000000
894D0F1C50000000994E0E498000000000
894D0F1C50000001E57B1F2B6000000000
894D0F1C5000002CB0D65D0E3000000000
894D0F1CEDDDDEFA19D0C74D0000000000
894D0F1344444411AE28D1B70000000000
894D0FA999999ABFB26E37E10000000000
894D08888888876219E43F500000000000
894E66666666667AEB25E7000000000000
893BBBBBBBBBBBA7318F60000000000000
8A222222222222359EA200000000000000
8FFFFFFFFFFFFFDC830000000000000000
ENDCHAR
STARTCHAR Dcroat
ENCODING 272
SWIDTH 888 0
DWIDTH 28 0
BBX 30 26 -2 0
BITMAP
0007DDDDDDDDDDDDDDCB8300000000
0008A444444444444457BFB3000000
00089399999999999997219F700000
000894E888888888888BFB24E80000
000894D066666666665219E53E6000
000894D0FCBBBBBBBBDFB26F54F200
000894D0F11222222212AE36E29B00
000894D0F1CFFFFFFFFA18E1BA2F30
000894D0F1C50000002AD1B92F2A90
000894D0F1C500000000B83F1B85D0
7DA894D0F1C4DDD900004E1D66C1F2
243894D0F1C5444300000E4993E0E4
597894D0F1C5999600000C67A2F0D5
486894D0F1C5888600000C67A2F0D5
354894D0F1C5555400000E4893E0E3
7C9894D0F1C6CCC800003F1B66C1F2
000894D0F1C500000000A92F1A85D0
000894D0F1C500000008E19A1F3990
000894D0F1CEDDDDDDEC26E29B1E30
000894D0F134444444207E44F38B00
000894D0FA99999999AED34E63E300
000894D088888888877407F72D7000
000894E6666666666669ED42D90000
000893BBBBBBBBBBBBB9407E800000
0008A2222222222222359EC4000000
0008FFFFFFFFFFFFFFFDA500000000
ENDCHAR
STARTCHAR dcroat
ENCODING 273
SWIDTH 833 0
DWIDTH 27 0
BBX 28 23 -2 0
BITMAP
0004888888888888764100000000
0008D99999999999ABDFA3000000
000891444444444442028E910000
000894FDDDDDDDDDDEEA32CC2000
000894C0000000000038E81AD100
000894C1FFFFFFFFFDA33DB1CA00
000894C1F3222222249F71D82E40
000894C1F19BBBBBB933E73E38B0
000894C1F1C966666AF53F29A2F2
000894C1F1C50000005E2A93F0C5
8FC894C1F1C4FFFA000B75D0F3A8
122894C1F1C52222000893E0D499
6B9894C1F1C6BBB8000A94D0E398
365894C1F1C56664001E57B1F1B6
000894C1F1C5000002CB0D66D0E3
000894C1F1CEDDDDEFA19C0C75D0
000894C1F1344444411AD28D1C70
000894C1FA999999ABFA26E37E10
000894C08888888876219E43F400
000894D66666666667AEB25E7000
000893BBBBBBBBBBBA7318E50000
00089222222222222359EA200000
0008FFFFFFFFFFFFFDC730000000
ENDCHAR
STARTCHAR Emacron
ENCODING 274
SWIDTH 706 0
DWIDTH 23 0
BBX 21 26 1 0
BITMAP
784B1D1ADDDDDDDDDDDD40
894C1F1C74444444444410
894C1F1CB9999999999930
894C1F1CA8888888888820
894C1F1C96666666666620
894C1F1CDBBBBBBBBBBB30
894C1F1C50000000000000
894C1F1C50000000000000
894C1F1C50000000000000
894C1F1C50000000000000
894C1F1CDBBBBB50000000
894C1F1C96666630000000
894C1F1CA8888840000000
894C1F1CB9999940000000
894C1F1C74444420000000
894C1F1CEDDDDD60000000
894C1F1C50000000000000
894C1F1C50000000000000
894C1F1C50000000000000
894C1F1C50000000000000
894C1F1CB9999999999930
894C1F1CA8888888888820
894C1F1C96666666666620
894C1F1CDBBBBBBBBBBB30
894C1F1C62222222222210
894C1F1CFFFFFFFFFFFF40
ENDCHAR
STARTCHAR emacron
ENCODING 275
SWIDTH 666 0
DWIDTH 21 0
BBX 20 23 1 0
BITMAP
44260816888888888881
894C1F1CB99999999991
894C1F1C744444444440
894C1F1CEDDDDDDDDDD1
894C1F1C500000000000
894C1F1CFFFFFFFFFFF1
894C1F1C622222222220
894C1F1C500000000000
894C1F1C611111111110
894C1F1CFFFFFFFFFF70
894C1F1C511111111100
894C1F1CDCCCCCCCCC60
894C1F1C844444444420
894C1F1CB99999999940
894C1F1CA88888888840
894C1F1C500000000000
894C1F1C500000000000
894C1F1CB99999999991
894C1F1CA88888888881
894C1F1C966666666661
894C1F1CDBBBBBBBBBB1
894C1F1C622222222220
894C1F1CFFFFFFFFFFF1
ENDCHAR
STARTCHAR Ebreve
ENCODING 276
SWIDTH 706 0
DWIDTH 23 0
BBX 21 33 1 0
BITMAP
000004977000B3D1000000
000001D3ACAD85B0000000
0000004D62328D20000000
000000029DDC8100000000
0000000000000000000000
0000000000000000000000
0000000000000000000000
784B1D1ADDDDDDDDDDDD40
894C1F1C74444444444410
894C1F1CB9999999999930
894C1F1CA8888888888820
894C1F1C96666666666620
894C1F1CDBBBBBBBBBBB30
894C1F1C50000000000000
894C1F1C50000000000000
894C1F1C50000000000000
894C1F1C50000000000000
894C1F1CDBBBBB50000000
894C1F1C96666630000000
894C1F1CA8888840000000
894C1F1CB9999940000000
894C1F1C74444420000000
894C1F1CEDDDDD60000000
894C1F1C50000000000000
894C1F1C50000000000000
894C1F1C50000000000000
894C1F1C50000000000000
894C1F1CB9999999999930
894C1F1CA8888888888820
894C1F1C96666666666620
894C1F1CDBBBBBBBBBBB30
894C1F1C62222222222210
894C1F1CFFFFFFFFFFFF40
ENDCHAR
STARTCHAR ebreve
ENCODING 277
SWIDTH 666 0
DWIDTH 21 0
BBX 20 29 1 0
BITMAP
00000C2C100597600000
00000976DABC2D200000
000001C93325D6000000
00000007CDDA30000000
00000000000000000000
00000000000000000000
44260816888888888881
894C1F1CB99999999991
894C1F1C744444444440
894C1F1CEDDDDDDDDDD1
894C1F1C500000000000
894C1F1CFFFFFFFFFFF1
894C1F1C622222222220
894C1F1C500000000000
894C1F1C611111111110
894C1F1CFFFFFFFFFF70
894C1F1C511111111100
894C1F1CDCCCCCCCCC60
894C1F1C844444444420
894C1F1CB99999999940
894C1F1CA88888888840
894C1F1C500000000000
894C1F1C500000000000
894C1F1CB99999999991
894C1F1CA88888888881
894C1F1C966666666661
894C1F1CDBBBBBBBBBB1
894C1F1C622222222220
894C1F1CFFFFFFFFFFF1
ENDCHAR
STARTCHAR Edotaccent
ENCODING 278
SWIDTH 706 0
DWIDTH 23 0
BBX 21 34 1 0
BITMAP
00000007FFFFF300000000
0000000122222000000000
00000005BBBBB200000000
0000000266666100000000
0000000388888100000000
0000000499999200000000
0000000000000000000000
0000000000000000000000
784B1D1ADDDDDDDDDDDD40
894C1F1C74444444444410
894C1F1CB9999999999930
894C1F1CA8888888888820
894C1F1C96666666666620
894C1F1CDBBBBBBBBBBB30
894C1F1C50000000000000
894C1F1C50000000000000
894C1F1C50000000000000
894C1F1C50000000000000
894C1F1CDBBBBB50000000
894C1F1C96666630000000
894C1F1CA8888840000000
894C1F1CB9999940000000
894C1F1C74444420000000
894C1F1CEDDDDD60000000
894C1F1C50000000000000
894C1F1C50000000000000
894C1F1C50000000000000
894C1F1C50000000000000
894C1F1CB9999999999930
894C1F1CA8888888888820
894C1F1C96666666666620
894C1F1CDBBBBBBBBBBB30
894C1F1C62222222222210
894C1F1CFFFFFFFFFFFF40
ENDCHAR
STARTCHAR edotaccent
ENCODING 279
SWIDTH 666 0
DWIDTH 21 0
BBX 20 31 1 0
BITMAP
0000000FFFFF90000000
00000002222210000000
0000000BBBBB70000000
00000006666630000000
00000008888840000000
00000009999960000000
00000000000000000000
00000000000000000000
44260816888888888881
894C1F1CB99999999991
894C1F1C744444444440
894C1F1CEDDDDDDDDDD1
894C1F1C500000000000
894C1F1CFFFFFFFFFFF1
894C1F1C622222222220
894C1F1C500000000000
894C1F1C611111111110
894C1F1CFFFFFFFFFF70
894C1F1C511111111100
894C1F1CDCCCCCCCCC60
894C1F1C844444444420
894C1F1CB99999999940
894C1F1CA88888888840
894C1F1C500000000000
894C1F1C500000000000
894C1F1CB99999999991
894C1F1CA88888888881
894C1F1C966666666661
894C1F1CDBBBBBBBBBB1
894C1F1C622222222220
894C1F1CFFFFFFFFFFF1
ENDCHAR
STARTCHAR Eogonek
ENCODING 280
SWIDTH 706 0
DWIDTH 23 0
BBX 21 35 1 -9
BITMAP
774B1D1BDDDDDDDDDDDD40
885C1F1C74444444444410
885C1F1CB9999999999930
885C1F1CA8888888888820
885C1F1C96666666666620
885C1F1CCBBBBBBBBBBB30
885C1F1C50000000000000
885C1F1C50000000000000
885C1F1C50000000000000
885C1F1C50000000000000
885C1F1CCBBBBB50000000
885C1F1C96666630000000
885C1F1CA8888830000000
885C1F1CB9999940000000
885C1F1C74444420000000
885C1F1CEDDDDD60000000
885C1F1C50000000000000
885C1F1C50000000000000
885C1F1C50000000000000
885C1F1C50000000000000
885C1F1CB9999999999930
885C1F1CA8888888888820
885C1F1C96666666666620
885C1F1CCBBBBBBBBBBB30
885C1F1C62222222222310
885C1F1CFFFFFFFFFFFF80
0000000000000006E73100
000000000000001E418C30
000000000000004D0BB510
000000000000006B1F1000
000000000000006B2F0720
000000000000006B2F0D40
000000000000006B2F0D40
000000000000006B2F0D40
000000000000006B2F0D40
ENDCHAR
STARTCHAR eogonek
ENCODING 281
SWIDTH 666 0
DWIDTH 21 0
BBX 20 32 1 -9
BITMAP
44260816888888888881
894C1F1CB99999999991
894C1F1C744444444440
894C1F1CEDDDDDDDDDD1
894C1F1C500000000000
894C1F1CFFFFFFFFFFF1
894C1F1C622222222220
894C1F1C500000000000
894C1F1C611111111110
894C1F1CFFFFFFFFFF70
894C1F1C511111111100
894C1F1CDCCCCCCCCC60
894C1F1C844444444420
894C1F1CB99999999940
894C1F1CA88888888840
894C1F1C500000000000
894C1F1C500000000000
894C1F1CB99999999991
894C1F1CA88888888881
894C1F1C966666666661
894C1F1CDBBBBBBBBBB1
894C1F1C622222222230
894C1F1CFFFFFFFFFFF3
000000000000008E6210
00000000000002F229C1
00000000000006B0DA50
0000000000000893E000
0000000000000894C081
0000000000000894C1F1
0000000000000894C1F1
0000000000000894C1F1
0000000000000894C1F1
ENDCHAR
STARTCHAR Ecaron
ENCODING 282
SWIDTH 706 0
DWIDTH 23 0
BBX 21 37 1 0
BITMAP
00000390930671A1000000
000001E39A0D57B0000000
000000993C4E0D50000000
0000003E14A84E00000000
0000000C61F2A800000000
00000006C7B1F200000000
00000001EE57B000000000
000000009D0C5000000000
0000000000000000000000
0000000000000000000000
0000000000000000000000
784B1D1ADDDDDDDDDDDD40
894C1F1C74444444444410
894C1F1CB9999999999930
894C1F1CA8888888888820
894C1F1C96666666666620
894C1F1CDBBBBBBBBBBB30
894C1F1C50000000000000
894C1F1C50000000000000
894C1F1C50000000000000
894C1F1C50000000000000
894C1F1CDBBBBB50000000
894C1F1C96666630000000
894C1F1CA8888840000000
894C1F1CB9999940000000
894C1F1C74444420000000
894C1F1CEDDDDD60000000
894C1F1C50000000000000
894C1F1C50000000000000
894C1F1C50000000000000
894C1F1C50000000000000
894C1F1CB9999999999930
894C1F1CA8888888888820
894C1F1C96666666666620
894C1F1CDBBBBBBBBBBB30
894C1F1C62222222222210
894C1F1CFFFFFFFFFFFF40
ENDCHAR
STARTCHAR ecaron
ENCODING 283
SWIDTH 666 0
DWIDTH 21 0
BBX 20 33 1 0
BITMAP
00000A35702A18500000
00000993E18B1F200000
000003E1C3D57B000000
000000C644E0D5000000
0000006C0A84E0000000
0000001E4F2A80000000
00000009EB1F20000000
00000003E56B00000000
00000000000000000000
00000000000000000000
44260816888888888881
894C1F1CB99999999991
894C1F1C744444444440
894C1F1CEDDDDDDDDDD1
894C1F1C500000000000
894C1F1CFFFFFFFFFFF1
894C1F1C622222222220
894C1F1C500000000000
894C1F1C611111111110
894C1F1CFFFFFFFFFF70
894C1F1C511111111100
894C1F1CDCCCCCCCCC60
894C1F1C844444444420
894C1F1CB99999999940
894C1F1CA88888888840
894C1F1C500000000000
894C1F1C500000000000
894C1F1CB99999999991
894C1F1CA88888888881
894C1F1C966666666661
894C1F1CDBBBBBBBBBB1
894C1F1C622222222220
894C1F1CFFFFFFFFFFF1
ENDCHAR
STARTCHAR Gbreve
ENCODING 286
SWIDTH 908 0
DWIDTH 29 0
BBX 28 35 0 -2
BITMAP
0000000000A3D2003B5800000000
00000000006A4DABC3B500000000
00000000000AA3324C9000000000
0000000000006BDDB50000000000
0000000000000000000000000000
0000000000000000000000000000
000000000048CEFFEB8300000000
000000005DE9632236AEC5000000
0000003CD6037ABB97306DB20000
000005E816DEA8668AEC519E4000
00005E52CD6136775216EA16E400
0003E54E916DEBAACFC51BD26E20
000D73E61BD61133117E919D1730
006D1D81DA15CFEEFB42BC1A6000
01E57D0BA1BD610027E91B800000
05D0E57D1BB10000002C91100000
0A85E0E46D100000000240000000
0D4994D0D5000000000000000000
1F2B67A3E0000000000000000000
2F0D5985C0000000000180725436
2F0D4985C00000000002F0D4986B
1F1C5794D00000000002F0D4986B
0E3985C1F20000000002F0D4986B
0B76B1F2A90000000002F0D4986B
07B1F2992E6000000002F0D4986B
02F2A92E53EA3000014AF0D4986B
009A2E44E519EECCDFD9F0D4986B
002E46E34EA203554217F0D4986B
0006E27E518EC9889BFDF0D4986B
00009D25EA2148998622F0D4986B
000009E419EC854467BFF0D4986B
0000006EA3169CDDBA65F0D4986B
000000029FC73201247BF0D4986B
00000000017BEFFFFEB720000000
0000000000000121100000000000
ENDCHAR
STARTCHAR gbreve
ENCODING 287
SWIDTH 827 0
DWIDTH 26 0
BBX 26 31 0 -2
BITMAP
000000006795001C2D00000000
000000002D2BBAD67900000000
0000000006D52339C100000000
00000000003ADDC70000000000
00000000000000000000000000
00000000004789863000000000
00000002AEDA989BED60000000
0000019E9303454215DC300000
00002CB229EECCDFC617E60000
0001D918F93011016DC34E6000
000BA1BC239EFFFB618E445000
006D1AB17E941127DC26C00000
00D56D19D329CDB518E2000000
05D1D55E26F9547DC150000000
0A85D1E55E300000A400000000
0E4985D0D50000000000000000
0F2C5894E00000000000000000
2F0D4985B00000000423416061
1F1C5985C00000000B67A3E0F2
0F2B67B2F20000000B67A3E0F2
0C67B2F2AA0000000B67A3E0F2
07A2F2AA1DA200029F67A3E0F2
02E2A91D71AFCCDFAC67A3E0F2
00A92E53DA2155413D67A3E0F2
002E44E51AFB889CEE67A3E0F2
0005E24E922699751B67A3E0F2
00007E42AFB75468DF67A3E0F2
000005E9227ACDB95B67A3E0F2
0000002AEA6310248E67A3E0F2
0000000027CEFFFEA500000000
00000000000012100000000000
ENDCHAR
STARTCHAR Gdotaccent
ENCODING 288
SWIDTH 908 0
DWIDTH 29 0
BBX 28 36 0 -2
BITMAP
000000000000CDDDDA0000000000
0000000000003444430000000000
0000000000008999970000000000
0000000000007888860000000000
0000000000005666640000000000
000000000000ABBBB80000000000
0000000000000000000000000000
000000000048CEFFEB8300000000
000000005DE9632236AEC5000000
0000003CD6037ABB97306DB20000
000005E816DEA8668AEC519E4000
00005E52CD6136775216EA16E400
0003E54E916DEBAACFC51BD26E20
000D73E61BD61133117E919D1730
006D1D81DA15CFEEFB42BC1A6000
01E57D0BA1BD610027E91B800000
05D0E57D1BB10000002C91100000
0A85E0E46D100000000240000000
0D4994D0D5000000000000000000
1F2B67A3E0000000000000000000
2F0D5985C0000000000180725436
2F0D4985C00000000002F0D4986B
1F1C5794D00000000002F0D4986B
0E3985C1F20000000002F0D4986B
0B76B1F2A90000000002F0D4986B
07B1F2992E6000000002F0D4986B
02F2A92E53EA3000014AF0D4986B
009A2E44E519EECCDFD9F0D4986B
002E46E34EA203554217F0D4986B
0006E27E518EC9889BFDF0D4986B
00009D25EA2148998622F0D4986B
000009E419EC854467BFF0D4986B
0000006EA3169CDDBA65F0D4986B
000000029FC73201247BF0D4986B
00000000017BEFFFFEB720000000
0000000000000121100000000000
ENDCHAR
STARTCHAR gdotaccent
ENCODING 289
SWIDTH 827 0
DWIDTH 26 0
BBX 26 33 0 -2
BITMAP
00000000008DDDDD1000000000
00000000002444440000000000
00000000005999990000000000
00000000004888880000000000
00000000003666660000000000
00000000007BBBBB1000000000
00000000000000000000000000
00000000004789863000000000
00000002AEDA989BED60000000
0000019E9303454215DC300000
00002CB229EECCDFC617E60000
0001D918F93011016DC34E6000
000BA1BC239EFFFB618E445000
006D1AB17E941127DC26C00000
00D56D19D329CDB518E2000000
05D1D55E26F9547DC150000000
0A85D1E55E300000A400000000
0E4985D0D50000000000000000
0F2C5894E00000000000000000
2F0D4985B00000000423416061
1F1C5985C00000000B67A3E0F2
0F2B67B2F20000000B67A3E0F2
0C67B2F2AA0000000B67A3E0F2
07A2F2AA1DA200029F67A3E0F2
02E2A91D71AFCCDFAC67A3E0F2
00A92E53DA2155413D67A3E0F2
002E44E51AFB889CEE67A3E0F2
0005E24E922699751B67A3E0F2
00007E42AFB75468DF67A3E0F2
000005E9227ACDB95B67A3E0F2
0000002AEA6310248E67A3E0F2
0000000027CEFFFEA500000000
00000000000012100000000000
ENDCHAR
STARTCHAR Gcommaaccent
ENCODING 290
SWIDTH 908 0
DWIDTH 29 0
BBX 28 40 0 -13
BITMAP
000000000048CEFFEB8300000000
000000005DE9632236AEC5000000
0000003CD6037ABB97306DB20000
000005E816DEA8668AEC519E4000
00005E52CD6136775216EA16E400
0003E54E916DEBAACFC51BD26E20
000D73E61BD61133117E919D1730
006D1D81DA15CFEEFB42BC1A6000
01E57D0BA1BD610027E91B800000
05D0E57D1BB10000002C91100000
0A85E0E46D100000000240000000
0D4994D0D5000000000000000000
1F2B67A3E0000000000000000000
2F0D5985C0000000000180725436
2F0D4985C00000000002F0D4986B
1F1C5794D00000000002F0D4986B
0E3985C1F20000000002F0D4986B
0B76B1F2A90000000002F0D4986B
07B1F2992E6000000002F0D4986B
02F2A92E53EA3000014AF0D4986B
009A2E44E519EECCDFD9F0D4986B
002E46E34EA203554217F0D4986B
0006E27E518EC9889BFDF0D4986B
00009D25EA2148998622F0D4986B
000009E419EC854467BFF0D4986B
0000006EA3169CDDBA65F0D4986B
000000029FC73201247BF0D4986B
00000000017BEFFFFEB720000000
0000000000000121100000000000
000000000000B285570000000000
000000000000E3B67A0000000000
000000000000E3B67A0000000000
000000000000E3B67A0000000000
000000000000B2B67A0000000000
00000000000000B67A0000000000
00000000000015F2880000000000
000000000000EE60D50000000000
000000000000101AD00000000000
000000000000BDFA100000000000
0000000000005410000000000000
ENDCHAR
STARTCHAR gcommaaccent
ENCODING 291
SWIDTH 827 0
DWIDTH 26 0
BBX 26 26 0 -2
BITMAP
00000000004789863000000000
00000002AEDA989BED60000000
0000019E9303454215DC300000
00002CB229EECCDFC617E60000
0001D918F93011016DC34E6000
000BA1BC239EFFFB618E445000
006D1AB17E941127DC26C00000
00D56D19D329CDB518E2000000
05D1D55E26F9547DC150000000
0A85D1E55E300000A400000000
0E4985D0D50000000000000000
0F2C5894E00000000000000000
2F0D4985B00000000423416061
1F1C5985C00000000B67A3E0F2
0F2B67B2F20000000B67A3E0F2
0C67B2F2AA0000000B67A3E0F2
07A2F2AA1DA200029F67A3E0F2
02E2A91D71AFCCDFAC67A3E0F2
00A92E53DA2155413D67A3E0F2
002E44E51AFB889CEE67A3E0F2
0005E24E922699751B67A3E0F2
00007E42AFB75468DF67A3E0F2
000005E9227ACDB95B67A3E0F2
0000002AEA6310248E67A3E0F2
0000000027CEFFFEA500000000
00000000000012100000000000
ENDCHAR
STARTCHAR Hcircumflex
ENCODING 292
SWIDTH 901 0
DWIDTH 29 0
BBX 27 36 1 0
BITMAP
000000000006A0A4000000000000
00000000000EF48A000000000000
00000000005D8A2F200000000000
0000000000B72F1B700000000000
0000000002F22B75D00000000000
0000000007A2C5D0E40000000000
000000000D57B0E48A0000000000
000000003C0B50882D1000000000
0000000000000000000000000000
0000000000000000000000000000
784B1D1A4000000000784B1D1A40
894C1F1C5000000000894C1F1C50
894C1F1C5000000000894C1F1C50
894C1F1C5000000000894C1F1C50
894C1F1C5000000000894C1F1C50
894C1F1C5000000000894C1F1C50
894C1F1C5000000000894C1F1C50
894C1F1C5000000000894C1F1C50
894C1F1C5000000000894C1F1C50
894C1F1C5000000000894C1F1C50
894C1F1CDCCCCCCCCCD94C1F1C50
894C1F1C9555555555B94C1F1C50
894C1F1CA888888888C94C1F1C50
894C1F1CB999999999C94C1F1C50
894C1F1C8444444444A94C1F1C50
894C1F1CEDDDDDDDDDE94C1F1C50
894C1F1C5000000000894C1F1C50
894C1F1C5000000000894C1F1C50
894C1F1C5000000000894C1F1C50
894C1F1C5000000000894C1F1C50
894C1F1C5000000000894C1F1C50
894C1F1C5000000000894C1F1C50
894C1F1C5000000000894C1F1C50
894C1F1C5000000000894C1F1C50
894C1F1C5000000000894C1F1C50
894C1F1C5000000000894C1F1C50
ENDCHAR
STARTCHAR hcircumflex
ENCODING 293
SWIDTH 830 0
DWIDTH 27 0
BBX 25 33 1 0
BITMAP
0000000000890B300000000000
0000000001EF39900000000000
0000000006BA93E10000000000
000000000C64E1C60000000000
000000003E12D56C0000000000
00000000993A7B1F3000000000
00000001E3991F2A8000000000
00000005B0C30973C000000000
00000000000000000000000000
00000000000000000000000000
44260816200000006344260810
894C1F1C50000000C5894D0F10
894C1F1C50000000C5894D0F10
894C1F1C50000000C5894D0F10
894C1F1C50000000C5894D0F10
894C1F1C50000000C5894D0F10
894C1F1C50000000C5894D0F10
894C1F1C50000000C5894D0F10
894C1F1CB9999999E5894D0F10
894C1F1CA8888888D5894D0F10
894C1F1C96666666D5894D0F10
894C1F1CDBBBBBBBE5894D0F10
894C1F1C62222222C5894D0F10
894C1F1CFFFFFFFFF5894D0F10
894C1F1C50000000C5894D0F10
894C1F1C50000000C5894D0F10
894C1F1C50000000C5894D0F10
894C1F1C50000000C5894D0F10
894C1F1C50000000C5894D0F10
894C1F1C50000000C5894D0F10
894C1F1C50000000C5894D0F10
894C1F1C50000000C5894D0F10
894C1F1C50000000C5894D0F10
ENDCHAR
STARTCHAR Hbar
ENCODING 294
SWIDTH 901 0
DWIDTH 29 0
BBX 31 26 -1 0
BITMAP
00784B0D1A5000000000784B0D1A5000
00894D0F1C5000000000894D0F1C5000
00894D0F1C5000000000894D0F1C5000
99894D0F1C5AAAAAAAA9894D0F1C3A50
65894D0F1C5777777776894D0F1C4730
65894D0F1C5777777776894D0F1C6730
99894D0F1C5AAAAAAAA9894D0F1C7A50
00894D0F1C5000000000894D0F1C5000
00894D0F1C5000000000894D0F1C5000
00894D0F1C5000000000894D0F1C5000
00894D0F1CDCCCCCCCCCD94D0F1C5000
00894D0F1C9555555555B94D0F1C5000
00894D0F1CA888888888C94D0F1C5000
00894D0F1CB999999999C94D0F1C5000
00894D0F1C8444444444A94D0F1C5000
00894D0F1CEDDDDDDDDDE94D0F1C5000
00894D0F1C5000000000894D0F1C5000
00894D0F1C5000000000894D0F1C5000
00894D0F1C5000000000894D0F1C5000
00894D0F1C5000000000894D0F1C5000
00894D0F1C5000000000894D0F1C5000
00894D0F1C5000000000894D0F1C5000
00894D0F1C5000000000894D0F1C5000
00894D0F1C5000000000894D0F1C5000
00894D0F1C5000000000894D0F1C5000
00894D0F1C5000000000894D0F1C5000
ENDCHAR
STARTCHAR hbar
ENCODING 295
SWIDTH 830 0
DWIDTH 27 0
BBX 29 23 -1 0
BITMAP
004426081630000000634526081000
00894D0F1C50000000C5894D0F2000
12894D0F1C52222222C5894D0F1200
8C894D0F1C5FFFFFFAC5894D0F3F10
00894D0F1C50000000C5894D0F2000
8B894D0F1C6EEEEEEAC5894D0F6E10
23894D0F1C53333332C5894D0F3300
00894D0F1C50000000C5894D0F2000
00894D0F1CB9999999E5894D0F2000
00894D0F1CA8888888D5894D0F2000
00894D0F1C96666666D5894D0F2000
00894D0F1CDBBBBBBBE5894D0F2000
00894D0F1C62222222C5894D0F2000
00894D0F1CFFFFFFFFF5894D0F2000
00894D0F1C50000000C5894D0F2000
00894D0F1C50000000C5894D0F2000
00894D0F1C50000000C5894D0F2000
00894D0F1C50000000C5894D0F2000
00894D0F1C50000000C5894D0F2000
00894D0F1C50000000C5894D0F2000
00894D0F1C50000000C5894D0F2000
00894D0F1C50000000C5894D0F2000
00894D0F1C50000000C5894D0F2000
ENDCHAR
STARTCHAR Itilde
ENCODING 296
SWIDTH 338 0
DWIDTH 11 0
BBX 20 35 -5 0
BITMAP
00037999999999304629
00AEA88888888820984D
07D1156666666668E37B
0D53EDBBBBBBBBBA41D6
1F1A8012222222225CC0
2F0D408FFFFFFFFFC810
00000000000000000000
00000000000000000000
00000000000000000000
000000784B1D1A400000
000000894C1F1C500000
000000894C1F1C500000
000000894C1F1C500000
000000894C1F1C500000
000000894C1F1C500000
000000894C1F1C500000
000000894C1F1C500000
000000894C1F1C500000
000000894C1F1C500000
000000894C1F1C500000
000000894C1F1C500000
000000894C1F1C500000
000000894C1F1C500000
000000894C1F1C500000
000000894C1F1C500000
000000894C1F1C500000
000000894C1F1C500000
000000894C1F1C500000
000000894C1F1C500000
000000894C1F1C500000
000000894C1F1C500000
000000894C1F1C500000
000000894C1F1C500000
000000894C1F1C500000
000000894C1F1C500000
ENDCHAR
STARTCHAR itilde
ENCODING 297
SWIDTH 337 0
DWIDTH 11 0
BBX 20 31 -5 0
BITMAP
00037999999999304629
00AEA88888888820984D
07D1156666666668E37B
0D53EDBBBBBBBBBA41D6
1F1A8012222222225CC0
2F0D408FFFFFFFFFC810
00000000000000000000
00000000000000000000
00000044260816200000
000000894C1F1C500000
000000894C1F1C500000
000000894C1F1C500000
000000894C1F1C500000
000000894C1F1C500000
000000894C1F1C500000
000000894C1F1C500000
000000894C1F1C500000
000000894C1F1C500000
000000894C1F1C500000
000000894C1F1C500000
000000894C1F1C500000
000000894C1F1C500000
000000894C1F1C500000
000000894C1F1C500000
000000894C1F1C500000
000000894C1F1C500000
000000894C1F1C500000
000000894C1F1C500000
000000894C1F1C500000
000000894C1F1C500000
000000894C1F1C500000
ENDCHAR
STARTCHAR Imacron
ENCODING 298
SWIDTH 338 0
DWIDTH 11 0
BBX 9 26 1 0
BITMAP
784B1D1A40
894C1F1C50
894C1F1C50
894C1F1C50
894C1F1C50
894C1F1C50
894C1F1C50
894C1F1C50
894C1F1C50
894C1F1C50
894C1F1C50
894C1F1C50
894C1F1C50
894C1F1C50
894C1F1C50
894C1F1C50
894C1F1C50
894C1F1C50
894C1F1C50
894C1F1C50
894C1F1C50
894C1F1C50
894C1F1C50
894C1F1C50
894C1F1C50
894C1F1C50
ENDCHAR
STARTCHAR imacron
ENCODING 299
SWIDTH 337 0
DWIDTH 11 0
BBX 9 23 1 0
BITMAP
4426081620
894C1F1C50
894C1F1C50
894C1F1C50
894C1F1C50
894C1F1C50
894C1F1C50
894C1F1C50
894C1F1C50
894C1F1C50
894C1F1C50
894C1F1C50
894C1F1C50
894C1F1C50
894C1F1C50
894C1F1C50
894C1F1C50
894C1F1C50
894C1F1C50
894C1F1C50
894C1F1C50
894C1F1C50
894C1F1C50
ENDCHAR
STARTCHAR Ibreve
ENCODING 300
SWIDTH 338 0
DWIDTH 11 0
BBX 11 33 0 0
BITMAP
4977000A4C10
1D3ACAD85B00
04D62328D200
0029DDC81000
000000000000
000000000000
000000000000
0784B1D1A400
0894C1F1C500
0894C1F1C500
0894C1F1C500
0894C1F1C500
0894C1F1C500
0894C1F1C500
0894C1F1C500
0894C1F1C500
0894C1F1C500
0894C1F1C500
0894C1F1C500
0894C1F1C500
0894C1F1C500
0894C1F1C500
0894C1F1C500
0894C1F1C500
0894C1F1C500
0894C1F1C500
0894C1F1C500
0894C1F1C500
0894C1F1C500
0894C1F1C500
0894C1F1C500
0894C1F1C500
0894C1F1C500
ENDCHAR
STARTCHAR ibreve
ENCODING 301
SWIDTH 337 0
DWIDTH 11 0
BBX 11 29 0 0
BITMAP
4977000A4C10
1D3ACAD85B00
04D62328D200
0029DDC81000
000000000000
000000000000
044260816200
0894C1F1C500
0894C1F1C500
0894C1F1C500
0894C1F1C500
0894C1F1C500
0894C1F1C500
0894C1F1C500
0894C1F1C500
0894C1F1C500
0894C1F1C500
0894C1F1C500
0894C1F1C500
0894C1F1C500
0894C1F1C500
0894C1F1C500
0894C1F1C500
0894C1F1C500
0894C1F1C500
0894C1F1C500
0894C1F1C500
0894C1F1C500
0894C1F1C500
ENDCHAR
STARTCHAR Iogonek
ENCODING 302
SWIDTH 338 0
DWIDTH 11 0
BBX 9 35 1 -9
BITMAP
784B1D1A40
894C1F1C50
894C1F1C50
894C1F1C50
894C1F1C50
894C1F1C50
894C1F1C50
894C1F1C50
894C1F1C50
894C1F1C50
894C1F1C50
894C1F1C50
894C1F1C50
894C1F1C50
894C1F1C50
894C1F1C50
894C1F1C50
894C1F1C50
894C1F1C50
894C1F1C50
894C1F1C50
894C1F1C50
894C1F1C50
894C1F1C50
894C1F1D50
894C4FFF90
0005E83100
000E518C40
003E0AC510
005C0F2000
005C1F1620
005C1F1C40
005C1F1C40
005C1F1C40
005C1F1C40
ENDCHAR
STARTCHAR iogonek
ENCODING 303
SWIDTH 337 0
DWIDTH 11 0
BBX 9 32 1 -9
BITMAP
4426081620
894C1F1C50
894C1F1C50
894C1F1C50
894C1F1C50
894C1F1C50
894C1F1C50
894C1F1C50
894C1F1C50
894C1F1C50
894C1F1C50
894C1F1C50
894C1F1C50
894C1F1C50
894C1F1C50
894C1F1C50
894C1F1C50
894C1F1C50
894C1F1C50
894C1F1C50
894C1F1C50
894C1F1D50
894C4FFFA0
0004E83100
000D608C40
002F09C610
004D0E3000
004D0F1630
004D0F1C50
004D0F1C50
004D0F1C50
004D0F1C50
ENDCHAR
STARTCHAR Idotaccent
ENCODING 304
SWIDTH 338 0
DWIDTH 11 0
BBX 9 34 1 0
BITMAP
06DDDDD300
0244444100
0499999200
0388888200
0266666100
05BBBBB200
0000000000
0000000000
784B1D1A40
894C1F1C50
894C1F1C50
894C1F1C50
894C1F1C50
894C1F1C50
894C1F1C50
894C1F1C50
894C1F1C50
894C1F1C50
894C1F1C50
894C1F1C50
894C1F1C50
894C1F1C50
894C1F1C50
894C1F1C50
894C1F1C50
894C1F1C50
894C1F1C50
894C1F1C50
894C1F1C50
894C1F1C50
894C1F1C50
894C1F1C50
894C1F1C50
894C1F1C50
ENDCHAR
STARTCHAR dotlessi
ENCODING 305
SWIDTH 337 0
DWIDTH 11 0
BBX 9 23 1 0
BITMAP
4426081620
894C1F1C50
894C1F1C50
894C1F1C50
894C1F1C50
894C1F1C50
894C1F1C50
894C1F1C50
894C1F1C50
894C1F1C50
894C1F1C50
894C1F1C50
894C1F1C50
894C1F1C50
894C1F1C50
894C1F1C50
894C1F1C50
894C1F1C50
894C1F1C50
894C1F1C50
894C1F1C50
894C1F1C50
894C1F1C50
ENDCHAR
STARTCHAR IJ
ENCODING 306
SWIDTH 774 0
DWIDTH 25 0
BBX 23 28 1 -2
BITMAP
774B1D1B400000784B1D1A40
885C1F1C500000894C1F1C50
885C1F1C500000894C1F1C50
885C1F1C500000894C1F1C50
885C1F1C500000894C1F1C50
885C1F1C500000894C1F1C50
885C1F1C500000894C1F1C50
885C1F1C500000894C1F1C50
885C1F1C500000894C1F1C50
885C1F1C500000894C1F1C50
885C1F1C500000894C1F1C50
885C1F1C500000894C1F1C50
885C1F1C500000894C1F1C50
885C1F1C500000894C1F1C50
885C1F1C500000894C1F1C50
885C1F1C500000894C1F1C50
885C1F1C500000894C1F1C50
885C1F1C500000975C1F1D40
885C1F1C500002E3893E0E30
885C1F1C505BCE82E48A3E00
885C1F1C5026522C91E48A00
885C1F1C50388AE91BA1E400
885C1F1C50499831BC1AB000
885C1F1C5024459EA18D1000
885C1F1C506DDC932AD20000
885C1F1C50000249EA100000
00000000006FFFD930000000
000000000012200000000000
ENDCHAR
STARTCHAR ij
ENCODING 307
SWIDTH 729 0
DWIDTH 23 0
BBX 21 27 1 -4
BITMAP
4426081630000725436170
894D0F1C50000D4A76B2F0
894D0F1C50000D4A76B2F0
894D0F1C50000D4A76B2F0
894D0F1C50000D4A76B2F0
894D0F1C50000D4A76B2F0
894D0F1C50000D4A76B2F0
894D0F1C50000D4A76B2F0
894D0F1C50000D4A76B2F0
894D0F1C50000D4A76B2F0
894D0F1C50000D4A76B2F0
894D0F1C50000D4A76B2F0
894D0F1C50000D4A76B2F0
894D0F1C50000D4A76B2F0
894D0F1C50000D4A76B2F0
894D0F1C50000D4A76B2F0
894D0F1C50000E3A76B3E0
894D0F1C50006E0D5894D0
894D0F1C504BE55E1C67A0
894D0F1C504714E54E1C50
894D0F1C5026AE62E65E10
894D0F1C506C823D91D600
894D0F1C50014AE71BA000
00000000007FD923DB1000
00000000001104AF800000
00000000006DFD92000000
0000000000242000000000
ENDCHAR
STARTCHAR Jcircumflex
ENCODING 308
SWIDTH 434 0
DWIDTH 14 0
BBX 14 38 0 -2
BITMAP
0000005B186000
000000BF75D000
000002E7D0E400
000008A1E48A00
00000E42992F10
00005D0D3E1C60
0000B75D0C66C0
0001D19706A1D3
00000000000000
00000000000000
00005A2D0C3860
00006B2F0D4A70
00006B2F0D4A70
00006B2F0D4A70
00006B2F0D4A70
00006B2F0D4A70
00006B2F0D4A70
00006B2F0D4A70
00006B2F0D4A70
00006B2F0D4A70
00006B2F0D4A70
00006B2F0D4A70
00006B2F0D4A70
00006B2F0D4A70
00006B2F0D4A70
00006B2F0D4A70
00006B2F0D3A70
00007A3E0E3A60
0001D66C1F1C50
3BBEA1D65C1F20
16531BC1D66C00
2889EB19C1D600
2998419D28D000
14458EB16E3000
3DDC9418E40000
000138EB200000
4FFFEA40000000
02210000000000
ENDCHAR
STARTCHAR jcircumflex
ENCODING 309
SWIDTH 393 0
DWIDTH 13 0
BBX 12 37 0 -4
BITMAP
00000890B200
00001FF2A800
00007BA84E00
0000D54E0D50
0004E02D57B0
000A83A7B1F2
001F2992F2A8
005A1D30974C
000000000000
000000000000
000533517071
000A77A3E0E3
000A77A3E0E3
000A77A3E0E3
000A77A3E0E3
000A77A3E0E3
000A77A3E0E3
000A77A3E0E3
000A77A3E0E3
000A77A3E0E3
000A77A3E0E3
000A77A3E0E3
000A77A3E0E3
000A77A3E0E3
000A77A3E0E3
000A77A3E0E3
000B67A3E0F2
003E2A85C1F1
2AE72E3994D0
2732D82E3980
159E81C92F30
3C932CB1B900
0148E919C100
4FEA32BD2000
01038EA10000
3DEEA3000000
143000000000
ENDCHAR
STARTCHAR Kcommaaccent
ENCODING 310
SWIDTH 815 0
DWIDTH 26 0
BBX 25 38 1 -12
BITMAP
784B1D1A4000000882D2891D20
894C1F1C5000002E29A1E38B00
894C1F1C5000009A2E39A1E300
894C1F1C500002F29A2E39A000
894C1F1C50000A92F29A2E3000
894C1F1C50002F2992F29A0000
894C1F1C5000A92F2992F20000
894C1F1C5003E2A92F29A00000
894C1F1C500A92F2A92F200000
894C1F1C503E1A92F2A9000000
894C1F1C50B83E2A92F2000000
894C1F1C53E1A83E2A90000000
894C1F1C5B83E1A93E20000000
894C1F1C5C74E1B83E10000000
894C1F1C54E1B74E1B80000000
894C1F1C50C74E1B83E1000000
894C1F1C504E1B83E1B8000000
894C1F1C500B83E1B83E100000
894C1F1C5003E1B83E1A900000
894C1F1C5000B83E1A93E20000
894C1F1C50003E1A83E2A90000
894C1F1C50000A83E2A92F2000
894C1F1C500003E1A92F2A9000
894C1F1C500000A92E2A92F200
894C1F1C5000003E2A92F29A00
894C1F1C5000000A92F29A2F20
00000000000000000000000000
000000000481B0930000000000
0000000005C2F0D40000000000
0000000005C2F0D40000000000
0000000005C2F0D40000000000
000000000492F0D40000000000
000000000002F0D40000000000
00000000002AB0E20000000000
0000000005FC24E00000000000
0000000001104D700000000000
0000000004CEE7000000000000
00000000025300000000000000
ENDCHAR
STARTCHAR kcommaaccent
ENCODING 311
SWIDTH 801 0
DWIDTH 26 0
BBX 24 35 1 -12
BITMAP
442608162000000632706327
894C1F1C5000004E1B83E1B8
894C1F1C500000C74E1C74E1
894C1F1C500005D1D65D1C70
894C1F1C50000D56D1D55D00
894C1F1C50007C1E47C1D500
894C1F1C5001E38B1E47C000
894C1F1C5009A1E38B1E3000
894C1F1C502E29A2E39A0000
894C1F1C50A83E2A92E20000
894C1F1C54E1B83E1A900000
894C1F1C5C74E1B83E100000
894C1F1C5992E39A2E300000
894C1F1C52E38B1E38B00000
894C1F1C508B1E47C1E40000
894C1F1C501E46C1D56D0000
894C1F1C5006D1D65D1D6000
894C1F1C5000D65D1C74E100
894C1F1C50004E1C74E1B800
894C1F1C50000B83E1B83E20
894C1F1C500003E2A92E2A90
894C1F1C500000992E29A2E3
894C1F1C5000002E38A1E38B
000000000000000000000000
00000000066491B000000000
000000000985C1F100000000
000000000985C1F100000000
000000000985C1F100000000
000000000765C1F100000000
000000000006B1F000000000
00000000002C83E000000000
0000000009FA17B000000000
0000000001006E4000000000
0000000007CED40000000000
000000000352000000000000
ENDCHAR
STARTCHAR kgreenlandic
ENCODING 312
SWIDTH 801 0
DWIDTH 26 0
BBX 24 23 1 0
BITMAP
442608162000000632706327
894C1F1C5000004E1B83E1B8
894C1F1C500000C74E1C74E1
894C1F1C500005D1D65D1C70
894C1F1C50000D56D1D55D00
894C1F1C50007C1E47C1D500
894C1F1C5001E38B1E47C000
894C1F1C5009A1E38B1E3000
894C1F1C502E29A2E39A0000
894C1F1C50A83E2A92E20000
894C1F1C54E1B83E1A900000
894C1F1C5C74E1B83E100000
894C1F1C5992E39A2E300000
894C1F1C52E38B1E38B00000
894C1F1C508B1E47C1E40000
894C1F1C501E46C1D56D0000
894C1F1C5006D1D65D1D6000
894C1F1C5000D65D1C74E100
894C1F1C50004E1C74E1B800
894C1F1C50000B83E1B83E20
894C1F1C500003E2A92E2A90
894C1F1C500000992E29A2E3
894C1F1C5000002E38A1E38B
ENDCHAR
STARTCHAR Lacute
ENCODING 313
SWIDTH 604 0
DWIDTH 19 0
BBX 20 37 1 0
BITMAP
00000000000000002000
000000000000004BE300
0000000000004BE81370
00000000004CE714BE81
000000005CE714BE8100
0000004CE714CE810000
0000002615CE71000000
00000000AE7100000000
00000000100000000000
00000000000000000000
00000000000000000000
784B1D1A400000000000
894C1F1C500000000000
894C1F1C500000000000
894C1F1C500000000000
894C1F1C500000000000
894C1F1C500000000000
894C1F1C500000000000
894C1F1C500000000000
894C1F1C500000000000
894C1F1C500000000000
894C1F1C500000000000
894C1F1C500000000000
894C1F1C500000000000
894C1F1C500000000000
894C1F1C500000000000
894C1F1C500000000000
894C1F1C500000000000
894C1F1C500000000000
894C1F1C500000000000
894C1F1C500000000000
894C1F1CB99999999300
894C1F1CA88888888200
894C1F1C966666666200
894C1F1CDBBBBBBBB400
894C1F1C622222222100
894C1F1CFFFFFFFFF500
ENDCHAR
STARTCHAR lacute
ENCODING 314
SWIDTH 583 0
DWIDTH 19 0
BBX 17 33 1 0
BITMAP
000000000001100000
00000000017EA00000
000000018EB4173000
0000018EB417EC4000
00028EB318EC400000
019FA318EB40000000
006318EB3000000000
0003EA300000000000
000010000000000000
000000000000000000
442608162000000000
894C1F1C5000000000
894C1F1C5000000000
894C1F1C5000000000
894C1F1C5000000000
894C1F1C5000000000
894C1F1C5000000000
894C1F1C5000000000
894C1F1C5000000000
894C1F1C5000000000
894C1F1C5000000000
894C1F1C5000000000
894C1F1C5000000000
894C1F1C5000000000
894C1F1C5000000000
894C1F1C5000000000
894C1F1C5000000000
894C1F1CB999999960
894C1F1CA888888850
894C1F1C9666666640
894C1F1CDBBBBBBB70
894C1F1C6222222210
894C1F1CFFFFFFFF90
ENDCHAR
STARTCHAR Lcommaaccent
ENCODING 315
SWIDTH 604 0
DWIDTH 19 0
BBX 18 38 1 -12
BITMAP
784B1D1A4000000000
894C1F1C5000000000
894C1F1C5000000000
894C1F1C5000000000
894C1F1C5000000000
894C1F1C5000000000
894C1F1C5000000000
894C1F1C5000000000
894C1F1C5000000000
894C1F1C5000000000
894C1F1C5000000000
894C1F1C5000000000
894C1F1C5000000000
894C1F1C5000000000
894C1F1C5000000000
894C1F1C5000000000
894C1F1C5000000000
894C1F1C5000000000
894C1F1C5000000000
894C1F1C5000000000
894C1F1CB999999993
894C1F1CA888888882
894C1F1C9666666662
894C1F1CDBBBBBBBB4
894C1F1C6222222221
894C1F1CFFFFFFFFF5
000000000000000000
000000A27548000000
000000E3A76B000000
000000E3A76B000000
000000E3A76B000000
000000A2A76B000000
00000000B66A000000
00000014E389000000
000000EE60C6000000
0000001019D1000000
000000ADFB20000000
000000541000000000
ENDCHAR
STARTCHAR lcommaaccent
ENCODING 316
SWIDTH 583 0
DWIDTH 19 0
BBX 17 35 1 -12
BITMAP
442608162000000000
894C1F1C5000000000
894C1F1C5000000000
894C1F1C5000000000
894C1F1C5000000000
894C1F1C5000000000
894C1F1C5000000000
894C1F1C5000000000
894C1F1C5000000000
894C1F1C5000000000
894C1F1C5000000000
894C1F1C5000000000
894C1F1C5000000000
894C1F1C5000000000
894C1F1C5000000000
894C1F1C5000000000
894C1F1C5000000000
894C1F1CB999999960
894C1F1CA888888850
894C1F1C9666666640
894C1F1CDBBBBBBB70
894C1F1C6222222210
894C1F1CFFFFFFFF90
000000000000000000
00000390B184000000
000004D0F2C5000000
000004D0F2C5000000
000004D0F2C5000000
000003A0F2C5000000
00000001F1C5000000
00000018D0D4000000
000004FC33F1000000
000000103D80000000
000003CEE800000000
000001530000000000
ENDCHAR
STARTCHAR Lcaron
ENCODING 317
SWIDTH 856 0
DWIDTH 27 0
BBX 26 27 1 0
BITMAP
0000000000000000000380A173
774B1D1B400000000004D0F2C5
885C1F1C500000000004D0F2C5
885C1F1C500000000004D0F2C5
885C1F1C500000000003B0F2C5
885C1F1C50000000000001F1C5
885C1F1C50000000000007D0D4
885C1F1C500000000004FE42F1
885C1F1C500000000001202C90
885C1F1C500000000003ACF900
885C1F1C500000000002651000
885C1F1C500000000000000000
885C1F1C500000000000000000
885C1F1C500000000000000000
885C1F1C500000000000000000
885C1F1C500000000000000000
885C1F1C500000000000000000
885C1F1C500000000000000000
885C1F1C500000000000000000
885C1F1C500000000000000000
885C1F1C500000000000000000
885C1F1CB99999999300000000
885C1F1CA88888888200000000
885C1F1C966666666200000000
885C1F1CCBBBBBBBB400000000
885C1F1C622222222100000000
885C1F1CFFFFFFFFF500000000
ENDCHAR
STARTCHAR lcaron
ENCODING 318
SWIDTH 584 0
DWIDTH 19 0
BBX 17 24 1 0
BITMAP
0000000000380A1830
44260816304D0F1C50
894D0F1C504D0F1C50
894D0F1C504D0F1C50
894D0F1C504B0F1C50
894D0F1C50001F1C50
894D0F1C50007D0D40
894D0F1C504FD32F10
894D0F1C501202C900
894D0F1C503ACF9000
894D0F1C5026510000
894D0F1C5000000000
894D0F1C5000000000
894D0F1C5000000000
894D0F1C5000000000
894D0F1C5000000000
894D0F1C5000000000
894D0F1C5000000000
894D0F1CB999999960
894D0F1CA888888850
894D0F1C9666666640
894D0F1CDBBBBBBB70
894D0F1C6222222210
894D0F1CFFFFFFFFA0
ENDCHAR
STARTCHAR Ldot
ENCODING 319
SWIDTH 604 0
DWIDTH 19 0
BBX 18 26 1 0
BITMAP
784B1D1A4000000000
894C1F1C5000000000
894C1F1C5000000000
894C1F1C5000000000
894C1F1C5000000000
894C1F1C5000000000
894C1F1C5000000000
894C1F1C5000000000
894C1F1C5000000000
894C1F1C5000000000
894C1F1C50CFFFFC00
894C1F1C5012222200
894C1F1C509BBBB900
894C1F1C5046666500
894C1F1C5068888600
894C1F1C5079999800
894C1F1C5000000000
894C1F1C5000000000
894C1F1C5000000000
894C1F1C5000000000
894C1F1CB999999993
894C1F1CA888888882
894C1F1C9666666662
894C1F1CDBBBBBBBB4
894C1F1C6222222221
894C1F1CFFFFFFFFF5
ENDCHAR
STARTCHAR ldot
ENCODING 320
SWIDTH 582 0
DWIDTH 19 0
BBX 17 23 1 0
BITMAP
442608163000000000
894D0F1C5000000000
894D0F1C5000000000
894D0F1C5000000000
894D0F1C5000000000
894D0F1C50CFFFFD00
894D0F1C5012222200
894D0F1C509BBBBA00
894D0F1C5046666500
894D0F1C5068888600
894D0F1C5079999800
894D0F1C5000000000
894D0F1C5000000000
894D0F1C5000000000
894D0F1C5000000000
894D0F1C5000000000
894D0F1C5000000000
894D0F1CB999999960
894D0F1CA888888850
894D0F1C9666666640
894D0F1CDBBBBBBB70
894D0F1C6222222210
894D0F1CFFFFFFFFA0
ENDCHAR
STARTCHAR Lslash
ENCODING 321
SWIDTH 604 0
DWIDTH 19 0
BBX 22 26 -3 0
BITMAP
0000784B0D1A5000000000
0000894D0F1C5000000000
0000894D0F1C5000000000
0000894D0F1C5000000000
0000894D0F1C5000000000
0000894D0F1C5000130000
0000894D0F1C504AE90000
0000894D0F1C5CC7210000
0000894D0F1C5216BA0000
0000894D0F1C59EB610000
0025894D0F1C5512780000
1CE7894D0F1C56CEA40000
1512894D0F1C5850000000
18DA894D0F1C5000000000
1830894D0F1C5000000000
05AA894D0F1C5000000000
2C72894D0F1C5000000000
0000894D0F1C5000000000
0000894D0F1C5000000000
0000894D0F1C5000000000
0000894D0F1CB999999993
0000894D0F1CA888888883
0000894D0F1C9666666662
0000894D0F1CDBBBBBBBB4
0000894D0F1C6222222221
0000894D0F1CFFFFFFFFF5
ENDCHAR
STARTCHAR lslash
ENCODING 322
SWIDTH 581 0
DWIDTH 19 0
BBX 21 23 -3 0
BITMAP
0000442608163000000000
0000894D0F1C5000000000
0000894D0F1C5000000000
0000894D0F1C5000000000
0000894D0F1C5000460000
0000894D0F1C539ED60000
0000894D0F1C5A83130000
0000894D0F1C515AE90000
0000894D0F1C5CC7210000
0167894D0F1C5116CA0000
2EA4894D0F1C59EB510000
0135894D0F1C5410000000
1DE7894D0F1C5000000000
1402894D0F1C5000000000
19E9894D0F1C5000000000
1830894D0F1C5000000000
0000894D0F1C5000000000
0000894D0F1CB999999960
0000894D0F1CA888888850
0000894D0F1C9666666640
0000894D0F1CDBBBBBBB70
0000894D0F1C6222222210
0000894D0F1CFFFFFFFFA0
ENDCHAR
STARTCHAR Nacute
ENCODING 323
SWIDTH 877 0
DWIDTH 28 0
BBX 26 37 1 0
BITMAP
00000000000000000000200000
0000000000000000003AF40000
00000000000000003BE9238000
000000000000003BE813AF9200
0000000000004BE813AF920000
00000000003CE813BE82000000
00000000001714BE8100000000
0000000000008E810000000000
00000000000001000000000000
00000000000000000000000000
00000000000000000000000000
7D1891C54C10000004B1D1A478
8FA2E46D1B80000004C1F1C589
8BE47D0C83E3000004C1F1C589
897D1C73F38C000004C1F1C589
890D73E29B1D600004C1F1C589
8934E29B1E65E10004C1F1C589
89479B1E55E1B90004C1F1C589
894C1E56D1B92E3004C1F1C589
894C06D1B82E37C004C1F1C589
894C15C82E38C1D704C1F1C589
894C1D3F38C1D74E24C1F1C589
894C1F18B1D64E2AA4C1F1C589
894C1F12D65E1AA1E491F1C589
894C1F185E1A91E46D21F1C589
894C1F1C4B92E46D1C81F1C589
894C1F1C52E37D0C83E3E1C589
894C1F1C507C0C73F29B51C589
894C1F1C500D73E29B1E50C589
894C1F1C5004E29B1E55E1C589
894C1F1C5000AA1E55E1B98589
894C1F1C50001E46D1B92E4389
894C1F1C500006D1B82F38C089
894C1F1C500000C83E38C1D689
894C1F1C5000003E28C1D64EA9
894C1F1C50000008B1D64E1AF9
894C1F1C50000001D55E1AA2E9
ENDCHAR
STARTCHAR nacute
ENCODING 324
SWIDTH 787 0
DWIDTH 25 0
BBX 23 33 1 0
BITMAP
000000000000000000020000
000000000000000006DC0000
0000000000000006DD506500
00000000000017EC506DD600
000000000017EC516DD60000
0000000007EC417EC5000000
0000000005417EC500000000
00000000001DC40000000000
000000000001000000000000
000000000000000000000000
470641723600000007253350
8F65E1AA1E4000000E3A76B0
8EE1B82F47D000000E3A76B0
89C83F28C0D700000E3A76B0
894F29B1D65E10000E3A76B0
891AA1E55E1B90000E3A76B0
8945E47D0C82F3000E3A76B0
894B7C0D73F29B000E3A76B0
894C1D64E19B1E500E3A76B0
894C05E1A91E46D00E3A76B0
894C17B92F37D0C70E3A76B0
894C1E3F28C0D74E2E3A76B0
894C1F19B1E55E1AA93A76B0
894C1F11E46D1B92F52A76B0
894C1F107D0C83F38C0A76B0
894C1F100D73E29B1E6A76B0
894C1F1004E1AA1E56E676B0
894C1F1000B92E46D1C836B0
894C1F10002F37C0D73F26B0
894C1F100008B0D64E2AA6B0
894C1F100001E55E1AA2EAB0
894C1F1000006D1B92F37FB0
894C1F1000000C73F28C1DB0
ENDCHAR
STARTCHAR Ncommaaccent
ENCODING 325
SWIDTH 877 0
DWIDTH 28 0
BBX 26 38 1 -12
BITMAP
7D1891C54C10000004B1D1A478
8FA2E46D1B80000004C1F1C589
8BE47D0C83E3000004C1F1C589
897D1C73F38C000004C1F1C589
890D73E29B1D600004C1F1C589
8934E29B1E65E10004C1F1C589
89479B1E55E1B90004C1F1C589
894C1E56D1B92E3004C1F1C589
894C06D1B82E37C004C1F1C589
894C15C82E38C1D704C1F1C589
894C1D3F38C1D74E24C1F1C589
894C1F18B1D64E2AA4C1F1C589
894C1F12D65E1AA1E491F1C589
894C1F185E1A91E46D21F1C589
894C1F1C4B92E46D1C81F1C589
894C1F1C52E37D0C83E3E1C589
894C1F1C507C0C73F29B51C589
894C1F1C500D73E29B1E50C589
894C1F1C5004E29B1E55E1C589
894C1F1C5000AA1E55E1B98589
894C1F1C50001E46D1B92E4389
894C1F1C500006D1B82F38C089
894C1F1C500000C83E38C1D689
894C1F1C5000003E28C1D64EA9
894C1F1C50000008B1D64E1AF9
894C1F1C50000001D55E1AA2E9
00000000000000000000000000
00000000009467390000000000
0000000000C5894D0000000000
0000000000C5894D0000000000
0000000000C5894D0000000000
000000000094894D0000000000
000000000000985C0000000000
000000000003E56B0000000000
0000000000CE80A80000000000
00000000001018E10000000000
00000000009CFC300000000000
00000000004420000000000000
ENDCHAR
STARTCHAR ncommaaccent
ENCODING 326
SWIDTH 787 0
DWIDTH 25 0
BBX 23 35 1 -12
BITMAP
470641723600000007253350
8F65E1AA1E4000000E3A76B0
8EE1B82F47D000000E3A76B0
89C83F28C0D700000E3A76B0
894F29B1D65E10000E3A76B0
891AA1E55E1B90000E3A76B0
8945E47D0C82F3000E3A76B0
894B7C0D73F29B000E3A76B0
894C1D64E19B1E500E3A76B0
894C05E1A91E46D00E3A76B0
894C17B92F37D0C70E3A76B0
894C1E3F28C0D74E2E3A76B0
894C1F19B1E55E1AA93A76B0
894C1F11E46D1B92F52A76B0
894C1F107D0C83F38C0A76B0
894C1F100D73E29B1E6A76B0
894C1F1004E1AA1E56E676B0
894C1F1000B92E46D1C836B0
894C1F10002F37C0D73F26B0
894C1F100008B0D64E2AA6B0
894C1F100001E55E1AA2EAB0
894C1F1000006D1B92F37FB0
894C1F1000000C73F28C1DB0
000000000000000000000000
000000002A0B284000000000
000000003E0F2B6000000000
000000003E0F2B6000000000
000000003E0F2B6000000000
000000002A0F2B6000000000
00000000000F2B6000000000
00000000018D0C4000000000
000000003FD32F1000000000
000000000103C90000000000
000000002CDF800000000000
000000001541000000000000
ENDCHAR
STARTCHAR Ncaron
ENCODING 327
SWIDTH 877 0
DWIDTH 28 0
BBX 26 37 1 0
BITMAP
00000000753A00935700000000
000000005D0E44E1C600000000
000000000E487A93E100000000
0000000008A22F399000000000
0000000002E17C1E3000000000
0000000000B6D66C0000000000
00000000006EE1C60000000000
00000000001D93E10000000000
00000000000000000000000000
00000000000000000000000000
00000000000000000000000000
7D1891C54C10000004B1D1A478
8FA2E46D1B80000004C1F1C589
8BE47D0C83E3000004C1F1C589
897D1C73F38C000004C1F1C589
890D73E29B1D600004C1F1C589
8934E29B1E65E10004C1F1C589
89479B1E55E1B90004C1F1C589
894C1E56D1B92E3004C1F1C589
894C06D1B82E37C004C1F1C589
894C15C82E38C1D704C1F1C589
894C1D3F38C1D74E24C1F1C589
894C1F18B1D64E2AA4C1F1C589
894C1F12D65E1AA1E491F1C589
894C1F185E1A91E46D21F1C589
894C1F1C4B92E46D1C81F1C589
894C1F1C52E37D0C83E3E1C589
894C1F1C507C0C73F29B51C589
894C1F1C500D73E29B1E50C589
894C1F1C5004E29B1E55E1C589
894C1F1C5000AA1E55E1B98589
894C1F1C50001E46D1B92E4389
894C1F1C500006D1B82F38C089
894C1F1C500000C83E38C1D689
894C1F1C5000003E28C1D64EA9
894C1F1C50000008B1D64E1AF9
894C1F1C50000001D55E1AA2E9
ENDCHAR
STARTCHAR ncaron
ENCODING 328
SWIDTH 787 0
DWIDTH 25 0
BBX 23 33 1 0
BITMAP
0000001A1750490A30000000
0000000C66D0A84E00000000
00000006C1E2F2A800000000
00000001E347B1F200000000
00000000990D57B000000000
000000003E5E0D5000000000
000000000CE84E0000000000
0000000006E2980000000000
000000000000000000000000
000000000000000000000000
470641723600000007253350
8F65E1AA1E4000000E3A76B0
8EE1B82F47D000000E3A76B0
89C83F28C0D700000E3A76B0
894F29B1D65E10000E3A76B0
891AA1E55E1B90000E3A76B0
8945E47D0C82F3000E3A76B0
894B7C0D73F29B000E3A76B0
894C1D64E19B1E500E3A76B0
894C05E1A91E46D00E3A76B0
894C17B92F37D0C70E3A76B0
894C1E3F28C0D74E2E3A76B0
894C1F19B1E55E1AA93A76B0
894C1F11E46D1B92F52A76B0
894C1F107D0C83F38C0A76B0
894C1F100D73E29B1E6A76B0
894C1F1004E1AA1E56E676B0
894C1F1000B92E46D1C836B0
894C1F10002F37C0D73F26B0
894C1F100008B0D64E2AA6B0
894C1F100001E55E1AA2EAB0
894C1F1000006D1B92F37FB0
894C1F1000000C73F28C1DB0
ENDCHAR
STARTCHAR Eng
ENCODING 330
SWIDTH 874 0
DWIDTH 28 0
BBX 26 37 1 -11
BITMAP
7D2891C54C10000005A2D0C386
8FA1E45E1B90000006B2F0D4A7
8BE56D1B92E4000006B2F0D4A7
896D1B92E46D100006B2F0D4A7
890C92E36D1B900006B2F0D4A7
8933F37C0C82E40006B2F0D4A7
89488C1C73F37D1006B2F0D4A7
894D0D73E28C1C8006B2F0D4A7
894D04E28B0D73F306B2F0D4A7
894D059B1D63F28D06B2F0D4A7
894D0D1E64E29C1D86B2F0D4A7
894D0F15E1AA1D63D6B2F0D4A7
894D0F11BA1E55E266B2F0D4A7
894D0F182E46E1AB06B2F0D4A7
894D0F1C47D1B91E56B2F0D4A7
894D0F1C50C82E46C6B2F0D4A7
894D0F1C503F37D086B2F0D4A7
894D0F1C5008C0C806B2F0D4A7
894D0F1C5001D73F36B2F0D4A7
894D0F1C50004E28A6B2F0D4A7
894D0F1C50000AB196B2F0D4A7
894D0F1C500001E516B2F0D4A7
894D0F1C5000006E16B2F0D4A7
894D0F1C5000000B86B2F0D4A7
894D0F1C5000000296B2F0D4A7
894D0F1C5000000026B2F0D3A7
000000000000000007A3E0E3B6
00000000000000002D56B1F1C5
00000000000003CDF91D66C1F2
000000000000014421BB1D66C0
0000000000000299AEA1AB0D50
0000000000000288731AD19C00
000000000000015569EA17E200
00000000000003CCB831AE3000
0000000000000011259EA20000
00000000000004FFED83000000
00000000000000110000000000
ENDCHAR
STARTCHAR eng
ENCODING 331
SWIDTH 691 0
DWIDTH 22 0
BBX 20 32 1 -9
BITMAP
47064172360000716345
8F65E1AA1E4000F2B67A
8EE1B82F47D000F2B67A
89C83F28C0D700F2B67A
894F29B1D65E10F2B67A
891AA1E45E1B90F2B67A
8945E47D0C82F3F2B67A
894B8C0D73F297F2B67A
894C1D64E1AB16F2B67A
894C06E1A92E40F2B67A
894C17B92F37D0F2B67A
894C1E3F28C0D5F2B67A
894C1F19B1E557F2B67A
894C1F11E46D13F2B67A
894C1F107D0C80F2B67A
894C1F100D73E2F2B67A
894C1F1004E1A6F2B67A
894C1F1000B925F2B67A
894C1F10002F30F2B67A
894C1F100008B0F2B67A
894C1F100001E4F2B67A
894C1F10000066F2B67A
894C1F10000003F2B67A
00000000000000F2B67A
00000000000002F1C589
0000000000001BA1F2B7
000000000008FA1AA1F2
00000000000211AD19B0
000000000005BEB17E20
0000000000046219E300
0000000000037AEB2000
000000000006A8300000
ENDCHAR
ENDFONT
